STARTFONT 2.1
COMMENT 
COMMENT Converted from OpenType font "LiberationSansNarrow-Bold.ttf" by "otf2bdf 3.0".
COMMENT 
FONT -FreeType-Liberation Sans Narrow-Bold-R-Normal--46-330-100-100-P-209-ISO10646-1
SIZE 33 100 100
FONTBOUNDINGBOX 20 32 0 0
STARTPROPERTIES 20
FOUNDRY "FreeType"
FAMILY_NAME "Liberation Sans Narrow"
WEIGHT_NAME "Bold"
SLANT "R"
SETWIDTH_NAME "Normal"
ADD_STYLE_NAME ""
PIXEL_SIZE 46
POINT_SIZE 330
RESOLUTION_X 100
RESOLUTION_Y 100
SPACING "P"
AVERAGE_WIDTH 209
CHARSET_REGISTRY "ISO10646"
CHARSET_ENCODING "1"
FONT_ASCENT 43
FONT_DESCENT 9
COPYRIGHT "Copyright 2010 Oracle and/or its affiliates"
_OTF_FONTFILE "LiberationSansNarrow-Bold.ttf"
_OTF_PSNAME "LiberationSansNarrow-Bold"
_GBDFED_INFO "Edited with gbdfed 1.6."
ENDPROPERTIES
CHARS 661
STARTCHAR 0020
ENCODING 32
SWIDTH 458 0
DWIDTH 15 0
BBX 0 0 0 0
BITMAP
ENDCHAR
STARTCHAR 0021
ENCODING 33
SWIDTH 283 0
DWIDTH 13 0
BBX 5 32 4 0
BITMAP
F8
F8
F8
F8
F8
F8
F8
F8
F8
F8
F8
F8
F8
F8
F8
F8
F8
F8
F0
F0
F0
F0
00
00
00
00
F8
F8
F8
F8
F8
F8
ENDCHAR
STARTCHAR 0022
ENCODING 34
SWIDTH 392 0
DWIDTH 18 0
BBX 12 11 3 21
BITMAP
F9F0
F1F0
F1F0
F1F0
F0F0
F0F0
F0F0
F0F0
F0F0
F0F0
F0F0
ENDCHAR
STARTCHAR 0023
ENCODING 35
SWIDTH 458 0
DWIDTH 21 0
BBX 19 30 1 0
BITMAP
0381C0
0381C0
038180
038380
030380
070380
070380
070300
7FFFE0
7FFFE0
7FFFE0
0E0700
0E0600
0E0E00
0E0E00
0C0E00
1C0E00
1C0E00
FFFFC0
FFFFC0
FFFFC0
381C00
381C00
381800
383800
383800
303800
703800
703800
703000
ENDCHAR
STARTCHAR 0024
ENCODING 36
SWIDTH 458 0
DWIDTH 21 0
BBX 19 37 1 -3
BITMAP
006000
006000
006000
07FC00
1FFF00
3FFF80
7FFF80
7E6FC0
7C67C0
F867E0
F863E0
F86000
FC6000
7E6000
7FE000
7FF000
3FFE00
1FFF00
07FF80
01FFC0
007FE0
0067E0
0063E0
0063E0
F061E0
F861E0
F863E0
FC63E0
7E6FE0
7FFFC0
3FFFC0
1FFF00
0FFE00
006000
006000
006000
006000
ENDCHAR
STARTCHAR 0025
ENCODING 37
SWIDTH 741 0
DWIDTH 34 0
BBX 32 32 1 0
BITMAP
0F8003C0
3FE00380
7FE00780
78F00F00
78F00F00
F0781E00
F0781E00
F0783C00
F0783C00
F0787800
F0787800
F078F000
F078F3F0
F079E7F8
F0F9CFFC
78F3CF3C
7FF39E1E
3FE79E1E
3FC71E1E
0F8F1E1E
001E1E0E
001E3E0F
003C3E0F
003C1E0F
00781E1E
00781E1E
00F01E1E
00F01F3E
01E00FFC
01E00FFC
03C007F8
038001F0
ENDCHAR
STARTCHAR 0026
ENCODING 38
SWIDTH 589 0
DWIDTH 27 0
BBX 24 32 2 0
BITMAP
007C00
01FF00
03FF80
07FF80
07C7C0
0783C0
0783C0
0783C0
0783C0
0787C0
078F80
07BF00
07FE00
03FC00
0FF000
1FE030
3FF03C
7FF03C
7CF87C
F8F878
F87CF8
F03EF0
F03FF0
F01FF0
F81FE0
F80FE0
F80FF0
7E1FFF
7FFFFF
3FFEFF
1FFC7F
07F01F
ENDCHAR
STARTCHAR 0027
ENCODING 39
SWIDTH 196 0
DWIDTH 9 0
BBX 5 11 2 21
BITMAP
F8
F8
F8
F8
F8
F8
F8
F8
F8
F8
F8
ENDCHAR
STARTCHAR 0028
ENCODING 40
SWIDTH 283 0
DWIDTH 13 0
BBX 10 43 2 -10
BITMAP
07C0
07C0
0F80
0F80
1F00
1F00
3E00
3E00
3E00
7C00
7C00
7C00
7C00
FC00
F800
F800
F800
F800
F800
F800
F800
F800
F800
F800
F800
F800
F800
F800
F800
FC00
7C00
7C00
7C00
7C00
3E00
3E00
3E00
1F00
1F00
0F80
0F80
07C0
07C0
ENDCHAR
STARTCHAR 0029
ENCODING 41
SWIDTH 283 0
DWIDTH 13 0
BBX 11 43 0 -10
BITMAP
F800
7C00
7E00
3E00
3E00
1F00
1F00
1F80
0F80
0F80
0F80
07C0
07C0
07C0
07C0
07C0
07C0
07E0
07E0
03E0
03E0
03E0
03E0
03E0
07E0
07E0
07C0
07C0
07C0
07C0
07C0
07C0
0F80
0F80
0F80
1F80
1F00
1F00
3E00
3E00
7E00
7C00
F800
ENDCHAR
STARTCHAR 002A
ENCODING 42
SWIDTH 327 0
DWIDTH 15 0
BBX 14 17 0 15
BITMAP
0780
0380
0380
0380
638C
7BBC
7FFC
FFFC
7FFC
0FC0
0FE0
1FE0
1EF0
3CF8
7C78
1870
0820
ENDCHAR
STARTCHAR 002B
ENCODING 43
SWIDTH 480 0
DWIDTH 22 0
BBX 19 23 2 4
BITMAP
01E000
01E000
01E000
01E000
01E000
01E000
01E000
01E000
01E000
FFFFE0
FFFFE0
FFFFE0
FFFFE0
FFFFE0
01E000
01E000
01E000
01E000
01E000
01E000
01E000
01E000
01E000
ENDCHAR
STARTCHAR 002C
ENCODING 44
SWIDTH 218 0
DWIDTH 10 0
BBX 5 14 3 -7
BITMAP
F8
F8
F8
F8
F8
F8
F8
38
38
38
70
70
F0
E0
ENDCHAR
STARTCHAR 002D
ENCODING 45
SWIDTH 283 0
DWIDTH 13 0
BBX 10 5 1 9
BITMAP
FFC0
FFC0
FFC0
FFC0
FFC0
ENDCHAR
STARTCHAR 002E
ENCODING 46
SWIDTH 218 0
DWIDTH 10 0
BBX 5 7 3 0
BITMAP
F8
F8
F8
F8
F8
F8
F8
ENDCHAR
STARTCHAR 002F
ENCODING 47
SWIDTH 218 0
DWIDTH 10 0
BBX 10 34 0 -1
BITMAP
03C0
07C0
07C0
07C0
0780
0780
0780
0780
0F80
0F80
0F80
0F00
0F00
0F00
1F00
1F00
1F00
1E00
1E00
1E00
1E00
3E00
3E00
3C00
3C00
3C00
3C00
7C00
7C00
7C00
7800
7800
7800
F800
ENDCHAR
STARTCHAR 0030
ENCODING 48
SWIDTH 458 0
DWIDTH 21 0
BBX 19 32 1 0
BITMAP
03F800
0FFE00
1FFF00
3FFF80
7FFFC0
7F1FC0
7E0FC0
FE0FE0
FC07E0
FC07E0
FC07E0
FC07E0
FC07E0
FC07E0
FC07E0
FC07E0
FC07E0
FC07E0
FC07E0
FC07E0
FC07E0
FC07E0
FC07E0
FC07E0
FE0FE0
7E0FC0
7F1FC0
3FFF80
3FFF80
1FFF00
0FFE00
03F800
ENDCHAR
STARTCHAR 0031
ENCODING 49
SWIDTH 458 0
DWIDTH 15 0
BBX 13 32 1 0
BITMAP
00F8
00F8
01F8
01F8
07F8
1FF8
FFF8
FFF8
FFF8
FFF8
01F8
01F8
01F8
01F8
01F8
01F8
01F8
01F8
01F8
01F8
01F8
01F8
01F8
01F8
01F8
01F8
01F8
01F8
01F8
01F8
01F8
01F8
ENDCHAR
STARTCHAR 0032
ENCODING 50
SWIDTH 458 0
DWIDTH 21 0
BBX 19 32 1 0
BITMAP
07FC00
1FFF00
3FFF80
7FFFC0
7FFFC0
FF1FE0
FE0FE0
FC07E0
FC07E0
FC07E0
0007E0
000FE0
000FC0
001FC0
003FC0
007F80
00FF00
01FE00
03FC00
07F800
07F000
0FE000
1FC000
3FC000
3F8000
7F0000
7F0000
FFFFE0
FFFFE0
FFFFE0
FFFFE0
FFFFE0
ENDCHAR
STARTCHAR 0033
ENCODING 51
SWIDTH 589 0
DWIDTH 21 0
BBX 19 32 1 0
BITMAP
07FC00
1FFF00
3FFF80
7FFFC0
7FFFC0
FE1FE0
FC0FE0
F807E0
F807E0
0007E0
000FE0
000FC0
001FC0
01FF80
01FF00
01FE00
01FF00
01FF80
001FC0
000FC0
0007E0
0007E0
F807E0
F807E0
F807E0
FC0FE0
FE1FE0
7FFFC0
7FFFC0
3FFF80
1FFF00
07FC00
ENDCHAR
STARTCHAR 0034
ENCODING 52
SWIDTH 458 0
DWIDTH 21 0
BBX 20 32 1 0
BITMAP
003F80
003F80
007F80
007F80
00FF80
00FF80
01FF80
01FF80
03FF80
03FF80
07DF80
0FDF80
0F9F80
1F9F80
1F1F80
3F1F80
3E1F80
7E1F80
7C1F80
FC1F80
F81F80
FFFFF0
FFFFF0
FFFFF0
FFFFF0
FFFFF0
001F80
001F80
001F80
001F80
001F80
001F80
ENDCHAR
STARTCHAR 0035
ENCODING 53
SWIDTH 458 0
DWIDTH 21 0
BBX 19 32 1 0
BITMAP
7FFF80
7FFF80
7FFF80
7FFF80
7FFF80
7E0000
FC0000
FC0000
FC0000
FC0000
FDFC00
FFFE00
FFFF00
FFFF80
FFFFC0
FF3FC0
FC0FC0
000FE0
0007E0
0007E0
0007E0
0007E0
0007E0
F80FE0
FC0FE0
FC1FC0
FE3FC0
FFFF80
7FFF80
3FFF00
1FFE00
07F800
ENDCHAR
STARTCHAR 0036
ENCODING 54
SWIDTH 3207 0
DWIDTH 21 0
BBX 19 32 1 0
BITMAP
03F800
0FFE00
1FFF00
3FFF80
3FFF80
7F1FC0
7E0FC0
7C0FC0
7C0000
FC0000
FC0000
FDFC00
FFFF00
FFFF80
FFFF80
FFFFC0
FF1FC0
FE0FC0
FC07E0
FC07E0
FC07E0
FC07E0
FC07E0
7C07E0
7C07E0
7E0FC0
7F1FC0
3FFFC0
3FFF80
1FFF00
0FFE00
03F800
ENDCHAR
STARTCHAR 0037
ENCODING 55
SWIDTH 436 0
DWIDTH 20 0
BBX 19 32 1 0
BITMAP
FFFFE0
FFFFE0
FFFFE0
FFFFE0
FFFFE0
0007E0
0007E0
000FC0
000FC0
001F80
001F80
003F00
003F00
007E00
007E00
00FC00
00FC00
01FC00
01F800
01F800
03F800
03F000
03F000
07F000
07F000
07E000
07E000
07E000
0FE000
0FE000
0FE000
0FE000
ENDCHAR
STARTCHAR 0038
ENCODING 56
SWIDTH 458 0
DWIDTH 21 0
BBX 19 32 1 0
BITMAP
07FC00
1FFF00
3FFF80
7FFFC0
7F1FC0
FE0FE0
FC07E0
FC07E0
FC07E0
FC07E0
FE0FE0
7E0FC0
7F1FC0
3FFF80
1FFF00
1FFF00
3FFF80
7F1FC0
7E0FC0
FE0FE0
FC07E0
FC07E0
FC07E0
FC07E0
FC07E0
FE0FE0
FE0FE0
7F1FC0
7FFFC0
3FFF80
1FFF00
07FC00
ENDCHAR
STARTCHAR 0039
ENCODING 57
SWIDTH 458 0
DWIDTH 21 0
BBX 19 32 1 0
BITMAP
03F800
0FFE00
1FFF00
3FFF80
7FFF80
7F1FC0
7E0FC0
FC07C0
FC07C0
FC07E0
FC07E0
FC07E0
FC07E0
FC07E0
7E0FE0
7F1FE0
7FFFE0
3FFFE0
3FFFE0
1FFFE0
07F7E0
0007E0
0007E0
0007C0
7E07C0
7E0FC0
7F1FC0
3FFF80
3FFF80
1FFF00
0FFE00
03F800
ENDCHAR
STARTCHAR 003A
ENCODING 58
SWIDTH 261 0
DWIDTH 10 0
BBX 6 21 2 5
BITMAP
FC
FC
FC
FC
FC
FC
00
00
00
00
00
00
00
00
00
FC
FC
FC
FC
FC
FC
ENDCHAR
STARTCHAR 003B
ENCODING 59
SWIDTH 283 0
DWIDTH 13 0
BBX 5 30 4 -7
BITMAP
F8
F8
F8
F8
F8
F8
00
00
00
00
00
00
00
00
00
00
00
F8
F8
F8
F8
F8
F8
38
38
38
70
70
70
E0
ENDCHAR
STARTCHAR 003C
ENCODING 60
SWIDTH 480 0
DWIDTH 22 0
BBX 19 25 2 3
BITMAP
000020
0000E0
0003E0
000FE0
003FE0
01FFE0
07FF00
1FFC00
7FF000
FFC000
FF0000
FC0000
F00000
F80000
FE0000
FF8000
FFE000
3FF800
0FFE00
03FF80
00FFE0
001FE0
0007E0
0001E0
000060
ENDCHAR
STARTCHAR 003D
ENCODING 61
SWIDTH 480 0
DWIDTH 22 0
BBX 18 17 2 7
BITMAP
FFFFC0
FFFFC0
FFFFC0
FFFFC0
FFFFC0
000000
000000
000000
000000
000000
000000
000000
FFFFC0
FFFFC0
FFFFC0
FFFFC0
FFFFC0
ENDCHAR
STARTCHAR 003E
ENCODING 62
SWIDTH 480 0
DWIDTH 22 0
BBX 19 24 2 4
BITMAP
C00000
F00000
FC0000
FF0000
FFE000
3FF800
0FFE00
03FF80
00FFE0
003FE0
000FE0
0003E0
0007E0
001FE0
007FE0
01FFC0
07FF00
1FFC00
7FF000
FFC000
FF0000
F80000
E00000
800000
ENDCHAR
STARTCHAR 003F
ENCODING 63
SWIDTH 501 0
DWIDTH 23 0
BBX 19 32 2 0
BITMAP
03F800
0FFE00
1FFF00
3FFF80
7FFFC0
7F0FC0
FC07E0
FC07E0
F803E0
F803E0
0003E0
0007E0
0007C0
000FC0
001F80
003F00
007E00
00FC00
01F800
01F000
03F000
03E000
03E000
000000
000000
000000
03E000
03E000
03E000
03E000
03E000
03E000
ENDCHAR
STARTCHAR 0040
ENCODING 64
SWIDTH 807 0
DWIDTH 37 0
BBX 33 39 2 -7
BITMAP
0003FC0000
001FFF8000
007FFFE000
00FC03F000
01F000F800
03C0003C00
0780001C00
0F00001E00
1E03E18E00
1C07F38700
3C1FFB8700
381E1F8700
383C0F8300
70780F8300
7070070380
7070070380
70E0070380
E0E0070380
E0E00F0300
E0E00E0700
E0E00E0700
E0E00E0700
E0E01E0700
E0E01E0E00
E0E03E0E00
E0F07E1C00
7078EE3C00
707FEFF800
703FC7F000
781F03C000
3800000000
3C00000000
1E00000000
0F0000C000
0F8003E000
07E01FE000
01FFFF8000
00FFFE0000
001FE00000
ENDCHAR
STARTCHAR 0041
ENCODING 65
SWIDTH 589 0
DWIDTH 27 0
BBX 25 32 1 0
BITMAP
007F0000
007F0000
007F8000
00FF8000
00FF8000
00FF8000
01F7C000
01F7C000
01F7C000
01F3E000
03E3E000
03E3E000
03E1E000
07C1F000
07C1F000
07C1F000
07C0F800
0F80F800
0F80F800
0FFFFC00
1FFFFC00
1FFFFC00
1FFFFC00
3FFFFE00
3F003E00
3E003E00
3E003F00
7E001F00
7C001F00
7C001F00
FC001F80
FC000F80
ENDCHAR
STARTCHAR 0042
ENCODING 66
SWIDTH 589 0
DWIDTH 27 0
BBX 23 32 3 0
BITMAP
FFFE00
FFFFC0
FFFFE0
FFFFF0
FFFFF0
F803F8
F801F8
F801F8
F800F8
F800F8
F801F8
F801F0
F803F0
FFFFE0
FFFFC0
FFFF80
FFFFE0
FFFFF8
F801F8
F800FC
F8007C
F8007C
F8007C
F8007E
F8007C
F800FC
F801FC
FFFFFC
FFFFF8
FFFFF0
FFFFE0
FFFF00
ENDCHAR
STARTCHAR 0043
ENCODING 67
SWIDTH 589 0
DWIDTH 27 0
BBX 24 32 2 0
BITMAP
00FF00
03FFE0
0FFFF0
1FFFF8
1FFFFC
3FC1FE
7F007E
7E003F
7C003F
FC0018
FC0000
F80000
F80000
F80000
F80000
F80000
F80000
F80000
F80000
F80000
F80000
FC0018
FC001E
7E003F
7E003F
7F007E
3FC1FE
1FFFFC
0FFFF8
07FFF0
03FFE0
007F00
ENDCHAR
STARTCHAR 0044
ENCODING 68
SWIDTH 589 0
DWIDTH 27 0
BBX 23 32 3 0
BITMAP
FFF800
FFFF00
FFFF80
FFFFC0
FFFFE0
F80FF0
F803F8
F801F8
F801FC
F800FC
F800FC
F8007C
F8007C
F8007E
F8007E
F8007E
F8007E
F8007E
F8007E
F8007C
F8007C
F800FC
F800FC
F801F8
F801F8
F803F8
F80FF0
FFFFE0
FFFFC0
FFFF80
FFFF00
FFFC00
ENDCHAR
STARTCHAR 0045
ENCODING 69
SWIDTH 545 0
DWIDTH 25 0
BBX 21 32 3 0
BITMAP
FFFFF0
FFFFF0
FFFFF0
FFFFF0
FFFFF0
F80000
F80000
F80000
F80000
F80000
F80000
F80000
F80000
FFFFE0
FFFFE0
FFFFE0
FFFFE0
FFFFE0
F80000
F80000
F80000
F80000
F80000
F80000
F80000
F80000
F80000
FFFFF8
FFFFF8
FFFFF8
FFFFF8
FFFFF8
ENDCHAR
STARTCHAR 0046
ENCODING 70
SWIDTH 501 0
DWIDTH 23 0
BBX 19 32 3 0
BITMAP
FFFFE0
FFFFE0
FFFFE0
FFFFE0
FFFFE0
F80000
F80000
F80000
F80000
F80000
F80000
F80000
F80000
F80000
F80000
FFFFC0
FFFFC0
FFFFC0
FFFFC0
FFFFC0
F80000
F80000
F80000
F80000
F80000
F80000
F80000
F80000
F80000
F80000
F80000
F80000
ENDCHAR
STARTCHAR 0047
ENCODING 71
SWIDTH 632 0
DWIDTH 29 0
BBX 25 32 2 0
BITMAP
007F8000
03FFE000
07FFF800
1FFFFC00
1FFFFE00
3FC0FE00
7F007F00
7E003F00
7E001E00
FC001000
FC000000
F8000000
F8000000
F8000000
F8000000
F803FF80
F803FF80
F803FF80
F803FF80
F803FF80
FC000F80
FC000F80
FC000F80
7E000F80
7E000F80
7F001F80
3FC0FF80
1FFFFF00
0FFFFE00
07FFFC00
03FFF000
007F8000
ENDCHAR
STARTCHAR 0048
ENCODING 72
SWIDTH 589 0
DWIDTH 27 0
BBX 22 32 3 0
BITMAP
F800FC
F800FC
F800FC
F800FC
F800FC
F800FC
F800FC
F800FC
F800FC
F800FC
F800FC
F800FC
F800FC
FFFFFC
FFFFFC
FFFFFC
FFFFFC
FFFFFC
F800FC
F800FC
F800FC
F800FC
F800FC
F800FC
F800FC
F800FC
F800FC
F800FC
F800FC
F800FC
F800FC
F800FC
ENDCHAR
STARTCHAR 0049
ENCODING 73
SWIDTH 218 0
DWIDTH 10 0
BBX 5 32 3 0
BITMAP
F8
F8
F8
F8
F8
F8
F8
F8
F8
F8
F8
F8
F8
F8
F8
F8
F8
F8
F8
F8
F8
F8
F8
F8
F8
F8
F8
F8
F8
F8
F8
F8
ENDCHAR
STARTCHAR 004A
ENCODING 74
SWIDTH 458 0
DWIDTH 21 0
BBX 17 32 1 0
BITMAP
01FF80
01FF80
01FF80
01FF80
01FF80
000F80
000F80
000F80
000F80
000F80
000F80
000F80
000F80
000F80
000F80
000F80
000F80
000F80
000F80
000F80
000F80
000F80
180F80
F80F80
FC0F80
FC1F80
FE3F80
7FFF00
7FFF00
3FFE00
1FFC00
07F000
ENDCHAR
STARTCHAR 004B
ENCODING 75
SWIDTH 589 0
DWIDTH 27 0
BBX 24 32 3 0
BITMAP
F800FE
F801FC
F801F8
F803F0
F807E0
F80FE0
F81FC0
F81F80
F83F00
F87E00
F8FE00
F9FC00
F9F800
FBF000
FFF000
FFF800
FFFC00
FFFC00
FE7E00
FC7F00
F83F00
F81F80
F81FC0
F80FC0
F807E0
F807F0
F803F0
F801F8
F801FC
F800FC
F8007E
F8007F
ENDCHAR
STARTCHAR 004C
ENCODING 76
SWIDTH 501 0
DWIDTH 23 0
BBX 19 32 3 0
BITMAP
F80000
F80000
F80000
F80000
F80000
F80000
F80000
F80000
F80000
F80000
F80000
F80000
F80000
F80000
F80000
F80000
F80000
F80000
F80000
F80000
F80000
F80000
F80000
F80000
F80000
F80000
F80000
FFFFE0
FFFFE0
FFFFE0
FFFFE0
FFFFE0
ENDCHAR
STARTCHAR 004D
ENCODING 77
SWIDTH 676 0
DWIDTH 31 0
BBX 26 32 3 0
BITMAP
FE001FC0
FE003FC0
FE003FC0
FF003FC0
FF003FC0
FF007FC0
FF007FC0
FF807FC0
F7807FC0
F780F7C0
F7C0F7C0
F7C0F7C0
F3C1F7C0
F3C1F7C0
F3E1E7C0
F3E1E7C0
F1E3E7C0
F1E3E7C0
F1F3C7C0
F1F3C7C0
F0F7C7C0
F0F787C0
F0F787C0
F07F87C0
F07F87C0
F07F07C0
F07F07C0
F03F07C0
F03F07C0
F03E07C0
F03E07C0
F01E07C0
ENDCHAR
STARTCHAR 004E
ENCODING 78
SWIDTH 589 0
DWIDTH 27 0
BBX 22 32 3 0
BITMAP
FC007C
FC007C
FE007C
FE007C
FF007C
FF007C
FF807C
FF807C
FFC07C
F7C07C
F7E07C
F3E07C
F3E07C
F1F07C
F1F07C
F0F87C
F0F87C
F07C7C
F07C7C
F03E7C
F03E7C
F03F7C
F01F7C
F01FFC
F00FFC
F00FFC
F007FC
F007FC
F003FC
F003FC
F001FC
F001FC
ENDCHAR
STARTCHAR 004F
ENCODING 79
SWIDTH 632 0
DWIDTH 29 0
BBX 26 32 2 0
BITMAP
007F0000
03FFE000
07FFF800
0FFFFC00
1FFFFC00
3FC1FE00
7F007F00
7E003F00
7E001F80
FC001F80
FC001F80
F8000F80
F8000FC0
F8000FC0
F8000FC0
F8000FC0
F8000FC0
F8000FC0
F8000FC0
F8000FC0
FC000F80
FC001F80
FC001F80
7E001F80
7E003F00
3F007F00
3FC1FE00
1FFFFC00
0FFFF800
07FFF000
03FFE000
007F0000
ENDCHAR
STARTCHAR 0050
ENCODING 80
SWIDTH 545 0
DWIDTH 25 0
BBX 21 32 3 0
BITMAP
FFFE00
FFFF80
FFFFC0
FFFFE0
FFFFF0
F807F0
F803F0
F801F8
F801F8
F801F8
F801F8
F801F8
F801F8
F801F8
F803F0
F807F0
FFFFE0
FFFFE0
FFFFC0
FFFF80
FFFE00
F80000
F80000
F80000
F80000
F80000
F80000
F80000
F80000
F80000
F80000
F80000
ENDCHAR
STARTCHAR 0051
ENCODING 81
SWIDTH 632 0
DWIDTH 29 0
BBX 26 41 2 -9
BITMAP
007F0000
03FFE000
07FFF000
0FFFFC00
1FFFFC00
3FC1FE00
3F007F00
7E003F00
7E001F80
FC001F80
FC001F80
FC000F80
F8000FC0
F8000FC0
F8000FC0
F8000FC0
F8000FC0
F8000FC0
F8000FC0
F8000FC0
FC000F80
FC001F80
FC001F80
7E001F80
7E003F00
7F007F00
3FC0FE00
1FFFFE00
1FFFFC00
0FFFF800
03FFE000
00FF8000
001F0000
001F8000
001F8000
000FE000
000FFE00
0007FE00
0007FE00
0003FE00
0000FE00
ENDCHAR
STARTCHAR 0052
ENCODING 82
SWIDTH 589 0
DWIDTH 27 0
BBX 23 32 3 0
BITMAP
FFFF00
FFFFC0
FFFFF0
FFFFF0
FFFFF8
F803FC
F800FC
F800FC
F8007C
F8007C
F8007C
F8007C
F800FC
F800FC
F803F8
FFFFF8
FFFFF0
FFFFE0
FFFF80
FFFF80
F80F80
F80FC0
F807C0
F807E0
F803E0
F803F0
F801F8
F801F8
F800FC
F800FC
F8007E
F8007E
ENDCHAR
STARTCHAR 0053
ENCODING 83
SWIDTH 545 0
DWIDTH 25 0
BBX 23 32 1 0
BITMAP
01FF00
07FFC0
0FFFF0
1FFFF0
3FFFF8
3F83F8
3E00FC
7E00FC
7E0070
7E0000
7E0000
3F0000
3FE000
3FFC00
1FFF80
0FFFE0
03FFF8
00FFF8
000FFC
0001FC
0000FC
00007E
00007E
FC007E
FC007E
7E007C
7F81FC
3FFFFC
3FFFF8
1FFFF0
07FFE0
01FF00
ENDCHAR
STARTCHAR 0054
ENCODING 84
SWIDTH 501 0
DWIDTH 23 0
BBX 23 32 0 0
BITMAP
FFFFFE
FFFFFE
FFFFFE
FFFFFE
FFFFFE
007C00
007C00
007C00
007C00
007C00
007C00
007C00
007C00
007C00
007C00
007C00
007C00
007C00
007C00
007C00
007C00
007C00
007C00
007C00
007C00
007C00
007C00
007C00
007C00
007C00
007C00
007C00
ENDCHAR
STARTCHAR 0055
ENCODING 85
SWIDTH 589 0
DWIDTH 27 0
BBX 23 32 2 0
BITMAP
FC007E
FC007E
FC007E
FC007E
FC007E
FC007E
FC007E
FC007E
FC007E
FC007E
FC007E
FC007E
FC007E
FC007E
FC007E
FC007E
FC007E
FC007E
FC007E
FC007E
FC007E
FC007E
FC007E
7C007E
7E00FC
7F01FC
3F83F8
3FFFF8
1FFFF0
0FFFE0
07FFC0
00FE00
ENDCHAR
STARTCHAR 0056
ENCODING 86
SWIDTH 545 0
DWIDTH 25 0
BBX 25 32 0 0
BITMAP
FC001F80
7C001F00
7E001F00
7E003F00
3E003F00
3E003E00
3F003E00
3F007E00
1F007C00
1F007C00
1F807C00
0F80F800
0F80F800
0F80F800
07C0F800
07C1F000
07C1F000
07C1F000
03E3E000
03E3E000
03E3E000
01E3E000
01F7C000
01F7C000
00F7C000
00F78000
00FF8000
007F8000
007F0000
007F0000
007F0000
003F0000
ENDCHAR
STARTCHAR 0057
ENCODING 87
SWIDTH 785 0
DWIDTH 36 0
BBX 35 32 0 0
BITMAP
FC01F803E0
FC01F803E0
7C03F803E0
7C03FC07E0
7C03FC07E0
7E03FC07C0
7E03FC07C0
3E07FC07C0
3E07FE07C0
3E07BE0FC0
3E07BE0F80
3F07BE0F80
1F0F9E0F80
1F0F9F0F80
1F0F9F0F80
1F0F1F1F00
1F8F1F1F00
0F8F0F1F00
0F9F0F1F00
0F9F0F9E00
0F9E0FBE00
079E0FBE00
07DE07BE00
07FE07BE00
07FE07BC00
07FC07BC00
03FC07FC00
03FC03FC00
03FC03FC00
03FC03F800
03F803F800
01F803F800
ENDCHAR
STARTCHAR 0058
ENCODING 88
SWIDTH 545 0
DWIDTH 25 0
BBX 24 32 1 0
BITMAP
FC007E
7E007C
7E00FC
3F00F8
1F01F8
1F81F0
0F83F0
0FC3E0
07C7E0
07EFC0
03EFC0
03FF80
01FF80
01FF00
00FF00
00FE00
00FF00
01FF00
01FF80
03FF80
07EFC0
07E7C0
0FC7E0
0F83E0
1F83F0
1F01F0
3F01F8
3E00F8
7E00FC
7C007E
FC007E
F8003F
ENDCHAR
STARTCHAR 0059
ENCODING 89
SWIDTH 545 0
DWIDTH 25 0
BBX 23 32 1 0
BITMAP
FC003E
FC007E
7C007C
7E00FC
3E00F8
3F01F8
1F01F0
1F83F0
0F83E0
0FC7E0
07C7C0
07E7C0
03EF80
03EF80
01FF80
01FF00
00FF00
00FE00
007E00
007C00
007C00
007C00
007C00
007C00
007C00
007C00
007C00
007C00
007C00
007C00
007C00
007C00
ENDCHAR
STARTCHAR 005A
ENCODING 90
SWIDTH 501 0
DWIDTH 23 0
BBX 21 32 1 0
BITMAP
3FFFF0
3FFFF0
3FFFF0
3FFFF0
3FFFF0
0003F0
0007E0
0007E0
000FC0
001F80
001F80
003F00
007E00
007E00
00FC00
01F800
01F800
03F000
03F000
07E000
0FC000
0FC000
1F8000
3F0000
3F0000
7E0000
7E0000
FFFFF8
FFFFF8
FFFFF8
FFFFF8
FFFFF8
ENDCHAR
STARTCHAR 005B
ENCODING 91
SWIDTH 283 0
DWIDTH 13 0
BBX 10 43 2 -10
BITMAP
FFC0
FFC0
FFC0
FFC0
F800
F800
F800
F800
F800
F800
F800
F800
F800
F800
F800
F800
F800
F800
F800
F800
F800
F800
F800
F800
F800
F800
F800
F800
F800
F800
F800
F800
F800
F800
F800
F800
F800
F800
F800
FFC0
FFC0
FFC0
FFC0
ENDCHAR
STARTCHAR 005C
ENCODING 92
SWIDTH 218 0
DWIDTH 10 0
BBX 10 34 0 -1
BITMAP
F800
7800
7800
7800
7800
7C00
7C00
3C00
3C00
3C00
3C00
3E00
3E00
3E00
1E00
1E00
1E00
1F00
1F00
1F00
0F00
0F00
0F00
0F00
0F80
0F80
0780
0780
0780
0780
07C0
07C0
07C0
03C0
ENDCHAR
STARTCHAR 005D
ENCODING 93
SWIDTH 283 0
DWIDTH 13 0
BBX 10 43 0 -10
BITMAP
FFC0
FFC0
FFC0
FFC0
03C0
03C0
03C0
03C0
03C0
03C0
03C0
03C0
03C0
03C0
03C0
03C0
03C0
03C0
03C0
03C0
03C0
03C0
03C0
03C0
03C0
03C0
03C0
03C0
03C0
03C0
03C0
03C0
03C0
03C0
03C0
03C0
03C0
03C0
03C0
FFC0
FFC0
FFC0
FFC0
ENDCHAR
STARTCHAR 005E
ENCODING 94
SWIDTH 480 0
DWIDTH 22 0
BBX 20 20 1 12
BITMAP
01F800
01F800
03FC00
03FC00
07FE00
079E00
079E00
0F9F00
0F0F00
0F0F00
1F0F80
1E0780
1E0780
3C03C0
3C03C0
3C03C0
7801E0
7801E0
F801F0
F000F0
ENDCHAR
STARTCHAR 005F
ENCODING 95
SWIDTH 458 0
DWIDTH 21 0
BBX 21 2 0 -6
BITMAP
FFFFF8
FFFFF8
ENDCHAR
STARTCHAR 0060
ENCODING 96
SWIDTH 283 0
DWIDTH 13 0
BBX 10 7 1 27
BITMAP
F800
7C00
3E00
1F00
0F00
0780
03C0
ENDCHAR
STARTCHAR 0061
ENCODING 97
SWIDTH 458 0
DWIDTH 21 0
BBX 20 24 1 0
BITMAP
03F800
0FFE00
1FFF00
3FFF00
3F1F80
7E0F80
7E0F80
000F80
000F80
000F80
07FF80
1FFF80
3FFF80
7E0F80
FC0F80
FC0F80
F80F80
FC1F80
FC1FC0
FC3FC0
7FF7F0
7FF7F0
3FE3F0
0F81F0
ENDCHAR
STARTCHAR 0062
ENCODING 98
SWIDTH 501 0
DWIDTH 23 0
BBX 18 33 3 0
BITMAP
F80000
F80000
F80000
F80000
F80000
F80000
F80000
F80000
F80000
F8FC00
F9FE00
FBFF00
FFFF80
FE1F80
FC0FC0
FC0FC0
F807C0
F807C0
F807C0
F807C0
F807C0
F807C0
F807C0
F807C0
F807C0
F807C0
FC0FC0
FC0FC0
FE1F80
FFFF80
FBFF00
F9FE00
F8F800
ENDCHAR
STARTCHAR 0063
ENCODING 99
SWIDTH 458 0
DWIDTH 21 0
BBX 19 24 1 0
BITMAP
01F800
07FE00
0FFF00
1FFF80
3F0FC0
3E07C0
7E07C0
7C07E0
7C0000
7C0000
7C0000
FC0000
FC0000
7C0000
7C0000
7C0000
7C03E0
7E07E0
3E07C0
3F0FC0
1FFF80
1FFF00
07FE00
01F800
ENDCHAR
STARTCHAR 0064
ENCODING 100
SWIDTH 501 0
DWIDTH 23 0
BBX 19 33 2 0
BITMAP
0007C0
0007C0
0007C0
0007C0
0007C0
0007C0
0007C0
0007C0
0007C0
07C7C0
1FF7C0
3FF7C0
7FFFC0
7E1FC0
FC0FC0
FC0FC0
F807C0
F807C0
F807C0
F807C0
F807C0
F807C0
F807C0
F807C0
F807C0
F807C0
FC0FC0
FC0FC0
7E1FC0
7FFFC0
3FF7C0
1FE7C0
0FC7E0
ENDCHAR
STARTCHAR 0065
ENCODING 101
SWIDTH 458 0
DWIDTH 21 0
BBX 19 24 1 0
BITMAP
01F800
07FE00
1FFF00
1FFF80
3F0F80
7E07C0
7C07C0
7C07C0
7C03C0
7FFFC0
FFFFE0
FFFFE0
FFFFE0
7C0000
7C0000
7C0000
7C0000
7E0780
3E07C0
3F0FC0
1FFF80
1FFF00
07FE00
01F800
ENDCHAR
STARTCHAR 0066
ENCODING 102
SWIDTH 283 0
DWIDTH 13 0
BBX 12 33 1 0
BITMAP
03F0
0FF0
1FF0
1FF0
1F00
1F00
1F00
1F00
1F00
FFF0
FFF0
FFF0
FFF0
1F00
1F00
1F00
1F00
1F00
1F00
1F00
1F00
1F00
1F00
1F00
1F00
1F00
1F00
1F00
1F00
1F00
1F00
1F00
1F00
ENDCHAR
STARTCHAR 0067
ENCODING 103
SWIDTH 501 0
DWIDTH 23 0
BBX 19 34 2 -10
BITMAP
07C3E0
1FF7C0
3FF7C0
7FFFC0
7E1FC0
FC0FC0
FC0FC0
F807C0
F807C0
F807C0
F807C0
F807C0
F807C0
F807C0
F807C0
F807C0
F807C0
FC0FC0
FC0FC0
7E1FC0
7FFFC0
3FF7C0
1FE7C0
0FC7C0
0007C0
0007C0
0007C0
FC07C0
7C0FC0
7E1F80
7FFF80
3FFF00
1FFE00
07F000
ENDCHAR
STARTCHAR 0068
ENCODING 104
SWIDTH 501 0
DWIDTH 23 0
BBX 18 33 3 0
BITMAP
F80000
F80000
F80000
F80000
F80000
F80000
F80000
F80000
F80000
F87C00
F9FE00
FBFF00
FBFF80
FFFF80
FE1F80
FC0FC0
FC0FC0
F80FC0
F80FC0
F807C0
F807C0
F807C0
F807C0
F807C0
F807C0
F807C0
F807C0
F807C0
F807C0
F807C0
F807C0
F807C0
F807C0
ENDCHAR
STARTCHAR 0069
ENCODING 105
SWIDTH 218 0
DWIDTH 10 0
BBX 5 33 3 0
BITMAP
F8
F8
F8
F8
F8
00
00
00
00
F8
F8
F8
F8
F8
F8
F8
F8
F8
F8
F8
F8
F8
F8
F8
F8
F8
F8
F8
F8
F8
F8
F8
F8
ENDCHAR
STARTCHAR 006A
ENCODING 106
SWIDTH 218 0
DWIDTH 10 0
BBX 9 43 -1 -10
BITMAP
0F80
0F80
0F80
0F80
0F80
0000
0000
0000
0000
0F80
0F80
0F80
0F80
0F80
0F80
0F80
0F80
0F80
0F80
0F80
0F80
0F80
0F80
0F80
0F80
0F80
0F80
0F80
0F80
0F80
0F80
0F80
0F80
0F80
0F80
0F80
1F80
1F80
FF80
FF00
FF00
FE00
FC00
ENDCHAR
STARTCHAR 006B
ENCODING 107
SWIDTH 458 0
DWIDTH 21 0
BBX 18 33 3 0
BITMAP
F80000
F80000
F80000
F80000
F80000
F80000
F80000
F80000
F80000
F80F80
F81F00
F83F00
F87E00
F87C00
F8F800
F9F800
FBF000
FBE000
FFE000
FFE000
FFF000
FFF000
FDF800
F8F800
F8FC00
F87C00
F87E00
F83E00
F83F00
F81F00
F81F80
F80F80
F80FC0
ENDCHAR
STARTCHAR 006C
ENCODING 108
SWIDTH 218 0
DWIDTH 10 0
BBX 5 33 3 0
BITMAP
F8
F8
F8
F8
F8
F8
F8
F8
F8
F8
F8
F8
F8
F8
F8
F8
F8
F8
F8
F8
F8
F8
F8
F8
F8
F8
F8
F8
F8
F8
F8
F8
F8
ENDCHAR
STARTCHAR 006D
ENCODING 109
SWIDTH 741 0
DWIDTH 34 0
BBX 28 24 3 0
BITMAP
F0F80F80
F1FC3FC0
FBFE3FE0
FBFE7FE0
FFFF7FF0
FE3FE3F0
FC1FC3F0
F81F81F0
F81F81F0
F81F81F0
F81F81F0
F81F81F0
F81F81F0
F81F81F0
F81F81F0
F81F81F0
F81F81F0
F81F81F0
F81F81F0
F81F81F0
F81F81F0
F81F81F0
F81F81F0
F81F81F0
ENDCHAR
STARTCHAR 006E
ENCODING 110
SWIDTH 501 0
DWIDTH 23 0
BBX 18 24 3 0
BITMAP
F07C00
F9FE00
FBFF00
FBFF80
FFFF80
FE1F80
FC0FC0
FC0FC0
F80FC0
F80FC0
F807C0
F807C0
F807C0
F807C0
F807C0
F807C0
F807C0
F807C0
F807C0
F807C0
F807C0
F807C0
F807C0
F807C0
ENDCHAR
STARTCHAR 006F
ENCODING 111
SWIDTH 501 0
DWIDTH 23 0
BBX 21 24 1 0
BITMAP
01FC00
07FF00
0FFF80
1FFFC0
3F87E0
3E03E0
7E03F0
7C01F0
7C01F0
7C01F0
7C01F0
FC01F8
FC01F8
7C01F8
7C01F0
7C01F0
7C01F0
7E03F0
3E03E0
3F8FE0
1FFFC0
0FFF80
07FF00
01FC00
ENDCHAR
STARTCHAR 0070
ENCODING 112
SWIDTH 501 0
DWIDTH 23 0
BBX 19 35 3 -10
BITMAP
00FC00
F9FE00
FBFF00
FFFF80
FE1F80
FC0FC0
FC0FC0
F807C0
F807C0
F807C0
F807C0
F807C0
F807E0
F807C0
F807C0
F807C0
F807C0
F807C0
FC0FC0
FC0FC0
FE1F80
FFFF80
FBFF00
F9FE00
F8F800
F80000
F80000
F80000
F80000
F80000
F80000
F80000
F80000
F80000
F80000
ENDCHAR
STARTCHAR 0071
ENCODING 113
SWIDTH 501 0
DWIDTH 23 0
BBX 19 34 2 -10
BITMAP
07C7E0
1FF7C0
3FF7C0
7FFFC0
7E1FC0
FC0FC0
FC0FC0
F807C0
F807C0
F807C0
F807C0
F807C0
F807C0
F807C0
F807C0
F807C0
F807C0
FC0FC0
FC0FC0
7E1FC0
7FFFC0
3FF7C0
1FE7C0
0FC7C0
0007C0
0007C0
0007C0
0007C0
0007C0
0007C0
0007C0
0007C0
0007C0
0007C0
ENDCHAR
STARTCHAR 0072
ENCODING 114
SWIDTH 327 0
DWIDTH 15 0
BBX 11 24 3 0
BITMAP
F1E0
F3E0
FBE0
FFE0
FFE0
FE00
FC00
FC00
F800
F800
F800
F800
F800
F800
F800
F800
F800
F800
F800
F800
F800
F800
F800
F800
ENDCHAR
STARTCHAR 0073
ENCODING 115
SWIDTH 458 0
DWIDTH 21 0
BBX 17 24 2 0
BITMAP
07F000
1FFC00
3FFE00
7FFF00
FC1F00
F80F80
F80E00
F80000
FE0000
FFE000
7FFC00
3FFE00
1FFF00
07FF80
007F80
000F80
000780
700780
F00F80
FC1F80
FFFF00
7FFF00
3FFC00
0FF000
ENDCHAR
STARTCHAR 0074
ENCODING 116
SWIDTH 283 0
DWIDTH 13 0
BBX 12 29 0 0
BITMAP
0700
0F00
0F00
0F00
1F00
FFF0
FFF0
FFF0
FFF0
1F00
1F00
1F00
1F00
1F00
1F00
1F00
1F00
1F00
1F00
1F00
1F00
1F00
1F00
1F00
1F80
1FF0
0FF0
0FF0
07E0
ENDCHAR
STARTCHAR 0075
ENCODING 117
SWIDTH 501 0
DWIDTH 23 0
BBX 19 24 2 0
BITMAP
FC07C0
FC07C0
FC07C0
FC07C0
FC07C0
FC07C0
FC07C0
FC07C0
FC07C0
FC07C0
FC07C0
FC07C0
FC07C0
FC07C0
FC07C0
FC07C0
FC0FC0
7C0FC0
7E1FC0
7FFFC0
7FF7C0
3FF7C0
1FE3C0
0F83E0
ENDCHAR
STARTCHAR 0076
ENCODING 118
SWIDTH 458 0
DWIDTH 21 0
BBX 21 24 0 0
BITMAP
FC01F8
7C01F0
7C01F0
7E03F0
7E03E0
3E03E0
3E03E0
3F07E0
1F07C0
1F07C0
1F07C0
0F8F80
0F8F80
0F8F80
0F9F00
07DF00
07DF00
07DE00
03FE00
03FE00
03FE00
01FC00
01FC00
01FC00
ENDCHAR
STARTCHAR 0077
ENCODING 119
SWIDTH 632 0
DWIDTH 29 0
BBX 29 24 0 0
BITMAP
F80FC078
F80FC0F8
F81FC0F8
781FC0F8
7C1FC0F0
7C1DE0F0
7C3DE1F0
7C3DE1F0
3C3DE1F0
3C3CE1E0
3E38F1E0
3E78F3E0
1E78F3E0
1E78F3C0
1E787BC0
1FF07BC0
1FF07BC0
0FF07FC0
0FF03F80
0FF03F80
0FE03F80
07E03F80
07E03F80
07E01F00
ENDCHAR
STARTCHAR 0078
ENCODING 120
SWIDTH 458 0
DWIDTH 21 0
BBX 19 24 1 0
BITMAP
F807E0
7C07C0
7E0FC0
3E0F80
3F1F80
1F1F00
1FBE00
0FBE00
07FC00
07FC00
03F800
03F000
03F800
07F800
07FC00
0FFE00
0FBE00
1FBF00
3F1F00
3E0F80
7E0FC0
7C07C0
FC07E0
F803E0
ENDCHAR
STARTCHAR 0079
ENCODING 121
SWIDTH 458 0
DWIDTH 21 0
BBX 21 34 0 -10
BITMAP
FC01F8
7C01F0
7C01F0
7E03F0
3E03E0
3E03E0
3F03E0
1F07C0
1F07C0
1F07C0
0F87C0
0F8F80
0F8F80
078F80
07CF00
07DF00
03DF00
03DE00
03FE00
01FE00
01FC00
01FC00
00FC00
00F800
00F800
00F800
01F000
01F000
03F000
3FE000
3FE000
3FC000
3F8000
3F0000
ENDCHAR
STARTCHAR 007A
ENCODING 122
SWIDTH 414 0
DWIDTH 19 0
BBX 17 24 1 0
BITMAP
7FFF00
7FFF00
7FFF00
7FFF00
7FFF00
003E00
007E00
007C00
00F800
01F000
03F000
03E000
07C000
0FC000
0F8000
1F0000
3F0000
3E0000
7C0000
FFFF80
FFFF80
FFFF80
FFFF80
FFFF80
ENDCHAR
STARTCHAR 007B
ENCODING 123
SWIDTH 327 0
DWIDTH 15 0
BBX 13 43 1 -10
BITMAP
01F8
07F8
07F8
0FF8
0FC0
0F80
0F80
0F80
0F80
0F80
0F80
0F80
0F80
0F80
0F80
0F80
1F80
1F00
3F00
FE00
FC00
FC00
FE00
3F00
1F00
1F80
0F80
0F80
0F80
0F80
0F80
0F80
0F80
0F80
0F80
0F80
0F80
0F80
0FC0
0FF8
07F8
03F8
01F8
ENDCHAR
STARTCHAR 007C
ENCODING 124
SWIDTH 240 0
DWIDTH 11 0
BBX 5 44 3 -11
BITMAP
F8
F8
F8
F8
F8
F8
F8
F8
F8
F8
F8
F8
F8
F8
F8
F8
F8
F8
F8
F8
F8
F8
F8
F8
F8
F8
F8
F8
F8
F8
F8
F8
F8
F8
F8
F8
F8
F8
F8
F8
F8
F8
F8
F8
ENDCHAR
STARTCHAR 007D
ENCODING 125
SWIDTH 327 0
DWIDTH 15 0
BBX 13 43 1 -10
BITMAP
FC00
FE00
FF00
FF00
1F80
1F80
0F80
0F80
0F80
0F80
0F80
0F80
0F80
0F80
0F80
0F80
0F80
0FC0
07E0
07F8
01F8
01F8
07F8
07E0
0FC0
0F80
0F80
0F80
0F80
0F80
0F80
0F80
0F80
0F80
0F80
0F80
0F80
1F80
1F80
FF00
FF00
FE00
FC00
ENDCHAR
STARTCHAR 007E
ENCODING 126
SWIDTH 480 0
DWIDTH 22 0
BBX 20 7 1 12
BITMAP
3F8010
7FF070
FFFFF0
FFFFF0
F1FFF0
C07FE0
000FC0
ENDCHAR
STARTCHAR 00A0
ENCODING 160
SWIDTH 218 0
DWIDTH 10 0
BBX 0 0 0 0
BITMAP
ENDCHAR
STARTCHAR 00A1
ENCODING 161
SWIDTH 283 0
DWIDTH 13 0
BBX 5 31 4 -7
BITMAP
F8
F8
F8
F8
F8
F8
00
00
00
F0
F0
F0
F0
F8
F8
F8
F8
F8
F8
F8
F8
F8
F8
F8
F8
F8
F8
F8
F8
F8
F8
ENDCHAR
STARTCHAR 00A2
ENCODING 162
SWIDTH 458 0
DWIDTH 21 0
BBX 19 32 1 0
BITMAP
00E000
00E000
00E000
00E000
01F800
0FFE00
1FFF00
3FFF80
3FFFC0
7EE7C0
7CE7E0
FCE3E0
FCE000
F8E000
F8E000
F8E000
F8E000
F8E000
F8E000
F8E3C0
FCE3E0
7CE7E0
7CE7C0
7EEFC0
3FFF80
1FFF80
0FFE00
03F800
00E000
00E000
00E000
00E000
ENDCHAR
STARTCHAR 00A3
ENCODING 163
SWIDTH 458 0
DWIDTH 21 0
BBX 20 32 0 0
BITMAP
00FE00
01FF00
03FF80
07FFC0
0FC7C0
0F83E0
0F83E0
0F8100
0F0000
0F0000
0F0000
0F0000
0F0000
0F0000
0F0000
FFFC00
FFFC00
FFFC00
FFFC00
0F0000
0F0000
0F0000
0F0000
0F00E0
1F00F0
3E01F0
7C03F0
7FFFF0
7FFFE0
7FFFC0
7FFF80
7FFF00
ENDCHAR
STARTCHAR 00A4
ENCODING 164
SWIDTH 458 0
DWIDTH 21 0
BBX 19 23 1 4
BITMAP
200100
300180
79F3C0
FFFFE0
7FFFC0
3FFF80
1FFF00
3F1F80
3E0F80
3C0780
7C0780
7C07C0
7C0780
3C0780
3E0F80
3F1F80
3FFF80
3FFF80
7FFFC0
FFFFE0
79F3C0
300180
200100
ENDCHAR
STARTCHAR 00A5
ENCODING 165
SWIDTH 458 0
DWIDTH 21 0
BBX 21 32 0 0
BITMAP
FC01F8
7C01F0
7C01F0
3E03E0
3E03E0
3F07E0
1F07C0
1F07C0
0F8F80
0F8F80
078F00
07DF00
07DF00
03FE00
03FE00
01FC00
3FFFE0
3FFFE0
3FFFE0
00F800
00F800
00F800
00F800
3FFFE0
3FFFE0
3FFFE0
00F800
00F800
00F800
00F800
00F800
00F800
ENDCHAR
STARTCHAR 00A6
ENCODING 166
SWIDTH 240 0
DWIDTH 11 0
BBX 5 43 3 -10
BITMAP
F8
F8
F8
F8
F8
F8
F8
F8
F8
F8
F8
F8
F8
F8
F8
F8
F8
F8
00
00
00
00
00
00
00
00
F8
F8
F8
F8
F8
F8
F8
F8
F8
F8
F8
F8
F8
F8
F8
F8
F8
ENDCHAR
STARTCHAR 00A7
ENCODING 167
SWIDTH 458 0
DWIDTH 21 0
BBX 18 37 1 -5
BITMAP
03F800
0FFE00
1FFF00
3FFF80
3E0F80
7C07C0
7C0700
7C0000
7C0000
3F0000
3FE000
1FFC00
0FFF00
1FFF80
3FFFC0
7C0FC0
7807C0
7803C0
7803C0
7C03C0
7E07C0
7FCF80
3FFF00
1FFE00
07FF00
01FF80
003FC0
0007C0
0007C0
0003C0
F803C0
F807C0
7C0FC0
7FFF80
3FFF00
1FFE00
07F800
ENDCHAR
STARTCHAR 00A8
ENCODING 168
SWIDTH 283 0
DWIDTH 13 0
BBX 12 5 0 27
BITMAP
F0F0
F0F0
F0F0
F0F0
F0F0
ENDCHAR
STARTCHAR 00A9
ENCODING 169
SWIDTH 610 0
DWIDTH 28 0
BBX 26 32 1 0
BITMAP
003F0000
01FFC000
03FFF000
07C0F800
0F003C00
1C001E00
38000700
303F0700
70FF8380
61FFC180
E1E1E180
C3C0E1C0
C3C080C0
C38000C0
C38000C0
C38000C0
C38000C0
C38000C0
C38000C0
C3C0C0C0
C3C0E1C0
E1E1E180
60FFC180
707F8380
303F0700
38000700
1C000E00
0F003C00
07C0F800
03FFF000
01FFE000
003F0000
ENDCHAR
STARTCHAR 00AA
ENCODING 170
SWIDTH 305 0
DWIDTH 14 0
BBX 13 16 1 16
BITMAP
1F00
3FC0
7FC0
71E0
F0E0
00E0
00E0
3FE0
7FE0
F0E0
E0E0
E1E0
F3E0
FFF8
7EF8
3C78
ENDCHAR
STARTCHAR 00AB
ENCODING 171
SWIDTH 458 0
DWIDTH 21 0
BBX 17 18 2 3
BITMAP
0F8780
1F0F80
1F1F00
3E1F00
3E3E00
7C3E00
7C7C00
F87800
F0F800
F0F800
F87800
7C7C00
7C3E00
3E3E00
1E1F00
1F0F00
0F8F80
0F8780
ENDCHAR
STARTCHAR 00AC
ENCODING 172
SWIDTH 480 0
DWIDTH 22 0
BBX 18 14 2 4
BITMAP
FFFFC0
FFFFC0
FFFFC0
FFFFC0
FFFFC0
0003C0
0003C0
0003C0
0003C0
0003C0
0003C0
0003C0
0003C0
0003C0
ENDCHAR
STARTCHAR 00AD
ENCODING 173
SWIDTH 283 0
DWIDTH 13 0
BBX 10 5 1 9
BITMAP
FFC0
FFC0
FFC0
FFC0
FFC0
ENDCHAR
STARTCHAR 00AE
ENCODING 174
SWIDTH 610 0
DWIDTH 28 0
BBX 26 32 1 0
BITMAP
003F0000
01FFE000
03FFF000
07C0F800
0F003C00
1C000E00
38000700
31FF0700
71FFC380
61FFC180
E1E1E180
C1E0E1C0
C1E0E0C0
C1E1E0C0
C1E1E0C0
C1FFC0C0
C1FF80C0
C1FF00C0
C1E700C0
C1E380C0
C1E3C1C0
E1E1C180
61E1E180
71E0E380
30000700
38000F00
1C001E00
0F003C00
07C0F800
03FFF000
01FFC000
003F0000
ENDCHAR
STARTCHAR 00AF
ENCODING 175
SWIDTH 283 0
DWIDTH 13 0
BBX 13 2 0 33
BITMAP
FFF8
FFF8
ENDCHAR
STARTCHAR 00B0
ENCODING 176
SWIDTH 392 0
DWIDTH 18 0
BBX 14 14 2 18
BITMAP
0FC0
1FF0
3FF8
7878
F03C
F01C
F01C
F01C
F01C
F03C
7878
3FF8
1FF0
07C0
ENDCHAR
STARTCHAR 00B1
ENCODING 177
SWIDTH 545 0
DWIDTH 25 0
BBX 23 28 1 0
BITMAP
007C00
007C00
007C00
007C00
007C00
007C00
007C00
FFFFFE
FFFFFE
FFFFFE
FFFFFE
FFFFFE
007C00
007C00
007C00
007C00
007C00
007C00
007C00
000000
000000
000000
000000
FFFFFE
FFFFFE
FFFFFE
FFFFFE
FFFFFE
ENDCHAR
STARTCHAR 00B2
ENCODING 178
SWIDTH 283 0
DWIDTH 13 0
BBX 11 16 1 16
BITMAP
1F00
3F80
7FC0
F3C0
F1C0
01C0
03C0
07C0
0F80
1F00
3E00
7800
F000
FFE0
FFE0
FFE0
ENDCHAR
STARTCHAR 00B3
ENCODING 179
SWIDTH 283 0
DWIDTH 13 0
BBX 11 17 1 15
BITMAP
1F00
7F80
7FC0
F3C0
F1C0
01C0
03C0
0F80
0F00
0FC0
01C0
01E0
E1E0
F1E0
FFC0
7FC0
1F00
ENDCHAR
STARTCHAR 00B4
ENCODING 180
SWIDTH 283 0
DWIDTH 13 0
BBX 9 7 2 27
BITMAP
0F80
1F00
3E00
3C00
7800
F000
E000
ENDCHAR
STARTCHAR 00B5
ENCODING 181
SWIDTH 501 0
DWIDTH 23 0
BBX 18 34 3 -10
BITMAP
F80F80
F80F80
F80F80
F80F80
F80F80
F80F80
F80F80
F80F80
F80F80
F80F80
F80F80
F80F80
F80F80
F80F80
F80F80
F80F80
F81F80
FC1F80
FE3F80
FFFF80
FFFF80
FFFFC0
FFEFC0
FBCFC0
F80000
F80000
F80000
F80000
F80000
F80000
F80000
F80000
F80000
F80000
ENDCHAR
STARTCHAR 00B6
ENCODING 182
SWIDTH 458 0
DWIDTH 21 0
BBX 19 37 1 -5
BITMAP
0FFFE0
1FFFE0
3FFFE0
7FC700
7FC700
7FC700
FFC700
FFC700
FFC700
FFC700
7FC700
7FC700
7FC700
3FC700
1FC700
07C700
01C700
01C700
01C700
01C700
01C700
01C700
01C700
01C700
01C700
01C700
01C700
01C700
01C700
01C700
01C700
01C700
01C700
01C700
01C700
01C700
01C700
ENDCHAR
STARTCHAR 00B7
ENCODING 183
SWIDTH 283 0
DWIDTH 13 0
BBX 6 7 3 12
BITMAP
FC
FC
FC
FC
FC
FC
FC
ENDCHAR
STARTCHAR 00B8
ENCODING 184
SWIDTH 283 0
DWIDTH 13 0
BBX 7 10 2 -10
BITMAP
30
70
7C
7E
1E
0E
1E
FE
FC
F8
ENDCHAR
STARTCHAR 00B9
ENCODING 185
SWIDTH 283 0
DWIDTH 13 0
BBX 9 16 2 16
BITMAP
3C00
7C00
FC00
DC00
9C00
1C00
1C00
1C00
1C00
1C00
1C00
1C00
1C00
FF80
FF80
FF80
ENDCHAR
STARTCHAR 00BA
ENCODING 186
SWIDTH 305 0
DWIDTH 14 0
BBX 12 16 1 16
BITMAP
0F00
3FC0
7FE0
79E0
F0F0
F0F0
F0F0
E0F0
E0F0
F0F0
F0F0
F0F0
79E0
7FE0
3FC0
0F00
ENDCHAR
STARTCHAR 00BB
ENCODING 187
SWIDTH 458 0
DWIDTH 21 0
BBX 17 18 2 3
BITMAP
F0F800
F87800
7C7C00
7C3E00
3E3E00
3E1F00
1F0F00
0F0F80
0F8780
0F8780
1F0F80
1F1F00
3E1F00
3E3E00
7C3E00
787C00
F8F800
F0F800
ENDCHAR
STARTCHAR 00BC
ENCODING 188
SWIDTH 676 0
DWIDTH 31 0
BBX 31 32 2 0
BITMAP
3C0001E0
7C0001E0
FC0003C0
DC000380
9C000780
1C000700
1C000F00
1C000E00
1C001E00
1C001C00
1C003C00
1C003800
1C007800
FF807000
FF80F000
FF80E000
0001E078
0001C078
0003C0F8
000781F8
000781B8
000F03B8
000F0338
001E0738
001E0E38
003C0E38
003C0FFE
00780FFE
00780FFE
00F00038
00F00038
01E00038
ENDCHAR
STARTCHAR 00BD
ENCODING 189
SWIDTH 676 0
DWIDTH 31 0
BBX 32 32 2 0
BITMAP
3C0001E0
7C0001E0
FC0003C0
DC000380
9C000780
1C000700
1C000F00
1C000E00
1C001E00
1C001C00
1C003C00
1C003800
1C007800
FF807000
FF80F000
FF80E000
0001E0F8
0001C1FC
0003C3FE
0007879E
0007878E
000F000E
000F001E
001E003E
001E007C
003C00F8
003C01F0
007803C0
00780780
00F007FF
00F007FF
01E007FF
ENDCHAR
STARTCHAR 00BE
ENCODING 190
SWIDTH 676 0
DWIDTH 31 0
BBX 31 32 2 0
BITMAP
1F0001E0
7F8001E0
7FC003C0
F3C00380
F1C00780
01C00700
03C00F00
0F800E00
0F001E00
0FC01C00
01C03C00
01E03800
E1E07800
F1E07000
FFC0F000
7FC0E000
1F01E078
0001C078
0003C0F8
000781F8
000781B8
000F03B8
000F0338
001E0738
001E0E38
003C0E38
003C0FFE
00780FFE
00780FFE
00F00038
00F00038
01E00038
ENDCHAR
STARTCHAR 00BF
ENCODING 191
SWIDTH 501 0
DWIDTH 23 0
BBX 19 32 2 -8
BITMAP
00F800
00F800
00F800
00F800
00F800
00F800
000000
000000
000000
00F800
00F800
01F000
01F000
03F000
07E000
0FC000
1F8000
3F0000
7E0000
7C0000
FC0000
F80000
F803E0
F803E0
FC07E0
FC07E0
7E1FC0
7FFFC0
3FFF80
3FFF00
0FFE00
03F800
ENDCHAR
STARTCHAR 00C0
ENCODING 192
SWIDTH 589 0
DWIDTH 27 0
BBX 25 40 1 0
BITMAP
007C0000
007E0000
001F0000
000F0000
00078000
0003C000
00000000
00000000
007F0000
007F0000
007F8000
00FF8000
00FF8000
00FF8000
01F7C000
01F7C000
01F7C000
01F3E000
03E3E000
03E3E000
03E1E000
07C1F000
07C1F000
07C1F000
07C0F800
0F80F800
0F80F800
0FFFFC00
1FFFFC00
1FFFFC00
1FFFFC00
3FFFFE00
3F003E00
3E003E00
3E003F00
7E001F00
7C001F00
7C001F00
FC001F80
FC000F80
ENDCHAR
STARTCHAR 00C1
ENCODING 193
SWIDTH 589 0
DWIDTH 27 0
BBX 25 40 1 0
BITMAP
0000F800
0001F000
0003E000
0007C000
000F8000
000E0000
00000000
00000000
007F0000
007F0000
007F8000
00FF8000
00FF8000
00FF8000
01F7C000
01F7C000
01F7C000
01F3E000
03E3E000
03E3E000
03E1E000
07C1F000
07C1F000
07C1F000
07C0F800
0F80F800
0F80F800
0FFFFC00
1FFFFC00
1FFFFC00
1FFFFC00
3FFFFE00
3F003E00
3E003E00
3E003F00
7E001F00
7C001F00
7C001F00
FC001F80
FC000F80
ENDCHAR
STARTCHAR 00C2
ENCODING 194
SWIDTH 589 0
DWIDTH 27 0
BBX 25 41 1 0
BITMAP
000F8000
001FC000
003FC000
003FE000
0079F000
00F07000
01E03800
00000000
00000000
007F0000
007F0000
007F8000
00FF8000
00FF8000
00FF8000
01F7C000
01F7C000
01F7C000
01F3E000
03E3E000
03E3E000
03E1E000
07C1F000
07C1F000
07C1F000
07C0F800
0F80F800
0F80F800
0FFFFC00
1FFFFC00
1FFFFC00
1FFFFC00
3FFFFE00
3F003E00
3E003E00
3E003F00
7E001F00
7C001F00
7C001F00
FC001F80
FC000F80
ENDCHAR
STARTCHAR 00C3
ENCODING 195
SWIDTH 589 0
DWIDTH 27 0
BBX 25 41 1 0
BITMAP
00781800
00FE1800
00FF3800
01FFF800
01C7F800
01C3F000
01C0E000
00000000
00000000
007F0000
007F0000
007F8000
00FF8000
00FF8000
00FF8000
01F7C000
01F7C000
01F7C000
01F3E000
03E3E000
03E3E000
03E1E000
07C1F000
07C1F000
07C1F000
07C0F800
0F80F800
0F80F800
0FFFFC00
1FFFFC00
1FFFFC00
1FFFFC00
3FFFFE00
3F003E00
3E003E00
3E003F00
7E001F00
7C001F00
7C001F00
FC001F80
FC000F80
ENDCHAR
STARTCHAR 00C4
ENCODING 196
SWIDTH 589 0
DWIDTH 27 0
BBX 25 39 1 0
BITMAP
00F07000
00F07000
00F07000
00F07000
00F07000
00000000
00000000
007F0000
007F0000
007F8000
00FF8000
00FF8000
00FF8000
01F7C000
01F7C000
01F7C000
01F3E000
03E3E000
03E3E000
03E1E000
07C1F000
07C1F000
07C1F000
07C0F800
0F80F800
0F80F800
0FFFFC00
1FFFFC00
1FFFFC00
1FFFFC00
3FFFFE00
3F003E00
3E003E00
3E003F00
7E001F00
7C001F00
7C001F00
FC001F80
FC000F80
ENDCHAR
STARTCHAR 00C5
ENCODING 197
SWIDTH 589 0
DWIDTH 27 0
BBX 25 41 1 0
BITMAP
000F0000
001FC000
003FC000
0038E000
00306000
00306000
00306000
0038E000
003FC000
007FC000
007F0000
007F8000
00FF8000
00FF8000
00FF8000
01F7C000
01F7C000
01F7C000
01F3E000
03E3E000
03E3E000
03E1E000
07C1F000
07C1F000
07C1F000
07C0F800
0F80F800
0F80F800
0FFFFC00
1FFFFC00
1FFFFC00
1FFFFC00
3FFFFE00
3F003E00
3E003E00
3E003F00
7E001F00
7C001F00
7C001F00
FC001F80
FC000F80
ENDCHAR
STARTCHAR 00C6
ENCODING 198
SWIDTH 829 0
DWIDTH 38 0
BBX 36 32 0 0
BITMAP
0007FFFFE0
000FFFFFE0
000FFFFFE0
000FFFFFE0
001FFFFFE0
001F7E0000
003E7E0000
003E7E0000
003E7E0000
007C7E0000
007C7E0000
00FC7E0000
00F87E0000
00F87FFFC0
01F07FFFC0
01F07FFFC0
03F07FFFC0
03E07FFFC0
07E07E0000
07FFFE0000
07FFFE0000
0FFFFE0000
0FFFFE0000
1FFFFE0000
1F807E0000
1F007E0000
3F007E0000
3E007FFFF0
7E007FFFF0
7E007FFFF0
7C007FFFF0
FC007FFFF0
ENDCHAR
STARTCHAR 00C7
ENCODING 199
SWIDTH 589 0
DWIDTH 27 0
BBX 24 42 2 -10
BITMAP
00FF00
03FFE0
0FFFF0
1FFFF8
1FFFFC
3FC1FE
7F007E
7E003F
7C003F
FC0018
FC0000
F80000
F80000
F80000
F80000
F80000
F80000
F80000
F80000
F80000
F80000
FC0018
FC001E
7E003F
7E003F
7F007E
3FC1FE
1FFFFC
0FFFF8
07FFF0
03FFE0
007F00
000600
000E00
000F80
000FC0
0003C0
0001C0
0003C0
001FC0
001F80
001F00
ENDCHAR
STARTCHAR 00C8
ENCODING 200
SWIDTH 545 0
DWIDTH 25 0
BBX 21 40 3 0
BITMAP
03E000
03F000
00F800
007800
003C00
001E00
000000
000000
FFFFF0
FFFFF0
FFFFF0
FFFFF0
FFFFF0
F80000
F80000
F80000
F80000
F80000
F80000
F80000
F80000
FFFFE0
FFFFE0
FFFFE0
FFFFE0
FFFFE0
F80000
F80000
F80000
F80000
F80000
F80000
F80000
F80000
F80000
FFFFF8
FFFFF8
FFFFF8
FFFFF8
FFFFF8
ENDCHAR
STARTCHAR 00C9
ENCODING 201
SWIDTH 545 0
DWIDTH 25 0
BBX 21 40 3 0
BITMAP
0007C0
000F80
001F00
003E00
007C00
007000
000000
000000
FFFFF0
FFFFF0
FFFFF0
FFFFF0
FFFFF0
F80000
F80000
F80000
F80000
F80000
F80000
F80000
F80000
FFFFE0
FFFFE0
FFFFE0
FFFFE0
FFFFE0
F80000
F80000
F80000
F80000
F80000
F80000
F80000
F80000
F80000
FFFFF8
FFFFF8
FFFFF8
FFFFF8
FFFFF8
ENDCHAR
STARTCHAR 00CA
ENCODING 202
SWIDTH 545 0
DWIDTH 25 0
BBX 21 41 3 0
BITMAP
007C00
00FE00
01FE00
01FF00
03CF80
078380
0F01C0
000000
000000
FFFFF0
FFFFF0
FFFFF0
FFFFF0
FFFFF0
F80000
F80000
F80000
F80000
F80000
F80000
F80000
F80000
FFFFE0
FFFFE0
FFFFE0
FFFFE0
FFFFE0
F80000
F80000
F80000
F80000
F80000
F80000
F80000
F80000
F80000
FFFFF8
FFFFF8
FFFFF8
FFFFF8
FFFFF8
ENDCHAR
STARTCHAR 00CB
ENCODING 203
SWIDTH 545 0
DWIDTH 25 0
BBX 21 39 3 0
BITMAP
078380
078380
078380
078380
078380
000000
000000
FFFFF0
FFFFF0
FFFFF0
FFFFF0
FFFFF0
F80000
F80000
F80000
F80000
F80000
F80000
F80000
F80000
FFFFE0
FFFFE0
FFFFE0
FFFFE0
FFFFE0
F80000
F80000
F80000
F80000
F80000
F80000
F80000
F80000
F80000
FFFFF8
FFFFF8
FFFFF8
FFFFF8
FFFFF8
ENDCHAR
STARTCHAR 00CC
ENCODING 204
SWIDTH 218 0
DWIDTH 10 0
BBX 9 40 -1 0
BITMAP
F800
FC00
3E00
1E00
0F00
0780
0000
0000
0F80
0F80
0F80
0F80
0F80
0F80
0F80
0F80
0F80
0F80
0F80
0F80
0F80
0F80
0F80
0F80
0F80
0F80
0F80
0F80
0F80
0F80
0F80
0F80
0F80
0F80
0F80
0F80
0F80
0F80
0F80
0F80
ENDCHAR
STARTCHAR 00CD
ENCODING 205
SWIDTH 218 0
DWIDTH 10 0
BBX 9 40 2 0
BITMAP
0F80
1F00
3E00
7C00
F800
E000
0000
0000
7C00
7C00
7C00
7C00
7C00
7C00
7C00
7C00
7C00
7C00
7C00
7C00
7C00
7C00
7C00
7C00
7C00
7C00
7C00
7C00
7C00
7C00
7C00
7C00
7C00
7C00
7C00
7C00
7C00
7C00
7C00
7C00
ENDCHAR
STARTCHAR 00CE
ENCODING 206
SWIDTH 218 0
DWIDTH 10 0
BBX 13 41 -1 0
BITMAP
0F80
1FC0
3FC0
3FE0
79F0
F070
E038
0000
0000
0F80
0F80
0F80
0F80
0F80
0F80
0F80
0F80
0F80
0F80
0F80
0F80
0F80
0F80
0F80
0F80
0F80
0F80
0F80
0F80
0F80
0F80
0F80
0F80
0F80
0F80
0F80
0F80
0F80
0F80
0F80
0F80
ENDCHAR
STARTCHAR 00CF
ENCODING 207
SWIDTH 218 0
DWIDTH 10 0
BBX 12 39 -1 0
BITMAP
F070
F070
F070
F070
F070
0000
0000
0F80
0F80
0F80
0F80
0F80
0F80
0F80
0F80
0F80
0F80
0F80
0F80
0F80
0F80
0F80
0F80
0F80
0F80
0F80
0F80
0F80
0F80
0F80
0F80
0F80
0F80
0F80
0F80
0F80
0F80
0F80
0F80
ENDCHAR
STARTCHAR 00D0
ENCODING 208
SWIDTH 589 0
DWIDTH 27 0
BBX 26 32 0 0
BITMAP
1FFF0000
1FFFE000
1FFFF000
1FFFF800
1FFFFC00
1F01FE00
1F007F00
1F003F00
1F003F00
1F001F80
1F001F80
1F000F80
1F000F80
1F000FC0
FFFE0FC0
FFFE0FC0
FFFE0FC0
FFFE0FC0
FFFE0FC0
1F000F80
1F000F80
1F001F80
1F001F80
1F003F80
1F003F00
1F007F00
1F01FE00
1FFFFC00
1FFFFC00
1FFFF000
1FFFE000
1FFF8000
ENDCHAR
STARTCHAR 00D1
ENCODING 209
SWIDTH 589 0
DWIDTH 27 0
BBX 22 41 3 0
BITMAP
01E060
03F860
03FCE0
07FFE0
071FE0
070FC0
070380
000000
000000
FC007C
FC007C
FE007C
FE007C
FF007C
FF007C
FF807C
FF807C
FFC07C
F7C07C
F7E07C
F3E07C
F3E07C
F1F07C
F1F07C
F0F87C
F0F87C
F07C7C
F07C7C
F03E7C
F03E7C
F03F7C
F01F7C
F01FFC
F00FFC
F00FFC
F007FC
F007FC
F003FC
F003FC
F001FC
F001FC
ENDCHAR
STARTCHAR 00D2
ENCODING 210
SWIDTH 632 0
DWIDTH 29 0
BBX 26 40 2 0
BITMAP
003E0000
003F0000
000F8000
00078000
0003C000
0001E000
00000000
00000000
007F0000
03FFE000
07FFF800
0FFFFC00
1FFFFC00
3FC1FE00
7F007F00
7E003F00
7E001F80
FC001F80
FC001F80
F8000F80
F8000FC0
F8000FC0
F8000FC0
F8000FC0
F8000FC0
F8000FC0
F8000FC0
F8000FC0
FC000F80
FC001F80
FC001F80
7E001F80
7E003F00
3F007F00
3FC1FE00
1FFFFC00
0FFFF800
07FFF000
03FFE000
007F0000
ENDCHAR
STARTCHAR 00D3
ENCODING 211
SWIDTH 632 0
DWIDTH 29 0
BBX 26 40 2 0
BITMAP
0000F800
0001F000
0003E000
0007C000
000F8000
000E0000
00000000
00000000
007F0000
03FFE000
07FFF800
0FFFFC00
1FFFFC00
3FC1FE00
7F007F00
7E003F00
7E001F80
FC001F80
FC001F80
F8000F80
F8000FC0
F8000FC0
F8000FC0
F8000FC0
F8000FC0
F8000FC0
F8000FC0
F8000FC0
FC000F80
FC001F80
FC001F80
7E001F80
7E003F00
3F007F00
3FC1FE00
1FFFFC00
0FFFF800
07FFF000
03FFE000
007F0000
ENDCHAR
STARTCHAR 00D4
ENCODING 212
SWIDTH 632 0
DWIDTH 29 0
BBX 26 41 2 0
BITMAP
000F8000
001FC000
003FC000
003FE000
0079F000
00F07000
01E03800
00000000
00000000
007F0000
03FFE000
07FFF800
0FFFFC00
1FFFFC00
3FC1FE00
7F007F00
7E003F00
7E001F80
FC001F80
FC001F80
F8000F80
F8000FC0
F8000FC0
F8000FC0
F8000FC0
F8000FC0
F8000FC0
F8000FC0
F8000FC0
FC000F80
FC001F80
FC001F80
7E001F80
7E003F00
3F007F00
3FC1FE00
1FFFFC00
0FFFF800
07FFF000
03FFE000
007F0000
ENDCHAR
STARTCHAR 00D5
ENCODING 213
SWIDTH 632 0
DWIDTH 29 0
BBX 26 41 2 0
BITMAP
00781800
00FE1800
00FF3800
01FFF800
01C7F800
01C3F000
01C0E000
00000000
00000000
007F0000
03FFE000
07FFF800
0FFFFC00
1FFFFC00
3FC1FE00
7F007F00
7E003F00
7E001F80
FC001F80
FC001F80
F8000F80
F8000FC0
F8000FC0
F8000FC0
F8000FC0
F8000FC0
F8000FC0
F8000FC0
F8000FC0
FC000F80
FC001F80
FC001F80
7E001F80
7E003F00
3F007F00
3FC1FE00
1FFFFC00
0FFFF800
07FFF000
03FFE000
007F0000
ENDCHAR
STARTCHAR 00D6
ENCODING 214
SWIDTH 632 0
DWIDTH 29 0
BBX 26 39 2 0
BITMAP
00F07000
00F07000
00F07000
00F07000
00F07000
00000000
00000000
007F0000
03FFE000
07FFF800
0FFFFC00
1FFFFC00
3FC1FE00
7F007F00
7E003F00
7E001F80
FC001F80
FC001F80
F8000F80
F8000FC0
F8000FC0
F8000FC0
F8000FC0
F8000FC0
F8000FC0
F8000FC0
F8000FC0
FC000F80
FC001F80
FC001F80
7E001F80
7E003F00
3F007F00
3FC1FE00
1FFFFC00
0FFFF800
07FFF000
03FFE000
007F0000
ENDCHAR
STARTCHAR 00D7
ENCODING 215
SWIDTH 480 0
DWIDTH 22 0
BBX 18 23 2 4
BITMAP
200100
700380
F807C0
F807C0
FC0FC0
7E1F80
3F3F00
1FFE00
0FFC00
07FC00
07F800
03F000
07F800
07FC00
0FFC00
1FFE00
3F3F00
7E1F80
FC0FC0
F807C0
F807C0
700380
200100
ENDCHAR
STARTCHAR 00D8
ENCODING 216
SWIDTH 632 0
DWIDTH 29 0
BBX 26 35 2 -2
BITMAP
00000F00
007F0E00
03FFFE00
07FFFC00
0FFFFC00
1FFFFE00
3FC1FE00
7F00FF00
7E00FF00
7E01FF80
FC01DF80
FC03DF80
FC078F80
F8078FC0
F80F0FC0
F80E0FC0
F81E0FC0
F81C0FC0
F83C0FC0
F8780FC0
F8700FC0
F8F00F80
FCE01F80
FDE01F80
7FC01F80
7FC03F00
7F807F00
3FC1FE00
1FFFFC00
1FFFF800
1FFFF000
1FFFE000
3CFF0000
78000000
70000000
ENDCHAR
STARTCHAR 00D9
ENCODING 217
SWIDTH 589 0
DWIDTH 27 0
BBX 23 40 2 0
BITMAP
01F000
01F800
007C00
003C00
001E00
000F00
000000
000000
FC007E
FC007E
FC007E
FC007E
FC007E
FC007E
FC007E
FC007E
FC007E
FC007E
FC007E
FC007E
FC007E
FC007E
FC007E
FC007E
FC007E
FC007E
FC007E
FC007E
FC007E
FC007E
FC007E
7C007E
7E00FC
7F01FC
3F83F8
3FFFF8
1FFFF0
0FFFE0
07FFC0
00FE00
ENDCHAR
STARTCHAR 00DA
ENCODING 218
SWIDTH 589 0
DWIDTH 27 0
BBX 23 40 2 0
BITMAP
0001F0
0003E0
0007C0
000F80
001F00
001C00
000000
000000
FC007E
FC007E
FC007E
FC007E
FC007E
FC007E
FC007E
FC007E
FC007E
FC007E
FC007E
FC007E
FC007E
FC007E
FC007E
FC007E
FC007E
FC007E
FC007E
FC007E
FC007E
FC007E
FC007E
7C007E
7E00FC
7F01FC
3F83F8
3FFFF8
1FFFF0
0FFFE0
07FFC0
00FE00
ENDCHAR
STARTCHAR 00DB
ENCODING 219
SWIDTH 589 0
DWIDTH 27 0
BBX 23 41 2 0
BITMAP
001F00
003F80
007F80
007FC0
00F3E0
01E0E0
03C070
000000
000000
FC007E
FC007E
FC007E
FC007E
FC007E
FC007E
FC007E
FC007E
FC007E
FC007E
FC007E
FC007E
FC007E
FC007E
FC007E
FC007E
FC007E
FC007E
FC007E
FC007E
FC007E
FC007E
FC007E
7C007E
7E00FC
7F01FC
3F83F8
3FFFF8
1FFFF0
0FFFE0
07FFC0
00FE00
ENDCHAR
STARTCHAR 00DC
ENCODING 220
SWIDTH 589 0
DWIDTH 27 0
BBX 23 39 2 0
BITMAP
01E0E0
01E0E0
01E0E0
01E0E0
01E0E0
000000
000000
FC007E
FC007E
FC007E
FC007E
FC007E
FC007E
FC007E
FC007E
FC007E
FC007E
FC007E
FC007E
FC007E
FC007E
FC007E
FC007E
FC007E
FC007E
FC007E
FC007E
FC007E
FC007E
FC007E
7C007E
7E00FC
7F01FC
3F83F8
3FFFF8
1FFFF0
0FFFE0
07FFC0
00FE00
ENDCHAR
STARTCHAR 00DD
ENCODING 221
SWIDTH 545 0
DWIDTH 25 0
BBX 23 40 1 0
BITMAP
0001F0
0003E0
0007C0
000F80
001F00
001C00
000000
000000
FC003E
FC007E
7C007C
7E00FC
3E00F8
3F01F8
1F01F0
1F83F0
0F83E0
0FC7E0
07C7C0
07E7C0
03EF80
03EF80
01FF80
01FF00
00FF00
00FE00
007E00
007C00
007C00
007C00
007C00
007C00
007C00
007C00
007C00
007C00
007C00
007C00
007C00
007C00
ENDCHAR
STARTCHAR 00DE
ENCODING 222
SWIDTH 545 0
DWIDTH 25 0
BBX 21 32 3 0
BITMAP
F80000
F80000
F80000
F80000
F80000
FFFE00
FFFF80
FFFFC0
FFFFE0
FFFFF0
F807F0
F803F0
F801F8
F801F8
F801F8
F801F8
F801F8
F801F8
F801F8
F803F0
F807F0
FFFFE0
FFFFE0
FFFFC0
FFFF80
FFFE00
F80000
F80000
F80000
F80000
F80000
F80000
ENDCHAR
STARTCHAR 00DF
ENCODING 223
SWIDTH 501 0
DWIDTH 23 0
BBX 19 33 3 0
BITMAP
07F000
1FFC00
3FFE00
7FFF00
7FFF00
FE1F80
FC0F80
F80F80
F80F80
F80F80
F81F00
F83F00
F87E00
F87C00
F8F800
F8F800
F8F800
F8FC00
F8FE00
F87F00
F83F80
F81FC0
F80FC0
F807E0
F803E0
F803E0
F803E0
F803E0
F987E0
F9FFC0
F9FFC0
F9FF80
F9FE00
ENDCHAR
STARTCHAR 00E0
ENCODING 224
SWIDTH 458 0
DWIDTH 21 0
BBX 20 34 1 0
BITMAP
0F8000
07C000
03E000
01F000
00F000
007800
003C00
000000
000000
000000
03F800
0FFE00
1FFF00
3FFF00
3F1F80
7E0F80
7E0F80
000F80
000F80
000F80
07FF80
1FFF80
3FFF80
7E0F80
FC0F80
FC0F80
F80F80
FC1F80
FC1FC0
FC3FC0
7FF7F0
7FF7F0
3FE3F0
0F81F0
ENDCHAR
STARTCHAR 00E1
ENCODING 225
SWIDTH 458 0
DWIDTH 21 0
BBX 20 34 1 0
BITMAP
001F00
003E00
007C00
007800
00F000
01E000
01C000
000000
000000
000000
03F800
0FFE00
1FFF00
3FFF00
3F1F80
7E0F80
7E0F80
000F80
000F80
000F80
07FF80
1FFF80
3FFF80
7E0F80
FC0F80
FC0F80
F80F80
FC1F80
FC1FC0
FC3FC0
7FF7F0
7FF7F0
3FE3F0
0F81F0
ENDCHAR
STARTCHAR 00E2
ENCODING 226
SWIDTH 458 0
DWIDTH 21 0
BBX 20 35 1 0
BITMAP
01F000
01F800
03FC00
07FC00
079E00
0F0E00
0E0F00
1C0780
000000
000000
000000
03F800
0FFE00
1FFF00
3FFF00
3F1F80
7E0F80
7E0F80
000F80
000F80
000F80
07FF80
1FFF80
3FFF80
7E0F80
FC0F80
FC0F80
F80F80
FC1F80
FC1FC0
FC3FC0
7FF7F0
7FF7F0
3FE3F0
0F81F0
ENDCHAR
STARTCHAR 00E3
ENCODING 227
SWIDTH 458 0
DWIDTH 21 0
BBX 20 33 1 0
BITMAP
078180
0FC380
1FF380
1FFF80
1CFF00
1C3F00
181E00
000000
000000
03F800
0FFE00
1FFF00
3FFF00
3F1F80
7E0F80
7E0F80
000F80
000F80
000F80
07FF80
1FFF80
3FFF80
7E0F80
FC0F80
FC0F80
F80F80
FC1F80
FC1FC0
FC3FC0
7FF7F0
7FF7F0
3FE3F0
0F81F0
ENDCHAR
STARTCHAR 00E4
ENCODING 228
SWIDTH 458 0
DWIDTH 21 0
BBX 20 32 1 0
BITMAP
0F0F00
0F0F00
0F0F00
0F0F00
0F0F00
000000
000000
000000
03F800
0FFE00
1FFF00
3FFF00
3F1F80
7E0F80
7E0F80
000F80
000F80
000F80
07FF80
1FFF80
3FFF80
7E0F80
FC0F80
FC0F80
F80F80
FC1F80
FC1FC0
FC3FC0
7FF7F0
7FF7F0
3FE3F0
0F81F0
ENDCHAR
STARTCHAR 00E5
ENCODING 229
SWIDTH 458 0
DWIDTH 21 0
BBX 20 38 1 0
BITMAP
00F000
01FC00
03FC00
038E00
030600
030600
030600
038E00
03FC00
01FC00
00F000
000000
000000
000000
03F800
0FFE00
1FFF00
3FFF00
3F1F80
7E0F80
7E0F80
000F80
000F80
000F80
07FF80
1FFF80
3FFF80
7E0F80
FC0F80
FC0F80
F80F80
FC1F80
FC1FC0
FC3FC0
7FF7F0
7FF7F0
3FE3F0
0F81F0
ENDCHAR
STARTCHAR 00E6
ENCODING 230
SWIDTH 741 0
DWIDTH 34 0
BBX 31 24 1 0
BITMAP
03F81F80
0FFE7FE0
1FFFFFF0
3FFFFFF8
3F0FF0F8
7E0FE07C
7E07E07C
0007C03C
0007C03E
01FFFFFE
1FFFFFFE
3FFFFFFE
7FFFFFFE
7E07C000
FC07C000
FC07C000
FC0FE000
FC0FE038
FC1FE07C
7E3FF0FC
7FF9FFF8
7FF8FFF8
3FE07FE0
0FC01F80
ENDCHAR
STARTCHAR 00E7
ENCODING 231
SWIDTH 458 0
DWIDTH 21 0
BBX 19 34 1 -10
BITMAP
01F800
07FE00
0FFF00
1FFF80
3F0FC0
3E07C0
7E07C0
7C07E0
7C0000
7C0000
7C0000
FC0000
FC0000
7C0000
7C0000
7C0000
7C03E0
7E07E0
3E07C0
3F0FC0
1FFF80
1FFF00
07FE00
01F800
003000
007000
007C00
007E00
001E00
000E00
001E00
00FE00
00FC00
00F800
ENDCHAR
STARTCHAR 00E8
ENCODING 232
SWIDTH 458 0
DWIDTH 21 0
BBX 19 34 1 0
BITMAP
07C000
03E000
01F000
00F800
007800
003C00
001E00
000000
000000
000000
01F800
07FE00
1FFF00
1FFF80
3F0F80
7E07C0
7C07C0
7C07C0
7C03C0
7FFFC0
FFFFE0
FFFFE0
FFFFE0
7C0000
7C0000
7C0000
7C0000
7E0780
3E07C0
3F0FC0
1FFF80
1FFF00
07FE00
01F800
ENDCHAR
STARTCHAR 00E9
ENCODING 233
SWIDTH 458 0
DWIDTH 21 0
BBX 19 34 1 0
BITMAP
000F80
001F00
003E00
003C00
007800
00F000
00E000
000000
000000
000000
01F800
07FE00
1FFF00
1FFF80
3F0F80
7E07C0
7C07C0
7C07C0
7C03C0
7FFFC0
FFFFE0
FFFFE0
FFFFE0
7C0000
7C0000
7C0000
7C0000
7E0780
3E07C0
3F0FC0
1FFF80
1FFF00
07FE00
01F800
ENDCHAR
STARTCHAR 00EA
ENCODING 234
SWIDTH 458 0
DWIDTH 21 0
BBX 19 35 1 0
BITMAP
00F800
00FC00
01FE00
03FE00
03CF00
078700
070780
0E03C0
000000
000000
000000
01F800
07FE00
1FFF00
1FFF80
3F0F80
7E07C0
7C07C0
7C07C0
7C03C0
7FFFC0
FFFFE0
FFFFE0
FFFFE0
7C0000
7C0000
7C0000
7C0000
7E0780
3E07C0
3F0FC0
1FFF80
1FFF00
07FE00
01F800
ENDCHAR
STARTCHAR 00EB
ENCODING 235
SWIDTH 458 0
DWIDTH 21 0
BBX 19 32 1 0
BITMAP
0F0F00
0F0F00
0F0F00
0F0F00
0F0F00
000000
000000
000000
01F800
07FE00
1FFF00
1FFF80
3F0F80
7E07C0
7C07C0
7C07C0
7C03C0
7FFFC0
FFFFE0
FFFFE0
FFFFE0
7C0000
7C0000
7C0000
7C0000
7E0780
3E07C0
3F0FC0
1FFF80
1FFF00
07FE00
01F800
ENDCHAR
STARTCHAR 00EC
ENCODING 236
SWIDTH 218 0
DWIDTH 10 0
BBX 10 34 -2 0
BITMAP
F800
7C00
3E00
1F00
0F00
0780
03C0
0000
0000
0000
07C0
07C0
07C0
07C0
07C0
07C0
07C0
07C0
07C0
07C0
07C0
07C0
07C0
07C0
07C0
07C0
07C0
07C0
07C0
07C0
07C0
07C0
07C0
07C0
ENDCHAR
STARTCHAR 00ED
ENCODING 237
SWIDTH 218 0
DWIDTH 10 0
BBX 9 34 3 0
BITMAP
0F80
1F00
3E00
3C00
7800
F000
E000
0000
0000
0000
F800
F800
F800
F800
F800
F800
F800
F800
F800
F800
F800
F800
F800
F800
F800
F800
F800
F800
F800
F800
F800
F800
F800
F800
ENDCHAR
STARTCHAR 00EE
ENCODING 238
SWIDTH 218 0
DWIDTH 10 0
BBX 14 35 -2 0
BITMAP
0F80
0FC0
1FE0
3FE0
3CF0
7870
7078
E03C
0000
0000
0000
07C0
07C0
07C0
07C0
07C0
07C0
07C0
07C0
07C0
07C0
07C0
07C0
07C0
07C0
07C0
07C0
07C0
07C0
07C0
07C0
07C0
07C0
07C0
07C0
ENDCHAR
STARTCHAR 00EF
ENCODING 239
SWIDTH 218 0
DWIDTH 10 0
BBX 12 32 -1 0
BITMAP
F0F0
F0F0
F0F0
F0F0
F0F0
0000
0000
0000
0F80
0F80
0F80
0F80
0F80
0F80
0F80
0F80
0F80
0F80
0F80
0F80
0F80
0F80
0F80
0F80
0F80
0F80
0F80
0F80
0F80
0F80
0F80
0F80
ENDCHAR
STARTCHAR 00F0
ENCODING 240
SWIDTH 501 0
DWIDTH 23 0
BBX 21 34 1 0
BITMAP
000080
0FC180
03F780
01FF80
00FF80
01FE00
07FE00
07FF00
079F80
060F80
0007C0
0007C0
01FFE0
07FFE0
0FFFF0
1FFFF0
3F07F0
7E03F0
7E03F0
7C01F0
7C01F8
7C01F8
FC01F8
FC01F0
7C01F0
7C01F0
7C01F0
7E03F0
3E03E0
3F07E0
1FFFC0
0FFF80
07FF00
01FC00
ENDCHAR
STARTCHAR 00F1
ENCODING 241
SWIDTH 501 0
DWIDTH 23 0
BBX 18 33 3 0
BITMAP
078180
0FC380
1FF380
1FFF80
1CFF00
1C3F00
181E00
000000
000000
F07C00
F9FE00
FBFF00
FBFF80
FFFF80
FE1F80
FC0FC0
FC0FC0
F80FC0
F80FC0
F807C0
F807C0
F807C0
F807C0
F807C0
F807C0
F807C0
F807C0
F807C0
F807C0
F807C0
F807C0
F807C0
F807C0
ENDCHAR
STARTCHAR 00F2
ENCODING 242
SWIDTH 501 0
DWIDTH 23 0
BBX 21 34 1 0
BITMAP
03E000
01F000
00F800
007C00
003C00
001E00
000F00
000000
000000
000000
01FC00
07FF00
0FFF80
1FFFC0
3F87E0
3E03E0
7E03F0
7C01F0
7C01F0
7C01F0
7C01F0
FC01F8
FC01F8
7C01F8
7C01F0
7C01F0
7C01F0
7E03F0
3E03E0
3F8FE0
1FFFC0
0FFF80
07FF00
01FC00
ENDCHAR
STARTCHAR 00F3
ENCODING 243
SWIDTH 501 0
DWIDTH 23 0
BBX 21 34 1 0
BITMAP
0007C0
000F80
001F00
001E00
003C00
007800
007000
000000
000000
000000
01FC00
07FF00
0FFF80
1FFFC0
3F87E0
3E03E0
7E03F0
7C01F0
7C01F0
7C01F0
7C01F0
FC01F8
FC01F8
7C01F8
7C01F0
7C01F0
7C01F0
7E03F0
3E03E0
3F8FE0
1FFFC0
0FFF80
07FF00
01FC00
ENDCHAR
STARTCHAR 00F4
ENCODING 244
SWIDTH 501 0
DWIDTH 23 0
BBX 21 35 1 0
BITMAP
007C00
007E00
00FF00
01FF00
01E780
03C380
0383C0
0701E0
000000
000000
000000
01FC00
07FF00
0FFF80
1FFFC0
3F87E0
3E03E0
7E03F0
7C01F0
7C01F0
7C01F0
7C01F0
FC01F8
FC01F8
7C01F8
7C01F0
7C01F0
7C01F0
7E03F0
3E03E0
3F8FE0
1FFFC0
0FFF80
07FF00
01FC00
ENDCHAR
STARTCHAR 00F5
ENCODING 245
SWIDTH 501 0
DWIDTH 23 0
BBX 21 33 1 0
BITMAP
01E060
03F0E0
07FCE0
07FFE0
073FC0
070FC0
060780
000000
000000
01FC00
07FF00
0FFF80
1FFFC0
3F87E0
3E03E0
7E03F0
7C01F0
7C01F0
7C01F0
7C01F0
FC01F8
FC01F8
7C01F8
7C01F0
7C01F0
7C01F0
7E03F0
3E03E0
3F8FE0
1FFFC0
0FFF80
07FF00
01FC00
ENDCHAR
STARTCHAR 00F6
ENCODING 246
SWIDTH 501 0
DWIDTH 23 0
BBX 21 32 1 0
BITMAP
078780
078780
078780
078780
078780
000000
000000
000000
01FC00
07FF00
0FFF80
1FFFC0
3F87E0
3E03E0
7E03F0
7C01F0
7C01F0
7C01F0
7C01F0
FC01F8
FC01F8
7C01F8
7C01F0
7C01F0
7C01F0
7E03F0
3E03E0
3F8FE0
1FFFC0
0FFF80
07FF00
01FC00
ENDCHAR
STARTCHAR 00F7
ENCODING 247
SWIDTH 545 0
DWIDTH 25 0
BBX 23 23 1 4
BITMAP
007C00
007C00
007C00
007C00
007C00
000000
000000
000000
000000
FFFFFE
FFFFFE
FFFFFE
FFFFFE
FFFFFE
000000
000000
000000
000000
007C00
007C00
007C00
007C00
007C00
ENDCHAR
STARTCHAR 00F8
ENCODING 248
SWIDTH 501 0
DWIDTH 23 0
BBX 21 26 1 -1
BITMAP
000038
01FE70
07FFF0
0FFFE0
1FFFE0
3F87E0
3E07F0
7E07F0
7C0FF0
7C1FF0
7C1DF0
7C39F8
FC71F8
FCF1F8
7CE1F8
7DC1F0
7FC1F0
7F81F0
7F03F0
3E03E0
3F0FE0
1FFFC0
3FFF80
77FF00
F1FC00
E00000
ENDCHAR
STARTCHAR 00F9
ENCODING 249
SWIDTH 501 0
DWIDTH 23 0
BBX 19 34 2 0
BITMAP
0F8000
07C000
03E000
01F000
00F000
007800
003C00
000000
000000
000000
FC07C0
FC07C0
FC07C0
FC07C0
FC07C0
FC07C0
FC07C0
FC07C0
FC07C0
FC07C0
FC07C0
FC07C0
FC07C0
FC07C0
FC07C0
FC07C0
FC0FC0
7C0FC0
7E1FC0
7FFFC0
7FF7C0
3FF7C0
1FE3C0
0F83E0
ENDCHAR
STARTCHAR 00FA
ENCODING 250
SWIDTH 501 0
DWIDTH 23 0
BBX 19 34 2 0
BITMAP
000F80
001F00
003E00
003C00
007800
00F000
00E000
000000
000000
000000
FC07C0
FC07C0
FC07C0
FC07C0
FC07C0
FC07C0
FC07C0
FC07C0
FC07C0
FC07C0
FC07C0
FC07C0
FC07C0
FC07C0
FC07C0
FC07C0
FC0FC0
7C0FC0
7E1FC0
7FFFC0
7FF7C0
3FF7C0
1FE3C0
0F83E0
ENDCHAR
STARTCHAR 00FB
ENCODING 251
SWIDTH 501 0
DWIDTH 23 0
BBX 19 35 2 0
BITMAP
00F800
00FC00
01FE00
03FE00
03CF00
078700
070780
0E03C0
000000
000000
000000
FC07C0
FC07C0
FC07C0
FC07C0
FC07C0
FC07C0
FC07C0
FC07C0
FC07C0
FC07C0
FC07C0
FC07C0
FC07C0
FC07C0
FC07C0
FC07C0
FC0FC0
7C0FC0
7E1FC0
7FFFC0
7FF7C0
3FF7C0
1FE3C0
0F83E0
ENDCHAR
STARTCHAR 00FC
ENCODING 252
SWIDTH 501 0
DWIDTH 23 0
BBX 19 32 2 0
BITMAP
0F0F00
0F0F00
0F0F00
0F0F00
0F0F00
000000
000000
000000
FC07C0
FC07C0
FC07C0
FC07C0
FC07C0
FC07C0
FC07C0
FC07C0
FC07C0
FC07C0
FC07C0
FC07C0
FC07C0
FC07C0
FC07C0
FC07C0
FC0FC0
7C0FC0
7E1FC0
7FFFC0
7FF7C0
3FF7C0
1FE3C0
0F83E0
ENDCHAR
STARTCHAR 00FD
ENCODING 253
SWIDTH 458 0
DWIDTH 21 0
BBX 21 44 0 -10
BITMAP
0007C0
000F80
001F00
001E00
003C00
007800
007000
000000
000000
000000
FC01F8
7C01F0
7C01F0
7E03F0
3E03E0
3E03E0
3F03E0
1F07C0
1F07C0
1F07C0
0F87C0
0F8F80
0F8F80
078F80
07CF00
07DF00
03DF00
03DE00
03FE00
01FE00
01FC00
01FC00
00FC00
00F800
00F800
00F800
01F000
01F000
03F000
3FE000
3FE000
3FC000
3F8000
3F0000
ENDCHAR
STARTCHAR 00FE
ENCODING 254
SWIDTH 501 0
DWIDTH 23 0
BBX 19 43 3 -10
BITMAP
F80000
F80000
F80000
F80000
F80000
F80000
F80000
F80000
F80000
F80000
F8FC00
F9FE00
FBFF00
FFFF80
FE1F80
FC0FC0
FC0FC0
F807C0
F807C0
F807C0
F807C0
F807E0
F807C0
F807C0
F807C0
F807C0
FC0FC0
FC0FC0
FE1F80
FFFF80
FBFF00
F9FE00
F8FC00
F80000
F80000
F80000
F80000
F80000
F80000
F80000
F80000
F80000
F80000
ENDCHAR
STARTCHAR 00FF
ENCODING 255
SWIDTH 458 0
DWIDTH 21 0
BBX 21 42 0 -10
BITMAP
078780
078780
078780
078780
078780
000000
000000
000000
FC01F8
7C01F0
7C01F0
7E03F0
3E03E0
3E03E0
3F03E0
1F07C0
1F07C0
1F07C0
0F87C0
0F8F80
0F8F80
078F80
07CF00
07DF00
03DF00
03DE00
03FE00
01FE00
01FC00
01FC00
00FC00
00F800
00F800
00F800
01F000
01F000
03F000
3FE000
3FE000
3FC000
3F8000
3F0000
ENDCHAR
STARTCHAR 0100
ENCODING 256
SWIDTH 589 0
DWIDTH 27 0
BBX 30 39 1 0
BITMAP
007FFFFC
007FFFFC
007FFFFC
007FFFFC
00000000
00000000
00000000
007F0000
007F0000
007F8000
00FF8000
00FF8000
00FF8000
01F7C000
01F7C000
01F7C000
01F3E000
03E3E000
03E3E000
03E1E000
07C1F000
07C1F000
07C1F000
07C0F800
0F80F800
0F80F800
0FFFFC00
1FFFFC00
1FFFFC00
1FFFFC00
3FFFFE00
3F003E00
3E003E00
3E003F00
7E001F00
7C001F00
7C001F00
FC001F80
FC000F80
ENDCHAR
STARTCHAR 0101
ENCODING 257
SWIDTH 458 0
DWIDTH 21 0
BBX 26 31 1 0
BITMAP
07FFFFC0
07FFFFC0
07FFFFC0
07FFFFC0
00000000
00000000
00000000
03F80000
0FFE0000
1FFF0000
3FFF0000
3F1F8000
7E0F8000
7E0F8000
000F8000
000F8000
000F8000
07FF8000
1FFF8000
3FFF8000
7E0F8000
FC0F8000
FC0F8000
F80F8000
FC1F8000
FC1FC000
FC3FC000
7FF7F000
7FF7F000
3FE3F000
0F81F000
ENDCHAR
STARTCHAR 0102
ENCODING 258
SWIDTH 589 0
DWIDTH 27 0
BBX 25 40 1 0
BITMAP
00E03800
00F07800
0078F000
007FF000
003FE000
000F8000
00000000
00000000
007F0000
007F0000
007F8000
00FF8000
00FF8000
00FF8000
01F7C000
01F7C000
01F7C000
01F3E000
03E3E000
03E3E000
03E1E000
07C1F000
07C1F000
07C1F000
07C0F800
0F80F800
0F80F800
0FFFFC00
1FFFFC00
1FFFFC00
1FFFFC00
3FFFFE00
3F003E00
3E003E00
3E003F00
7E001F00
7C001F00
7C001F00
FC001F80
FC000F80
ENDCHAR
STARTCHAR 0103
ENCODING 259
SWIDTH 458 0
DWIDTH 21 0
BBX 20 34 1 0
BITMAP
0E0380
0F0780
0F8F00
07FF00
07FE00
03FE00
00F800
000000
000000
000000
03F800
0FFE00
1FFF00
3FFF00
3F1F80
7E0F80
7E0F80
000F80
000F80
000F80
07FF80
1FFF80
3FFF80
7E0F80
FC0F80
FC0F80
F80F80
FC1F80
FC1FC0
FC3FC0
7FF7F0
7FF7F0
3FE3F0
0F81F0
ENDCHAR
STARTCHAR 0104
ENCODING 260
SWIDTH 589 0
DWIDTH 27 0
BBX 29 42 1 -10
BITMAP
007F0000
007F0000
007F8000
00FF8000
00FF8000
00FF8000
01F7C000
01F7C000
01F7C000
01F3E000
03E3E000
03E3E000
03E1E000
07C1F000
07C1F000
07C1F000
07C0F800
0F80F800
0F80F800
0FFFFC00
1FFFFC00
1FFFFC00
1FFFFC00
3FFFFE00
3F003E00
3E003E00
3E003F00
7E001F00
7C001F00
7C001F00
FC001F80
FC000F80
000000E0
000001C0
00000380
00000380
00000780
00000780
00000788
000003F8
000003F8
000001F0
ENDCHAR
STARTCHAR 0105
ENCODING 261
SWIDTH 458 0
DWIDTH 21 0
BBX 22 34 1 -10
BITMAP
03F800
0FFE00
1FFF00
3FFF00
3F1F80
7E0F80
7E0F80
000F80
000F80
000F80
07FF80
1FFF80
3FFF80
7E0F80
FC0F80
FC0F80
F80F80
FC1F80
FC1FC0
FC3FC0
7FF7F0
7FF7F0
3FE3F0
0F81F0
000070
0000E0
0001C0
0001C0
0003C0
0003C0
0003C4
0001FC
0001FC
0000F8
ENDCHAR
STARTCHAR 0106
ENCODING 262
SWIDTH 589 0
DWIDTH 27 0
BBX 24 40 2 0
BITMAP
00007C
0000F8
0001F0
0003E0
0007C0
000700
000000
000000
00FF00
03FFE0
0FFFF0
1FFFF8
1FFFFC
3FC1FE
7F007E
7E003F
7C003F
FC0018
FC0000
F80000
F80000
F80000
F80000
F80000
F80000
F80000
F80000
F80000
F80000
FC0018
FC001E
7E003F
7E003F
7F007E
3FC1FE
1FFFFC
0FFFF8
07FFF0
03FFE0
007F00
ENDCHAR
STARTCHAR 0107
ENCODING 263
SWIDTH 458 0
DWIDTH 21 0
BBX 19 34 1 0
BITMAP
0007C0
000F80
001F00
001E00
003C00
007800
007000
000000
000000
000000
01F800
07FE00
0FFF00
1FFF80
3F0FC0
3E07C0
7E07C0
7C07E0
7C0000
7C0000
7C0000
FC0000
FC0000
7C0000
7C0000
7C0000
7C03E0
7E07E0
3E07C0
3F0FC0
1FFF80
1FFF00
07FE00
01F800
ENDCHAR
STARTCHAR 0108
ENCODING 264
SWIDTH 589 0
DWIDTH 27 0
BBX 24 41 2 0
BITMAP
000F80
001FC0
003FC0
003FE0
0079F0
00F070
01E038
000000
000000
00FF00
03FFE0
0FFFF0
1FFFF8
1FFFFC
3FC1FE
7F007E
7E003F
7C003F
FC0018
FC0000
F80000
F80000
F80000
F80000
F80000
F80000
F80000
F80000
F80000
F80000
FC0018
FC001E
7E003F
7E003F
7F007E
3FC1FE
1FFFFC
0FFFF8
07FFF0
03FFE0
007F00
ENDCHAR
STARTCHAR 0109
ENCODING 265
SWIDTH 458 0
DWIDTH 21 0
BBX 19 35 1 0
BITMAP
00F800
00FC00
01FE00
03FE00
03CF00
078700
070780
0E03C0
000000
000000
000000
01F800
07FE00
0FFF00
1FFF80
3F0FC0
3E07C0
7E07C0
7C07E0
7C0000
7C0000
7C0000
FC0000
FC0000
7C0000
7C0000
7C0000
7C03E0
7E07E0
3E07C0
3F0FC0
1FFF80
1FFF00
07FE00
01F800
ENDCHAR
STARTCHAR 010A
ENCODING 266
SWIDTH 589 0
DWIDTH 27 0
BBX 24 39 2 0
BITMAP
000F80
000F80
000F80
000F80
000F80
000000
000000
00FF00
03FFE0
0FFFF0
1FFFF8
1FFFFC
3FC1FE
7F007E
7E003F
7C003F
FC0018
FC0000
F80000
F80000
F80000
F80000
F80000
F80000
F80000
F80000
F80000
F80000
FC0018
FC001E
7E003F
7E003F
7F007E
3FC1FE
1FFFFC
0FFFF8
07FFF0
03FFE0
007F00
ENDCHAR
STARTCHAR 010B
ENCODING 267
SWIDTH 458 0
DWIDTH 21 0
BBX 19 33 1 0
BITMAP
007C00
007C00
007C00
007C00
007C00
000000
000000
000000
000000
01F800
07FE00
0FFF00
1FFF80
3F0FC0
3E07C0
7E07C0
7C07E0
7C0000
7C0000
7C0000
FC0000
FC0000
7C0000
7C0000
7C0000
7C03E0
7E07E0
3E07C0
3F0FC0
1FFF80
1FFF00
07FE00
01F800
ENDCHAR
STARTCHAR 010C
ENCODING 268
SWIDTH 589 0
DWIDTH 27 0
BBX 24 41 2 0
BITMAP
01E038
00F070
0079F0
003FE0
003FC0
001FC0
000F80
000000
000000
00FF00
03FFE0
0FFFF0
1FFFF8
1FFFFC
3FC1FE
7F007E
7E003F
7C003F
FC0018
FC0000
F80000
F80000
F80000
F80000
F80000
F80000
F80000
F80000
F80000
F80000
FC0018
FC001E
7E003F
7E003F
7F007E
3FC1FE
1FFFFC
0FFFF8
07FFF0
03FFE0
007F00
ENDCHAR
STARTCHAR 010D
ENCODING 269
SWIDTH 458 0
DWIDTH 21 0
BBX 19 35 1 0
BITMAP
0E03C0
070780
078700
03CF00
03FE00
01FE00
00FC00
00F800
000000
000000
000000
01F800
07FE00
0FFF00
1FFF80
3F0FC0
3E07C0
7E07C0
7C07E0
7C0000
7C0000
7C0000
FC0000
FC0000
7C0000
7C0000
7C0000
7C03E0
7E07E0
3E07C0
3F0FC0
1FFF80
1FFF00
07FE00
01F800
ENDCHAR
STARTCHAR 010E
ENCODING 270
SWIDTH 589 0
DWIDTH 27 0
BBX 23 41 3 0
BITMAP
0F01C0
078380
03CF80
01FF00
01FE00
00FE00
007C00
000000
000000
FFF800
FFFF00
FFFF80
FFFFC0
FFFFE0
F80FF0
F803F8
F801F8
F801FC
F800FC
F800FC
F8007C
F8007C
F8007E
F8007E
F8007E
F8007E
F8007E
F8007E
F8007C
F8007C
F800FC
F800FC
F801F8
F801F8
F803F8
F80FF0
FFFFE0
FFFFC0
FFFF80
FFFF00
FFFC00
ENDCHAR
STARTCHAR 010F
ENCODING 271
SWIDTH 589 0
DWIDTH 27 0
BBX 30 34 2 0
BITMAP
0000007C
0007C07C
0007C07C
0007C07C
0007C078
0007C018
0007C018
0007C030
0007C000
0007C000
07C7C000
1FF7C000
3FF7C000
7FFFC000
7E1FC000
FC0FC000
FC0FC000
F807C000
F807C000
F807C000
F807C000
F807C000
F807C000
F807C000
F807C000
F807C000
F807C000
FC0FC000
FC0FC000
7E1FC000
7FFFC000
3FF7C000
1FE7C000
0FC7E000
ENDCHAR
STARTCHAR 0110
ENCODING 272
SWIDTH 589 0
DWIDTH 27 0
BBX 26 32 0 0
BITMAP
1FFF0000
1FFFE000
1FFFF000
1FFFF800
1FFFFC00
1F01FE00
1F007F00
1F003F00
1F003F00
1F001F80
1F001F80
1F000F80
1F000F80
1F000FC0
FFFE0FC0
FFFE0FC0
FFFE0FC0
FFFE0FC0
FFFE0FC0
1F000F80
1F000F80
1F001F80
1F001F80
1F003F80
1F003F00
1F007F00
1F01FE00
1FFFFC00
1FFFFC00
1FFFF000
1FFFE000
1FFF8000
ENDCHAR
STARTCHAR 0111
ENCODING 273
SWIDTH 501 0
DWIDTH 23 0
BBX 21 33 2 0
BITMAP
0007E0
0007E0
0007E0
00FFF8
00FFF8
00FFF8
00FFF8
0007E0
0007E0
07C7E0
1FF7E0
3FF7E0
7FFFE0
7E1FE0
FC0FE0
FC07E0
F807E0
F807E0
F807E0
F807E0
F807E0
F807E0
F807E0
F807E0
F807E0
F807E0
FC0FE0
FC0FE0
7E1FE0
7FFFE0
3FF7E0
1FF7E0
0FC3E0
ENDCHAR
STARTCHAR 0112
ENCODING 274
SWIDTH 545 0
DWIDTH 25 0
BBX 27 39 3 0
BITMAP
03FFFFE0
03FFFFE0
03FFFFE0
03FFFFE0
00000000
00000000
00000000
FFFFF000
FFFFF000
FFFFF000
FFFFF000
FFFFF000
F8000000
F8000000
F8000000
F8000000
F8000000
F8000000
F8000000
F8000000
FFFFE000
FFFFE000
FFFFE000
FFFFE000
FFFFE000
F8000000
F8000000
F8000000
F8000000
F8000000
F8000000
F8000000
F8000000
F8000000
FFFFF800
FFFFF800
FFFFF800
FFFFF800
FFFFF800
ENDCHAR
STARTCHAR 0113
ENCODING 275
SWIDTH 458 0
DWIDTH 21 0
BBX 27 31 1 0
BITMAP
03FFFFE0
03FFFFE0
03FFFFE0
03FFFFE0
00000000
00000000
00000000
01F80000
07FE0000
1FFF0000
1FFF8000
3F0F8000
7E07C000
7C07C000
7C07C000
7C03C000
7FFFC000
FFFFE000
FFFFE000
FFFFE000
7C000000
7C000000
7C000000
7C000000
7E078000
3E07C000
3F0FC000
1FFF8000
1FFF0000
07FE0000
01F80000
ENDCHAR
STARTCHAR 0114
ENCODING 276
SWIDTH 545 0
DWIDTH 25 0
BBX 21 40 3 0
BITMAP
0701C0
0783C0
03C780
03FF80
01FF00
007C00
000000
000000
FFFFF0
FFFFF0
FFFFF0
FFFFF0
FFFFF0
F80000
F80000
F80000
F80000
F80000
F80000
F80000
F80000
FFFFE0
FFFFE0
FFFFE0
FFFFE0
FFFFE0
F80000
F80000
F80000
F80000
F80000
F80000
F80000
F80000
F80000
FFFFF8
FFFFF8
FFFFF8
FFFFF8
FFFFF8
ENDCHAR
STARTCHAR 0115
ENCODING 277
SWIDTH 458 0
DWIDTH 21 0
BBX 19 34 1 0
BITMAP
0E0380
0F0780
0F8F00
07FF00
07FE00
03FE00
00F800
000000
000000
000000
01F800
07FE00
1FFF00
1FFF80
3F0F80
7E07C0
7C07C0
7C07C0
7C03C0
7FFFC0
FFFFE0
FFFFE0
FFFFE0
7C0000
7C0000
7C0000
7C0000
7E0780
3E07C0
3F0FC0
1FFF80
1FFF00
07FE00
01F800
ENDCHAR
STARTCHAR 0116
ENCODING 278
SWIDTH 545 0
DWIDTH 25 0
BBX 21 39 3 0
BITMAP
007C00
007C00
007C00
007C00
007C00
000000
000000
FFFFF0
FFFFF0
FFFFF0
FFFFF0
FFFFF0
F80000
F80000
F80000
F80000
F80000
F80000
F80000
F80000
FFFFE0
FFFFE0
FFFFE0
FFFFE0
FFFFE0
F80000
F80000
F80000
F80000
F80000
F80000
F80000
F80000
F80000
FFFFF8
FFFFF8
FFFFF8
FFFFF8
FFFFF8
ENDCHAR
STARTCHAR 0117
ENCODING 279
SWIDTH 458 0
DWIDTH 21 0
BBX 19 33 1 0
BITMAP
00F800
00F800
00F800
00F800
00F800
000000
000000
000000
000000
01F800
07FE00
1FFF00
1FFF80
3F0F80
7E07C0
7C07C0
7C07C0
7C03C0
7FFFC0
FFFFE0
FFFFE0
FFFFE0
7C0000
7C0000
7C0000
7C0000
7E0780
3E07C0
3F0FC0
1FFF80
1FFF00
07FE00
01F800
ENDCHAR
STARTCHAR 0118
ENCODING 280
SWIDTH 545 0
DWIDTH 25 0
BBX 23 42 3 -10
BITMAP
FFFFF0
FFFFF0
FFFFF0
FFFFF0
FFFFF0
F80000
F80000
F80000
F80000
F80000
F80000
F80000
F80000
FFFFE0
FFFFE0
FFFFE0
FFFFE0
FFFFE0
F80000
F80000
F80000
F80000
F80000
F80000
F80000
F80000
F80000
FFFFF8
FFFFF8
FFFFF8
FFFFF8
FFFFF8
000038
000070
0000E0
0000E0
0001E0
0001E0
0001E2
0000FE
0000FE
00007C
ENDCHAR
STARTCHAR 0119
ENCODING 281
SWIDTH 458 0
DWIDTH 21 0
BBX 19 34 1 -10
BITMAP
01F800
07FE00
1FFF00
1FFF80
3F0F80
7E07C0
7C07C0
7C07C0
7C03C0
7FFFC0
FFFFE0
FFFFE0
FFFFE0
7C0000
7C0000
7C0000
7C0000
7E0780
3E07C0
3F0FC0
1FFF80
1FFF00
07FE00
01F800
000700
000E00
001C00
001C00
003C00
003C00
003C40
001FC0
001FC0
000F80
ENDCHAR
STARTCHAR 011A
ENCODING 282
SWIDTH 545 0
DWIDTH 25 0
BBX 21 41 3 0
BITMAP
0F01C0
078380
03CF80
01FF00
01FE00
00FE00
007C00
000000
000000
FFFFF0
FFFFF0
FFFFF0
FFFFF0
FFFFF0
F80000
F80000
F80000
F80000
F80000
F80000
F80000
F80000
FFFFE0
FFFFE0
FFFFE0
FFFFE0
FFFFE0
F80000
F80000
F80000
F80000
F80000
F80000
F80000
F80000
F80000
FFFFF8
FFFFF8
FFFFF8
FFFFF8
FFFFF8
ENDCHAR
STARTCHAR 011B
ENCODING 283
SWIDTH 458 0
DWIDTH 21 0
BBX 19 35 1 0
BITMAP
0E03C0
070780
078700
03CF00
03FE00
01FE00
00FC00
00F800
000000
000000
000000
01F800
07FE00
1FFF00
1FFF80
3F0F80
7E07C0
7C07C0
7C07C0
7C03C0
7FFFC0
FFFFE0
FFFFE0
FFFFE0
7C0000
7C0000
7C0000
7C0000
7E0780
3E07C0
3F0FC0
1FFF80
1FFF00
07FE00
01F800
ENDCHAR
STARTCHAR 011C
ENCODING 284
SWIDTH 632 0
DWIDTH 29 0
BBX 25 41 2 0
BITMAP
000F8000
001FC000
003FC000
003FE000
0079F000
00F07000
01E03800
00000000
00000000
007F8000
03FFE000
07FFF800
1FFFFC00
1FFFFE00
3FC0FE00
7F007F00
7E003F00
7E001E00
FC001000
FC000000
F8000000
F8000000
F8000000
F8000000
F803FF80
F803FF80
F803FF80
F803FF80
F803FF80
FC000F80
FC000F80
FC000F80
7E000F80
7E000F80
7F001F80
3FC0FF80
1FFFFF00
0FFFFE00
07FFFC00
03FFF000
007F8000
ENDCHAR
STARTCHAR 011D
ENCODING 285
SWIDTH 501 0
DWIDTH 23 0
BBX 19 45 2 -10
BITMAP
01F000
01F800
03FC00
07FC00
079E00
0F0E00
0E0F00
1C0780
000000
000000
000000
07C3E0
1FF7C0
3FF7C0
7FFFC0
7E1FC0
FC0FC0
FC0FC0
F807C0
F807C0
F807C0
F807C0
F807C0
F807C0
F807C0
F807C0
F807C0
F807C0
FC0FC0
FC0FC0
7E1FC0
7FFFC0
3FF7C0
1FE7C0
0FC7C0
0007C0
0007C0
0007C0
FC07C0
7C0FC0
7E1F80
7FFF80
3FFF00
1FFE00
07F000
ENDCHAR
STARTCHAR 011E
ENCODING 286
SWIDTH 632 0
DWIDTH 29 0
BBX 25 40 2 0
BITMAP
00E03800
00F07800
0078F000
007FF000
003FE000
000F8000
00000000
00000000
007F8000
03FFE000
07FFF800
1FFFFC00
1FFFFE00
3FC0FE00
7F007F00
7E003F00
7E001E00
FC001000
FC000000
F8000000
F8000000
F8000000
F8000000
F803FF80
F803FF80
F803FF80
F803FF80
F803FF80
FC000F80
FC000F80
FC000F80
7E000F80
7E000F80
7F001F80
3FC0FF80
1FFFFF00
0FFFFE00
07FFFC00
03FFF000
007F8000
ENDCHAR
STARTCHAR 011F
ENCODING 287
SWIDTH 501 0
DWIDTH 23 0
BBX 19 44 2 -10
BITMAP
0E0380
0F0780
0F8F00
07FF00
07FE00
03FE00
00F800
000000
000000
000000
07C3E0
1FF7C0
3FF7C0
7FFFC0
7E1FC0
FC0FC0
FC0FC0
F807C0
F807C0
F807C0
F807C0
F807C0
F807C0
F807C0
F807C0
F807C0
F807C0
FC0FC0
FC0FC0
7E1FC0
7FFFC0
3FF7C0
1FE7C0
0FC7C0
0007C0
0007C0
0007C0
FC07C0
7C0FC0
7E1F80
7FFF80
3FFF00
1FFE00
07F000
ENDCHAR
STARTCHAR 0120
ENCODING 288
SWIDTH 632 0
DWIDTH 29 0
BBX 25 39 2 0
BITMAP
000F8000
000F8000
000F8000
000F8000
000F8000
00000000
00000000
007F8000
03FFE000
07FFF800
1FFFFC00
1FFFFE00
3FC0FE00
7F007F00
7E003F00
7E001E00
FC001000
FC000000
F8000000
F8000000
F8000000
F8000000
F803FF80
F803FF80
F803FF80
F803FF80
F803FF80
FC000F80
FC000F80
FC000F80
7E000F80
7E000F80
7F001F80
3FC0FF80
1FFFFF00
0FFFFE00
07FFFC00
03FFF000
007F8000
ENDCHAR
STARTCHAR 0121
ENCODING 289
SWIDTH 501 0
DWIDTH 23 0
BBX 19 43 2 -10
BITMAP
00F800
00F800
00F800
00F800
00F800
000000
000000
000000
000000
07C3E0
1FF7C0
3FF7C0
7FFFC0
7E1FC0
FC0FC0
FC0FC0
F807C0
F807C0
F807C0
F807C0
F807C0
F807C0
F807C0
F807C0
F807C0
F807C0
FC0FC0
FC0FC0
7E1FC0
7FFFC0
3FF7C0
1FE7C0
0FC7C0
0007C0
0007C0
0007C0
FC07C0
7C0FC0
7E1F80
7FFF80
3FFF00
1FFE00
07F000
ENDCHAR
STARTCHAR 0122
ENCODING 290
SWIDTH 632 0
DWIDTH 29 0
BBX 25 41 2 -9
BITMAP
007F8000
03FFE000
07FFF800
1FFFFC00
1FFFFE00
3FC0FE00
7F007F00
7E003F00
7E001E00
FC001000
FC000000
F8000000
F8000000
F8000000
F8000000
F803FF80
F803FF80
F803FF80
F803FF80
F803FF80
FC000F80
FC000F80
FC000F80
7E000F80
7E000F80
7F001F80
3FC0FF80
1FFFFF00
0FFFFE00
07FFFC00
03FFF000
007F8000
00000000
00078000
00078000
00078000
00078000
00078000
00018000
00038000
00030000
ENDCHAR
STARTCHAR 0123
ENCODING 291
SWIDTH 501 0
DWIDTH 23 0
BBX 19 45 2 -10
BITMAP
003800
003000
006000
007800
007800
007800
007800
007800
000000
000000
000000
07C3E0
1FF7C0
3FF7C0
7FFFC0
7E1FC0
FC0FC0
FC0FC0
F807C0
F807C0
F807C0
F807C0
F807C0
F807C0
F807C0
F807C0
F807C0
F807C0
FC0FC0
FC0FC0
7E1FC0
7FFFC0
3FF7C0
1FE7C0
0FC7C0
0007C0
0007C0
0007C0
FC07C0
7C0FC0
7E1F80
7FFF80
3FFF00
1FFE00
07F000
ENDCHAR
STARTCHAR 0124
ENCODING 292
SWIDTH 589 0
DWIDTH 27 0
BBX 22 41 3 0
BITMAP
003E00
007F00
00FF00
00FF80
01E7C0
03C1C0
0780E0
000000
000000
F800FC
F800FC
F800FC
F800FC
F800FC
F800FC
F800FC
F800FC
F800FC
F800FC
F800FC
F800FC
F800FC
FFFFFC
FFFFFC
FFFFFC
FFFFFC
FFFFFC
F800FC
F800FC
F800FC
F800FC
F800FC
F800FC
F800FC
F800FC
F800FC
F800FC
F800FC
F800FC
F800FC
F800FC
ENDCHAR
STARTCHAR 0125
ENCODING 293
SWIDTH 501 0
DWIDTH 23 0
BBX 18 43 3 0
BITMAP
00F800
01FC00
03FC00
03FE00
079F00
0F0700
1E0380
000000
000000
000000
F80000
F80000
F80000
F80000
F80000
F80000
F80000
F80000
F80000
F87C00
F9FE00
FBFF00
FBFF80
FFFF80
FE1F80
FC0FC0
FC0FC0
F80FC0
F80FC0
F807C0
F807C0
F807C0
F807C0
F807C0
F807C0
F807C0
F807C0
F807C0
F807C0
F807C0
F807C0
F807C0
F807C0
ENDCHAR
STARTCHAR 0126
ENCODING 294
SWIDTH 589 0
DWIDTH 27 0
BBX 27 32 0 0
BITMAP
1F001F80
1F001F80
1F001F80
1F001F80
FFFFFFE0
FFFFFFE0
FFFFFFE0
FFFFFFE0
1F001F80
1F001F80
1F001F80
1F001F80
1F001F80
1FFFFF80
1FFFFF80
1FFFFF80
1FFFFF80
1FFFFF80
1F001F80
1F001F80
1F001F80
1F001F80
1F001F80
1F001F80
1F001F80
1F001F80
1F001F80
1F001F80
1F001F80
1F001F80
1F001F80
1F001F80
ENDCHAR
STARTCHAR 0127
ENCODING 295
SWIDTH 501 0
DWIDTH 23 0
BBX 21 33 0 0
BITMAP
1F0000
1F0000
1F0000
FFF800
FFF800
FFF800
FFF800
1F0000
1F0000
1F0F80
1F3FC0
1F7FE0
1F7FF0
1FFFF0
1FC3F0
1F81F0
1F81F8
1F01F8
1F01F8
1F00F8
1F00F8
1F00F8
1F00F8
1F00F8
1F00F8
1F00F8
1F00F8
1F00F8
1F00F8
1F00F8
1F00F8
1F00F8
1F00F8
ENDCHAR
STARTCHAR 0128
ENCODING 296
SWIDTH 218 0
DWIDTH 10 0
BBX 14 41 -2 0
BITMAP
3C0C
7F0C
7F9C
7FFC
E3FC
E1F8
E070
0000
0000
07C0
07C0
07C0
07C0
07C0
07C0
07C0
07C0
07C0
07C0
07C0
07C0
07C0
07C0
07C0
07C0
07C0
07C0
07C0
07C0
07C0
07C0
07C0
07C0
07C0
07C0
07C0
07C0
07C0
07C0
07C0
07C0
ENDCHAR
STARTCHAR 0129
ENCODING 297
SWIDTH 218 0
DWIDTH 10 0
BBX 14 33 -2 0
BITMAP
3C0C
7E1C
FF9C
FFFC
E7F8
E1F8
C0F0
0000
0000
07C0
07C0
07C0
07C0
07C0
07C0
07C0
07C0
07C0
07C0
07C0
07C0
07C0
07C0
07C0
07C0
07C0
07C0
07C0
07C0
07C0
07C0
07C0
07C0
ENDCHAR
STARTCHAR 012A
ENCODING 298
SWIDTH 218 0
DWIDTH 10 0
BBX 21 39 0 0
BITMAP
FFFFF8
FFFFF8
FFFFF8
FFFFF8
000000
000000
000000
1F0000
1F0000
1F0000
1F0000
1F0000
1F0000
1F0000
1F0000
1F0000
1F0000
1F0000
1F0000
1F0000
1F0000
1F0000
1F0000
1F0000
1F0000
1F0000
1F0000
1F0000
1F0000
1F0000
1F0000
1F0000
1F0000
1F0000
1F0000
1F0000
1F0000
1F0000
1F0000
ENDCHAR
STARTCHAR 012B
ENCODING 299
SWIDTH 218 0
DWIDTH 10 0
BBX 21 31 0 0
BITMAP
FFFFF8
FFFFF8
FFFFF8
FFFFF8
000000
000000
000000
1F0000
1F0000
1F0000
1F0000
1F0000
1F0000
1F0000
1F0000
1F0000
1F0000
1F0000
1F0000
1F0000
1F0000
1F0000
1F0000
1F0000
1F0000
1F0000
1F0000
1F0000
1F0000
1F0000
1F0000
ENDCHAR
STARTCHAR 012C
ENCODING 300
SWIDTH 218 0
DWIDTH 10 0
BBX 13 40 -1 0
BITMAP
E038
F078
78F0
7FF0
3FE0
0F80
0000
0000
0F80
0F80
0F80
0F80
0F80
0F80
0F80
0F80
0F80
0F80
0F80
0F80
0F80
0F80
0F80
0F80
0F80
0F80
0F80
0F80
0F80
0F80
0F80
0F80
0F80
0F80
0F80
0F80
0F80
0F80
0F80
0F80
ENDCHAR
STARTCHAR 012D
ENCODING 301
SWIDTH 218 0
DWIDTH 10 0
BBX 13 34 -1 0
BITMAP
E038
F078
F8F0
7FF0
7FE0
3FE0
0F80
0000
0000
0000
0F80
0F80
0F80
0F80
0F80
0F80
0F80
0F80
0F80
0F80
0F80
0F80
0F80
0F80
0F80
0F80
0F80
0F80
0F80
0F80
0F80
0F80
0F80
0F80
ENDCHAR
STARTCHAR 012E
ENCODING 302
SWIDTH 218 0
DWIDTH 10 0
BBX 8 42 1 -10
BITMAP
3E
3E
3E
3E
3E
3E
3E
3E
3E
3E
3E
3E
3E
3E
3E
3E
3E
3E
3E
3E
3E
3E
3E
3E
3E
3E
3E
3E
3E
3E
3E
3E
1C
38
70
70
F0
F0
F1
7F
7F
3E
ENDCHAR
STARTCHAR 012F
ENCODING 303
SWIDTH 218 0
DWIDTH 10 0
BBX 8 43 1 -10
BITMAP
3E
3E
3E
3E
3E
00
00
00
00
3E
3E
3E
3E
3E
3E
3E
3E
3E
3E
3E
3E
3E
3E
3E
3E
3E
3E
3E
3E
3E
3E
3E
3E
1C
38
70
70
F0
F0
F1
7F
7F
3E
ENDCHAR
STARTCHAR 0130
ENCODING 304
SWIDTH 218 0
DWIDTH 10 0
BBX 5 39 3 0
BITMAP
F8
F8
F8
F8
F8
00
00
F8
F8
F8
F8
F8
F8
F8
F8
F8
F8
F8
F8
F8
F8
F8
F8
F8
F8
F8
F8
F8
F8
F8
F8
F8
F8
F8
F8
F8
F8
F8
F8
ENDCHAR
STARTCHAR 0131
ENCODING 305
SWIDTH 218 0
DWIDTH 10 0
BBX 5 24 3 0
BITMAP
F8
F8
F8
F8
F8
F8
F8
F8
F8
F8
F8
F8
F8
F8
F8
F8
F8
F8
F8
F8
F8
F8
F8
F8
ENDCHAR
STARTCHAR 0132
ENCODING 306
SWIDTH 676 0
DWIDTH 31 0
BBX 26 32 3 0
BITMAP
F800FFC0
F800FFC0
F800FFC0
F800FFC0
F800FFC0
F80007C0
F80007C0
F80007C0
F80007C0
F80007C0
F80007C0
F80007C0
F80007C0
F80007C0
F80007C0
F80007C0
F80007C0
F80007C0
F80007C0
F80007C0
F80007C0
F80007C0
F80C07C0
F87C07C0
F87E07C0
F87E0FC0
F87F1FC0
F83FFF80
F83FFF80
F81FFF00
F80FFE00
F803F800
ENDCHAR
STARTCHAR 0133
ENCODING 307
SWIDTH 458 0
DWIDTH 21 0
BBX 18 43 3 -10
BITMAP
F807C0
F807C0
F807C0
F807C0
F807C0
000000
000000
000000
000000
F807C0
F807C0
F807C0
F807C0
F807C0
F807C0
F807C0
F807C0
F807C0
F807C0
F807C0
F807C0
F807C0
F807C0
F807C0
F807C0
F807C0
F807C0
F807C0
F807C0
F807C0
F807C0
F807C0
F807C0
0007C0
0007C0
0007C0
000FC0
000FC0
007FC0
007F80
007F80
007F00
007E00
ENDCHAR
STARTCHAR 0134
ENCODING 308
SWIDTH 458 0
DWIDTH 21 0
BBX 20 41 1 0
BITMAP
001F00
003F80
007F80
007FC0
00F3E0
01E0E0
03C070
000000
000000
01FF80
01FF80
01FF80
01FF80
01FF80
000F80
000F80
000F80
000F80
000F80
000F80
000F80
000F80
000F80
000F80
000F80
000F80
000F80
000F80
000F80
000F80
000F80
180F80
F80F80
FC0F80
FC1F80
FE3F80
7FFF00
7FFF00
3FFE00
1FFC00
07F000
ENDCHAR
STARTCHAR 0135
ENCODING 309
SWIDTH 218 0
DWIDTH 10 0
BBX 13 44 -1 -10
BITMAP
0F80
1FC0
3FC0
3DE0
79E0
F0F0
E078
0000
0000
0000
0F80
0F80
0F80
0F80
0F80
0F80
0F80
0F80
0F80
0F80
0F80
0F80
0F80
0F80
0F80
0F80
0F80
0F80
0F80
0F80
0F80
0F80
0F80
0F80
0F80
0F80
0F80
1F80
1F80
FF80
FF00
FF00
FE00
FC00
ENDCHAR
STARTCHAR 0136
ENCODING 310
SWIDTH 589 0
DWIDTH 27 0
BBX 24 41 3 -9
BITMAP
F800FE
F801FC
F801F8
F803F0
F807E0
F80FE0
F81FC0
F81F80
F83F00
F87E00
F8FE00
F9FC00
F9F800
FBF000
FFF000
FFF800
FFFC00
FFFC00
FE7E00
FC7F00
F83F00
F81F80
F81FC0
F80FC0
F807E0
F807F0
F803F0
F801F8
F801FC
F800FC
F8007E
F8007F
000000
001E00
001E00
001E00
001E00
001E00
000600
000E00
000C00
ENDCHAR
STARTCHAR 0137
ENCODING 311
SWIDTH 458 0
DWIDTH 21 0
BBX 18 42 3 -9
BITMAP
F80000
F80000
F80000
F80000
F80000
F80000
F80000
F80000
F80000
F80F80
F81F00
F83F00
F87E00
F87C00
F8F800
F9F800
FBF000
FBE000
FFE000
FFE000
FFF000
FFF000
FDF800
F8F800
F8FC00
F87C00
F87E00
F83E00
F83F00
F81F00
F81F80
F80F80
F80FC0
000000
01E000
01E000
01E000
01E000
01E000
006000
00E000
00C000
ENDCHAR
STARTCHAR 0138
ENCODING 312
SWIDTH 458 0
DWIDTH 21 0
BBX 18 24 3 0
BITMAP
F80F80
F81F00
F83F00
F87E00
F87C00
F8F800
F9F800
FBF000
FBE000
FFE000
FFE000
FFF000
FFF000
FDF800
F8F800
F8FC00
F87C00
F87E00
F83E00
F83F00
F81F00
F81F80
F80F80
F80FC0
ENDCHAR
STARTCHAR 0139
ENCODING 313
SWIDTH 501 0
DWIDTH 23 0
BBX 19 40 3 0
BITMAP
01F000
03E000
07C000
0F8000
1F0000
1C0000
000000
000000
F80000
F80000
F80000
F80000
F80000
F80000
F80000
F80000
F80000
F80000
F80000
F80000
F80000
F80000
F80000
F80000
F80000
F80000
F80000
F80000
F80000
F80000
F80000
F80000
F80000
F80000
F80000
FFFFE0
FFFFE0
FFFFE0
FFFFE0
FFFFE0
ENDCHAR
STARTCHAR 013A
ENCODING 314
SWIDTH 218 0
DWIDTH 10 0
BBX 9 42 2 0
BITMAP
0F80
1F00
3E00
7C00
F800
E000
0000
0000
0000
7C00
7C00
7C00
7C00
7C00
7C00
7C00
7C00
7C00
7C00
7C00
7C00
7C00
7C00
7C00
7C00
7C00
7C00
7C00
7C00
7C00
7C00
7C00
7C00
7C00
7C00
7C00
7C00
7C00
7C00
7C00
7C00
7C00
ENDCHAR
STARTCHAR 013B
ENCODING 315
SWIDTH 501 0
DWIDTH 23 0
BBX 19 41 3 -9
BITMAP
F80000
F80000
F80000
F80000
F80000
F80000
F80000
F80000
F80000
F80000
F80000
F80000
F80000
F80000
F80000
F80000
F80000
F80000
F80000
F80000
F80000
F80000
F80000
F80000
F80000
F80000
F80000
FFFFE0
FFFFE0
FFFFE0
FFFFE0
FFFFE0
000000
00F000
00F000
00F000
00F000
00F000
003000
007000
006000
ENDCHAR
STARTCHAR 013C
ENCODING 316
SWIDTH 218 0
DWIDTH 10 0
BBX 5 42 3 -9
BITMAP
F8
F8
F8
F8
F8
F8
F8
F8
F8
F8
F8
F8
F8
F8
F8
F8
F8
F8
F8
F8
F8
F8
F8
F8
F8
F8
F8
F8
F8
F8
F8
F8
F8
00
F0
F0
F0
F0
F0
30
70
60
ENDCHAR
STARTCHAR 013D
ENCODING 317
SWIDTH 501 0
DWIDTH 23 0
BBX 19 32 3 0
BITMAP
F807C0
F807C0
F807C0
F807C0
F80780
F80180
F80180
F80300
F80000
F80000
F80000
F80000
F80000
F80000
F80000
F80000
F80000
F80000
F80000
F80000
F80000
F80000
F80000
F80000
F80000
F80000
F80000
FFFFE0
FFFFE0
FFFFE0
FFFFE0
FFFFE0
ENDCHAR
STARTCHAR 013E
ENCODING 318
SWIDTH 327 0
DWIDTH 15 0
BBX 14 34 3 0
BITMAP
007C
F87C
F87C
F87C
F878
F818
F818
F830
F800
F800
F800
F800
F800
F800
F800
F800
F800
F800
F800
F800
F800
F800
F800
F800
F800
F800
F800
F800
F800
F800
F800
F800
F800
F800
ENDCHAR
STARTCHAR 013F
ENCODING 319
SWIDTH 501 0
DWIDTH 23 0
BBX 19 32 3 0
BITMAP
F80000
F80000
F80000
F80000
F80000
F80000
F80000
F80000
F80000
F80000
F80000
F80000
F80000
F80F80
F80F80
F80F80
F80F80
F80F80
F80000
F80000
F80000
F80000
F80000
F80000
F80000
F80000
F80000
FFFFE0
FFFFE0
FFFFE0
FFFFE0
FFFFE0
ENDCHAR
STARTCHAR 0140
ENCODING 320
SWIDTH 327 0
DWIDTH 15 0
BBX 15 33 3 0
BITMAP
F800
F800
F800
F800
F800
F800
F800
F800
F800
F800
F800
F800
F800
F800
F83E
F83E
F83E
F83E
F83E
F800
F800
F800
F800
F800
F800
F800
F800
F800
F800
F800
F800
F800
F800
ENDCHAR
STARTCHAR 0141
ENCODING 321
SWIDTH 501 0
DWIDTH 23 0
BBX 22 32 0 0
BITMAP
1F0000
1F0000
1F0000
1F0000
1F0000
1F0000
1F0000
1F0000
1F0000
1F0400
1F0C00
1F3C00
1FFC00
1FFC00
1FFC00
1FF000
3FC000
FF8000
FF0000
FF0000
FF0000
DF0000
1F0000
1F0000
1F0000
1F0000
1F0000
1FFFFC
1FFFFC
1FFFFC
1FFFFC
1FFFFC
ENDCHAR
STARTCHAR 0142
ENCODING 322
SWIDTH 218 0
DWIDTH 10 0
BBX 10 33 0 0
BITMAP
1F00
1F00
1F00
1F00
1F00
1F00
1F00
1F00
1F00
1F00
1F00
1F40
1FC0
1FC0
1FC0
1FC0
7F80
FF00
FF00
FF00
FF00
9F00
1F00
1F00
1F00
1F00
1F00
1F00
1F00
1F00
1F00
1F00
1F00
ENDCHAR
STARTCHAR 0143
ENCODING 323
SWIDTH 589 0
DWIDTH 27 0
BBX 22 40 3 0
BITMAP
0003E0
0007C0
000F80
001F00
003E00
003800
000000
000000
FC007C
FC007C
FE007C
FE007C
FF007C
FF007C
FF807C
FF807C
FFC07C
F7C07C
F7E07C
F3E07C
F3E07C
F1F07C
F1F07C
F0F87C
F0F87C
F07C7C
F07C7C
F03E7C
F03E7C
F03F7C
F01F7C
F01FFC
F00FFC
F00FFC
F007FC
F007FC
F003FC
F003FC
F001FC
F001FC
ENDCHAR
STARTCHAR 0144
ENCODING 324
SWIDTH 501 0
DWIDTH 23 0
BBX 18 34 3 0
BITMAP
000F80
001F00
003E00
003C00
007800
00F000
00E000
000000
000000
000000
F07C00
F9FE00
FBFF00
FBFF80
FFFF80
FE1F80
FC0FC0
FC0FC0
F80FC0
F80FC0
F807C0
F807C0
F807C0
F807C0
F807C0
F807C0
F807C0
F807C0
F807C0
F807C0
F807C0
F807C0
F807C0
F807C0
ENDCHAR
STARTCHAR 0145
ENCODING 325
SWIDTH 589 0
DWIDTH 27 0
BBX 22 41 3 -9
BITMAP
FC007C
FC007C
FE007C
FE007C
FF007C
FF007C
FF807C
FF807C
FFC07C
F7C07C
F7E07C
F3E07C
F3E07C
F1F07C
F1F07C
F0F87C
F0F87C
F07C7C
F07C7C
F03E7C
F03E7C
F03F7C
F01F7C
F01FFC
F00FFC
F00FFC
F007FC
F007FC
F003FC
F003FC
F001FC
F001FC
000000
003C00
003C00
003C00
003C00
003C00
000C00
001C00
001800
ENDCHAR
STARTCHAR 0146
ENCODING 326
SWIDTH 501 0
DWIDTH 23 0
BBX 18 33 3 -9
BITMAP
F07C00
F9FE00
FBFF00
FBFF80
FFFF80
FE1F80
FC0FC0
FC0FC0
F80FC0
F80FC0
F807C0
F807C0
F807C0
F807C0
F807C0
F807C0
F807C0
F807C0
F807C0
F807C0
F807C0
F807C0
F807C0
F807C0
000000
00F000
00F000
00F000
00F000
00F000
003000
007000
006000
ENDCHAR
STARTCHAR 0147
ENCODING 327
SWIDTH 589 0
DWIDTH 27 0
BBX 22 41 3 0
BITMAP
0780E0
03C1C0
01E7C0
00FF80
00FF00
007F00
003E00
000000
000000
FC007C
FC007C
FE007C
FE007C
FF007C
FF007C
FF807C
FF807C
FFC07C
F7C07C
F7E07C
F3E07C
F3E07C
F1F07C
F1F07C
F0F87C
F0F87C
F07C7C
F07C7C
F03E7C
F03E7C
F03F7C
F01F7C
F01FFC
F00FFC
F00FFC
F007FC
F007FC
F003FC
F003FC
F001FC
F001FC
ENDCHAR
STARTCHAR 0148
ENCODING 328
SWIDTH 501 0
DWIDTH 23 0
BBX 18 35 3 0
BITMAP
380F00
1C1E00
1E1C00
0F3C00
0FF800
07F800
03F000
03E000
000000
000000
000000
F07C00
F9FE00
FBFF00
FBFF80
FFFF80
FE1F80
FC0FC0
FC0FC0
F80FC0
F80FC0
F807C0
F807C0
F807C0
F807C0
F807C0
F807C0
F807C0
F807C0
F807C0
F807C0
F807C0
F807C0
F807C0
F807C0
ENDCHAR
STARTCHAR 0149
ENCODING 329
SWIDTH 676 0
DWIDTH 31 0
BBX 27 32 -1 0
BITMAP
F8000000
F8000000
F8000000
F8000000
F8000000
F8000000
38000000
38000000
38F83E00
707CFF00
707DFF80
F07DFFC0
E07FFFC0
007F0FC0
007E07E0
007E07E0
007C07E0
007C07E0
007C03E0
007C03E0
007C03E0
007C03E0
007C03E0
007C03E0
007C03E0
007C03E0
007C03E0
007C03E0
007C03E0
007C03E0
007C03E0
007C03E0
ENDCHAR
STARTCHAR 014A
ENCODING 330
SWIDTH 589 0
DWIDTH 27 0
BBX 23 32 2 0
BITMAP
FC0FC0
FC3FF0
FCFFF8
FDFFF8
FDFFFC
FFC1FC
FF80FC
7F007E
7E007E
7E007E
7C003E
7C003E
7C003E
7C003E
7C003E
7C003E
7C003E
7C003E
7C003E
7C003E
7C003E
7C003E
7C003E
7C007E
7C007E
7C307C
7C78FC
7CFFFC
7CFFF8
7CFFF8
7C7FF0
7C1FC0
ENDCHAR
STARTCHAR 014B
ENCODING 331
SWIDTH 501 0
DWIDTH 23 0
BBX 18 34 3 -10
BITMAP
F07C00
F9FE00
FBFF00
FBFF80
FFFF80
FE1F80
FC0FC0
FC0FC0
F80FC0
F80FC0
F807C0
F807C0
F807C0
F807C0
F807C0
F807C0
F807C0
F807C0
F807C0
F807C0
F807C0
F807C0
F807C0
F807C0
0007C0
0007C0
000FC0
000FC0
000FC0
007FC0
007F80
007F80
007F00
007E00
ENDCHAR
STARTCHAR 014C
ENCODING 332
SWIDTH 632 0
DWIDTH 29 0
BBX 30 39 2 0
BITMAP
007FFFFC
007FFFFC
007FFFFC
007FFFFC
00000000
00000000
00000000
007F0000
03FFE000
07FFF800
0FFFFC00
1FFFFC00
3FC1FE00
7F007F00
7E003F00
7E001F80
FC001F80
FC001F80
F8000F80
F8000FC0
F8000FC0
F8000FC0
F8000FC0
F8000FC0
F8000FC0
F8000FC0
F8000FC0
FC000F80
FC001F80
FC001F80
7E001F80
7E003F00
3F007F00
3FC1FE00
1FFFFC00
0FFFF800
07FFF000
03FFE000
007F0000
ENDCHAR
STARTCHAR 014D
ENCODING 333
SWIDTH 501 0
DWIDTH 23 0
BBX 27 31 1 0
BITMAP
03FFFFE0
03FFFFE0
03FFFFE0
03FFFFE0
00000000
00000000
00000000
01FC0000
07FF0000
0FFF8000
1FFFC000
3F87E000
3E03E000
7E03F000
7C01F000
7C01F000
7C01F000
7C01F000
FC01F800
FC01F800
7C01F800
7C01F000
7C01F000
7C01F000
7E03F000
3E03E000
3F8FE000
1FFFC000
0FFF8000
07FF0000
01FC0000
ENDCHAR
STARTCHAR 014E
ENCODING 334
SWIDTH 632 0
DWIDTH 29 0
BBX 26 40 2 0
BITMAP
00E03800
00F07800
0078F000
007FF000
003FE000
000F8000
00000000
00000000
007F0000
03FFE000
07FFF800
0FFFFC00
1FFFFC00
3FC1FE00
7F007F00
7E003F00
7E001F80
FC001F80
FC001F80
F8000F80
F8000FC0
F8000FC0
F8000FC0
F8000FC0
F8000FC0
F8000FC0
F8000FC0
F8000FC0
FC000F80
FC001F80
FC001F80
7E001F80
7E003F00
3F007F00
3FC1FE00
1FFFFC00
0FFFF800
07FFF000
03FFE000
007F0000
ENDCHAR
STARTCHAR 014F
ENCODING 335
SWIDTH 501 0
DWIDTH 23 0
BBX 21 34 1 0
BITMAP
0380E0
03C1E0
03E3C0
01FFC0
01FF80
00FF80
003E00
000000
000000
000000
01FC00
07FF00
0FFF80
1FFFC0
3F87E0
3E03E0
7E03F0
7C01F0
7C01F0
7C01F0
7C01F0
FC01F8
FC01F8
7C01F8
7C01F0
7C01F0
7C01F0
7E03F0
3E03E0
3F8FE0
1FFFC0
0FFF80
07FF00
01FC00
ENDCHAR
STARTCHAR 0150
ENCODING 336
SWIDTH 632 0
DWIDTH 29 0
BBX 26 40 2 0
BITMAP
0007C780
000F8F80
000F1E00
001E3C00
003C3800
00787000
00000000
00000000
007F0000
03FFE000
07FFF800
0FFFFC00
1FFFFC00
3FC1FE00
7F007F00
7E003F00
7E001F80
FC001F80
FC001F80
F8000F80
F8000FC0
F8000FC0
F8000FC0
F8000FC0
F8000FC0
F8000FC0
F8000FC0
F8000FC0
FC000F80
FC001F80
FC001F80
7E001F80
7E003F00
3F007F00
3FC1FE00
1FFFFC00
0FFFF800
07FFF000
03FFE000
007F0000
ENDCHAR
STARTCHAR 0151
ENCODING 337
SWIDTH 501 0
DWIDTH 23 0
BBX 22 33 1 0
BITMAP
003E3C
007C7C
0078F8
00F0F0
01E1E0
01C3C0
038380
000000
000000
01FC00
07FF00
0FFF80
1FFFC0
3F87E0
3E03E0
7E03F0
7C01F0
7C01F0
7C01F0
7C01F0
FC01F8
FC01F8
7C01F8
7C01F0
7C01F0
7C01F0
7E03F0
3E03E0
3F8FE0
1FFFC0
0FFF80
07FF00
01FC00
ENDCHAR
STARTCHAR 0152
ENCODING 338
SWIDTH 829 0
DWIDTH 38 0
BBX 34 32 2 0
BITMAP
007FFFFF80
03FFFFFF80
07FFFFFF80
0FFFFFFF80
1FFFFFFF80
3FC0F80000
7F00F80000
7E00F80000
7E00F80000
FC00F80000
FC00F80000
F800F80000
F800F80000
F800FFFF00
F800FFFF00
F800FFFF00
F800FFFF00
F800FFFF00
F800F80000
F800F80000
FC00F80000
FC00F80000
FC00F80000
7E00F80000
7E00F80000
3F00F80000
3FC0F80000
1FFFFFFFC0
0FFFFFFFC0
07FFFFFFC0
03FFFFFFC0
007FFFFFC0
ENDCHAR
STARTCHAR 0153
ENCODING 339
SWIDTH 785 0
DWIDTH 36 0
BBX 33 24 1 0
BITMAP
01FC03F000
07FF0FF800
0FFF9FFE00
1FFFFFFE00
3F87FE3F00
3E03FC1F00
7E03F80F80
7C01F80F80
7C01F80F80
7C01FFFF80
FC01FFFF80
FC01FFFF80
FC01FFFF80
7C01F80000
7C01F80000
7C01F80000
7C01F80000
7E03F80F00
3F03FC0F80
3F8FFE1F00
1FFFFFFF00
0FFFBFFE00
07FF1FFC00
01FC07F000
ENDCHAR
STARTCHAR 0154
ENCODING 340
SWIDTH 589 0
DWIDTH 27 0
BBX 23 40 3 0
BITMAP
0007C0
000F80
001F00
003E00
007C00
007000
000000
000000
FFFF00
FFFFC0
FFFFF0
FFFFF0
FFFFF8
F803FC
F800FC
F800FC
F8007C
F8007C
F8007C
F8007C
F800FC
F800FC
F803F8
FFFFF8
FFFFF0
FFFFE0
FFFF80
FFFF80
F80F80
F80FC0
F807C0
F807E0
F803E0
F803F0
F801F8
F801F8
F800FC
F800FC
F8007E
F8007E
ENDCHAR
STARTCHAR 0155
ENCODING 341
SWIDTH 327 0
DWIDTH 15 0
BBX 12 34 3 0
BITMAP
01F0
03E0
07C0
0780
0F00
1E00
1C00
0000
0000
0000
F1E0
F3E0
FBE0
FFE0
FFE0
FE00
FC00
FC00
F800
F800
F800
F800
F800
F800
F800
F800
F800
F800
F800
F800
F800
F800
F800
F800
ENDCHAR
STARTCHAR 0156
ENCODING 342
SWIDTH 589 0
DWIDTH 27 0
BBX 23 41 3 -9
BITMAP
FFFF00
FFFFC0
FFFFF0
FFFFF0
FFFFF8
F803FC
F800FC
F800FC
F8007C
F8007C
F8007C
F8007C
F800FC
F800FC
F803F8
FFFFF8
FFFFF0
FFFFE0
FFFF80
FFFF80
F80F80
F80FC0
F807C0
F807E0
F803E0
F803F0
F801F8
F801F8
F800FC
F800FC
F8007E
F8007E
000000
001E00
001E00
001E00
001E00
001E00
000600
000E00
000C00
ENDCHAR
STARTCHAR 0157
ENCODING 343
SWIDTH 327 0
DWIDTH 15 0
BBX 11 33 3 -9
BITMAP
F1E0
F3E0
FBE0
FFE0
FFE0
FE00
FC00
FC00
F800
F800
F800
F800
F800
F800
F800
F800
F800
F800
F800
F800
F800
F800
F800
F800
0000
F000
F000
F000
F000
F000
3000
7000
6000
ENDCHAR
STARTCHAR 0158
ENCODING 344
SWIDTH 589 0
DWIDTH 27 0
BBX 23 41 3 0
BITMAP
0F01C0
078380
03CF80
01FF00
01FE00
00FE00
007C00
000000
000000
FFFF00
FFFFC0
FFFFF0
FFFFF0
FFFFF8
F803FC
F800FC
F800FC
F8007C
F8007C
F8007C
F8007C
F800FC
F800FC
F803F8
FFFFF8
FFFFF0
FFFFE0
FFFF80
FFFF80
F80F80
F80FC0
F807C0
F807E0
F803E0
F803F0
F801F8
F801F8
F800FC
F800FC
F8007E
F8007E
ENDCHAR
STARTCHAR 0159
ENCODING 345
SWIDTH 327 0
DWIDTH 15 0
BBX 14 35 1 0
BITMAP
E03C
7078
7870
3CF0
3FE0
1FE0
0FC0
0F80
0000
0000
0000
7C78
3CF8
3EF8
3FF8
3FF8
3F80
3F00
3F00
3E00
3E00
3E00
3E00
3E00
3E00
3E00
3E00
3E00
3E00
3E00
3E00
3E00
3E00
3E00
3E00
ENDCHAR
STARTCHAR 015A
ENCODING 346
SWIDTH 545 0
DWIDTH 25 0
BBX 23 40 1 0
BITMAP
0000F8
0001F0
0003E0
0007C0
000F80
000E00
000000
000000
01FF00
07FFC0
0FFFF0
1FFFF0
3FFFF8
3F83F8
3E00FC
7E00FC
7E0070
7E0000
7E0000
3F0000
3FE000
3FFC00
1FFF80
0FFFE0
03FFF8
00FFF8
000FFC
0001FC
0000FC
00007E
00007E
FC007E
FC007E
7E007C
7F81FC
3FFFFC
3FFFF8
1FFFF0
07FFE0
01FF00
ENDCHAR
STARTCHAR 015B
ENCODING 347
SWIDTH 458 0
DWIDTH 21 0
BBX 17 34 2 0
BITMAP
001F00
003E00
007C00
007800
00F000
01E000
01C000
000000
000000
000000
07F000
1FFC00
3FFE00
7FFF00
FC1F00
F80F80
F80E00
F80000
FE0000
FFE000
7FFC00
3FFE00
1FFF00
07FF80
007F80
000F80
000780
700780
F00F80
FC1F80
FFFF00
7FFF00
3FFC00
0FF000
ENDCHAR
STARTCHAR 015C
ENCODING 348
SWIDTH 545 0
DWIDTH 25 0
BBX 23 41 1 0
BITMAP
001F00
003F80
007F80
007FC0
00F3E0
01E0E0
03C070
000000
000000
01FF00
07FFC0
0FFFF0
1FFFF0
3FFFF8
3F83F8
3E00FC
7E00FC
7E0070
7E0000
7E0000
3F0000
3FE000
3FFC00
1FFF80
0FFFE0
03FFF8
00FFF8
000FFC
0001FC
0000FC
00007E
00007E
FC007E
FC007E
7E007C
7F81FC
3FFFFC
3FFFF8
1FFFF0
07FFE0
01FF00
ENDCHAR
STARTCHAR 015D
ENCODING 349
SWIDTH 458 0
DWIDTH 21 0
BBX 17 35 2 0
BITMAP
03E000
03F000
07F800
0FF800
0F3C00
1E1C00
1C1E00
380F00
000000
000000
000000
07F000
1FFC00
3FFE00
7FFF00
FC1F00
F80F80
F80E00
F80000
FE0000
FFE000
7FFC00
3FFE00
1FFF00
07FF80
007F80
000F80
000780
700780
F00F80
FC1F80
FFFF00
7FFF00
3FFC00
0FF000
ENDCHAR
STARTCHAR 015E
ENCODING 350
SWIDTH 545 0
DWIDTH 25 0
BBX 23 42 1 -10
BITMAP
01FF00
07FFC0
0FFFF0
1FFFF0
3FFFF8
3F83F8
3E00FC
7E00FC
7E0070
7E0000
7E0000
3F0000
3FE000
3FFC00
1FFF80
0FFFE0
03FFF8
00FFF8
000FFC
0001FC
0000FC
00007E
00007E
FC007E
FC007E
7E007C
7F81FC
3FFFFC
3FFFF8
1FFFF0
07FFE0
01FF00
003000
007000
007C00
007E00
001E00
000E00
001E00
00FE00
00FC00
00F800
ENDCHAR
STARTCHAR 015F
ENCODING 351
SWIDTH 458 0
DWIDTH 21 0
BBX 17 34 2 -10
BITMAP
07F000
1FFC00
3FFE00
7FFF00
FC1F00
F80F80
F80E00
F80000
FE0000
FFE000
7FFC00
3FFE00
1FFF00
07FF80
007F80
000F80
000780
700780
F00F80
FC1F80
FFFF00
7FFF00
3FFC00
0FF000
018000
038000
03E000
03F000
00F000
007000
00F000
07F000
07E000
07C000
ENDCHAR
STARTCHAR 0160
ENCODING 352
SWIDTH 545 0
DWIDTH 25 0
BBX 23 41 1 0
BITMAP
03C070
01E0E0
00F3E0
007FC0
007F80
003F80
001F00
000000
000000
01FF00
07FFC0
0FFFF0
1FFFF0
3FFFF8
3F83F8
3E00FC
7E00FC
7E0070
7E0000
7E0000
3F0000
3FE000
3FFC00
1FFF80
0FFFE0
03FFF8
00FFF8
000FFC
0001FC
0000FC
00007E
00007E
FC007E
FC007E
7E007C
7F81FC
3FFFFC
3FFFF8
1FFFF0
07FFE0
01FF00
ENDCHAR
STARTCHAR 0161
ENCODING 353
SWIDTH 458 0
DWIDTH 21 0
BBX 17 35 2 0
BITMAP
1C0780
0E0F00
0F0E00
079E00
07FC00
03FC00
01F800
01F000
000000
000000
000000
07F000
1FFC00
3FFE00
7FFF00
FC1F00
F80F80
F80E00
F80000
FE0000
FFE000
7FFC00
3FFE00
1FFF00
07FF80
007F80
000F80
000780
700780
F00F80
FC1F80
FFFF00
7FFF00
3FFC00
0FF000
ENDCHAR
STARTCHAR 0162
ENCODING 354
SWIDTH 501 0
DWIDTH 23 0
BBX 23 42 0 -10
BITMAP
FFFFFE
FFFFFE
FFFFFE
FFFFFE
FFFFFE
007C00
007C00
007C00
007C00
007C00
007C00
007C00
007C00
007C00
007C00
007C00
007C00
007C00
007C00
007C00
007C00
007C00
007C00
007C00
007C00
007C00
007C00
007C00
007C00
007C00
007C00
007C00
003000
007000
007C00
007E00
001E00
000E00
001E00
00FE00
00FC00
00F800
ENDCHAR
STARTCHAR 0163
ENCODING 355
SWIDTH 283 0
DWIDTH 13 0
BBX 12 39 0 -10
BITMAP
0700
0F00
0F00
0F00
1F00
FFF0
FFF0
FFF0
FFF0
1F00
1F00
1F00
1F00
1F00
1F00
1F00
1F00
1F00
1F00
1F00
1F00
1F00
1F00
1F00
1F80
1FF0
0FF0
0FF0
07E0
0180
0380
03E0
03F0
00F0
0070
00F0
07F0
07E0
07C0
ENDCHAR
STARTCHAR 0164
ENCODING 356
SWIDTH 501 0
DWIDTH 23 0
BBX 23 41 0 0
BITMAP
0780E0
03C1C0
01E7C0
00FF80
00FF00
007F00
003E00
000000
000000
FFFFFE
FFFFFE
FFFFFE
FFFFFE
FFFFFE
007C00
007C00
007C00
007C00
007C00
007C00
007C00
007C00
007C00
007C00
007C00
007C00
007C00
007C00
007C00
007C00
007C00
007C00
007C00
007C00
007C00
007C00
007C00
007C00
007C00
007C00
007C00
ENDCHAR
STARTCHAR 0165
ENCODING 357
SWIDTH 392 0
DWIDTH 18 0
BBX 21 34 0 0
BITMAP
0000F8
0000F8
0000F8
0000F8
0000F0
070030
0F0030
0F0060
0F0000
1F0000
FFF000
FFF000
FFF000
FFF000
1F0000
1F0000
1F0000
1F0000
1F0000
1F0000
1F0000
1F0000
1F0000
1F0000
1F0000
1F0000
1F0000
1F0000
1F0000
1F8000
1FF000
0FF000
0FF000
07E000
ENDCHAR
STARTCHAR 0166
ENCODING 358
SWIDTH 501 0
DWIDTH 23 0
BBX 23 32 0 0
BITMAP
FFFFFE
FFFFFE
FFFFFE
FFFFFE
FFFFFE
007C00
007C00
007C00
007C00
007C00
007C00
007C00
007C00
007C00
07FFC0
07FFC0
07FFC0
07FFC0
007C00
007C00
007C00
007C00
007C00
007C00
007C00
007C00
007C00
007C00
007C00
007C00
007C00
007C00
ENDCHAR
STARTCHAR 0167
ENCODING 359
SWIDTH 283 0
DWIDTH 13 0
BBX 12 29 0 0
BITMAP
0700
0F00
0F00
0F00
1F00
FFF0
FFF0
FFF0
FFF0
1F00
1F00
1F00
1F00
1F00
7FF0
7FF0
7FF0
7FF0
1F00
1F00
1F00
1F00
1F00
1F00
1F80
1FF0
0FF0
0FF0
07E0
ENDCHAR
STARTCHAR 0168
ENCODING 360
SWIDTH 589 0
DWIDTH 27 0
BBX 23 41 2 0
BITMAP
00F030
01FC30
01FE70
03FFF0
038FF0
0387E0
0381C0
000000
000000
FC007E
FC007E
FC007E
FC007E
FC007E
FC007E
FC007E
FC007E
FC007E
FC007E
FC007E
FC007E
FC007E
FC007E
FC007E
FC007E
FC007E
FC007E
FC007E
FC007E
FC007E
FC007E
FC007E
7C007E
7E00FC
7F01FC
3F83F8
3FFFF8
1FFFF0
0FFFE0
07FFC0
00FE00
ENDCHAR
STARTCHAR 0169
ENCODING 361
SWIDTH 501 0
DWIDTH 23 0
BBX 19 33 2 0
BITMAP
078180
0FC380
1FF380
1FFF80
1CFF00
1C3F00
181E00
000000
000000
FC07C0
FC07C0
FC07C0
FC07C0
FC07C0
FC07C0
FC07C0
FC07C0
FC07C0
FC07C0
FC07C0
FC07C0
FC07C0
FC07C0
FC07C0
FC07C0
FC0FC0
7C0FC0
7E1FC0
7FFFC0
7FF7C0
3FF7C0
1FE3C0
0F83E0
ENDCHAR
STARTCHAR 016A
ENCODING 362
SWIDTH 589 0
DWIDTH 27 0
BBX 29 38 2 0
BITMAP
00FFFFF8
00FFFFF8
00FFFFF8
00FFFFF8
00000000
00000000
FC007E00
FC007E00
FC007E00
FC007E00
FC007E00
FC007E00
FC007E00
FC007E00
FC007E00
FC007E00
FC007E00
FC007E00
FC007E00
FC007E00
FC007E00
FC007E00
FC007E00
FC007E00
FC007E00
FC007E00
FC007E00
FC007E00
FC007E00
7C007E00
7E00FC00
7F01FC00
3F83F800
3FFFF800
1FFFF000
0FFFE000
07FFC000
00FE0000
ENDCHAR
STARTCHAR 016B
ENCODING 363
SWIDTH 501 0
DWIDTH 23 0
BBX 26 31 2 0
BITMAP
07FFFFC0
07FFFFC0
07FFFFC0
07FFFFC0
00000000
00000000
00000000
FC07C000
FC07C000
FC07C000
FC07C000
FC07C000
FC07C000
FC07C000
FC07C000
FC07C000
FC07C000
FC07C000
FC07C000
FC07C000
FC07C000
FC07C000
FC07C000
FC0FC000
7C0FC000
7E1FC000
7FFFC000
7FF7C000
3FF7C000
1FE3C000
0F83E000
ENDCHAR
STARTCHAR 016C
ENCODING 364
SWIDTH 589 0
DWIDTH 27 0
BBX 23 40 2 0
BITMAP
01C070
01E0F0
00F1E0
00FFE0
007FC0
001F00
000000
000000
FC007E
FC007E
FC007E
FC007E
FC007E
FC007E
FC007E
FC007E
FC007E
FC007E
FC007E
FC007E
FC007E
FC007E
FC007E
FC007E
FC007E
FC007E
FC007E
FC007E
FC007E
FC007E
FC007E
7C007E
7E00FC
7F01FC
3F83F8
3FFFF8
1FFFF0
0FFFE0
07FFC0
00FE00
ENDCHAR
STARTCHAR 016D
ENCODING 365
SWIDTH 501 0
DWIDTH 23 0
BBX 19 34 2 0
BITMAP
0E0380
0F0780
0F8F00
07FF00
07FE00
03FE00
00F800
000000
000000
000000
FC07C0
FC07C0
FC07C0
FC07C0
FC07C0
FC07C0
FC07C0
FC07C0
FC07C0
FC07C0
FC07C0
FC07C0
FC07C0
FC07C0
FC07C0
FC07C0
FC0FC0
7C0FC0
7E1FC0
7FFFC0
7FF7C0
3FF7C0
1FE3C0
0F83E0
ENDCHAR
STARTCHAR 016E
ENCODING 366
SWIDTH 589 0
DWIDTH 27 0
BBX 23 45 2 0
BITMAP
001E00
003F80
007F80
0071C0
0060C0
0060C0
0060C0
0071C0
007F80
003F80
001E00
000000
000000
FC007E
FC007E
FC007E
FC007E
FC007E
FC007E
FC007E
FC007E
FC007E
FC007E
FC007E
FC007E
FC007E
FC007E
FC007E
FC007E
FC007E
FC007E
FC007E
FC007E
FC007E
FC007E
FC007E
7C007E
7E00FC
7F01FC
3F83F8
3FFFF8
1FFFF0
0FFFE0
07FFC0
00FE00
ENDCHAR
STARTCHAR 016F
ENCODING 367
SWIDTH 501 0
DWIDTH 23 0
BBX 19 37 2 0
BITMAP
00F000
01FC00
03FC00
038E00
030600
030600
030600
038E00
03FC00
01FC00
00F000
000000
000000
FC07C0
FC07C0
FC07C0
FC07C0
FC07C0
FC07C0
FC07C0
FC07C0
FC07C0
FC07C0
FC07C0
FC07C0
FC07C0
FC07C0
FC07C0
FC07C0
FC0FC0
7C0FC0
7E1FC0
7FFFC0
7FF7C0
3FF7C0
1FE3C0
0F83E0
ENDCHAR
STARTCHAR 0170
ENCODING 368
SWIDTH 589 0
DWIDTH 27 0
BBX 23 40 2 0
BITMAP
001F1E
003E3E
003C78
0078F0
00F0E0
01E1C0
000000
000000
FC007E
FC007E
FC007E
FC007E
FC007E
FC007E
FC007E
FC007E
FC007E
FC007E
FC007E
FC007E
FC007E
FC007E
FC007E
FC007E
FC007E
FC007E
FC007E
FC007E
FC007E
FC007E
FC007E
7C007E
7E00FC
7F01FC
3F83F8
3FFFF8
1FFFF0
0FFFE0
07FFC0
00FE00
ENDCHAR
STARTCHAR 0171
ENCODING 369
SWIDTH 501 0
DWIDTH 23 0
BBX 20 33 2 0
BITMAP
00F8F0
01F1F0
01E3E0
03C3C0
078780
070F00
0E0E00
000000
000000
FC07C0
FC07C0
FC07C0
FC07C0
FC07C0
FC07C0
FC07C0
FC07C0
FC07C0
FC07C0
FC07C0
FC07C0
FC07C0
FC07C0
FC07C0
FC07C0
FC0FC0
7C0FC0
7E1FC0
7FFFC0
7FF7C0
3FF7C0
1FE3C0
0F83E0
ENDCHAR
STARTCHAR 0172
ENCODING 370
SWIDTH 589 0
DWIDTH 27 0
BBX 23 42 2 -10
BITMAP
FC007E
FC007E
FC007E
FC007E
FC007E
FC007E
FC007E
FC007E
FC007E
FC007E
FC007E
FC007E
FC007E
FC007E
FC007E
FC007E
FC007E
FC007E
FC007E
FC007E
FC007E
FC007E
FC007E
7C007E
7E00FC
7F01FC
3F83F8
3FFFF8
1FFFF0
0FFFE0
07FFC0
01FE00
000380
000700
000E00
000E00
001E00
001E00
001E20
000FE0
000FE0
0007C0
ENDCHAR
STARTCHAR 0173
ENCODING 371
SWIDTH 501 0
DWIDTH 23 0
BBX 21 34 2 -10
BITMAP
FC07C0
FC07C0
FC07C0
FC07C0
FC07C0
FC07C0
FC07C0
FC07C0
FC07C0
FC07C0
FC07C0
FC07C0
FC07C0
FC07C0
FC07C0
FC07C0
FC0FC0
7C0FC0
7E1FC0
7FFFC0
7FF7C0
3FF7C0
1FE3C0
0F83E0
0000E0
0001C0
000380
000380
000780
000780
000788
0003F8
0003F8
0001F0
ENDCHAR
STARTCHAR 0174
ENCODING 372
SWIDTH 785 0
DWIDTH 36 0
BBX 35 41 0 0
BITMAP
00003E0000
00007F0000
0000FF0000
0000FF8000
0001E7C000
0003C1C000
000780E000
0000000000
0000000000
FC01F803E0
FC01F803E0
7C03F803E0
7C03FC07E0
7C03FC07E0
7E03FC07C0
7E03FC07C0
3E07FC07C0
3E07FE07C0
3E07BE0FC0
3E07BE0F80
3F07BE0F80
1F0F9E0F80
1F0F9F0F80
1F0F9F0F80
1F0F1F1F00
1F8F1F1F00
0F8F0F1F00
0F9F0F1F00
0F9F0F9E00
0F9E0FBE00
079E0FBE00
07DE07BE00
07FE07BE00
07FE07BC00
07FC07BC00
03FC07FC00
03FC03FC00
03FC03FC00
03FC03F800
03F803F800
01F803F800
ENDCHAR
STARTCHAR 0175
ENCODING 373
SWIDTH 632 0
DWIDTH 29 0
BBX 29 35 0 0
BITMAP
0003E000
0003F000
0007F800
000FF800
000F3C00
001E1C00
001C1E00
00380F00
00000000
00000000
00000000
F80FC078
F80FC0F8
F81FC0F8
781FC0F8
7C1FC0F0
7C1DE0F0
7C3DE1F0
7C3DE1F0
3C3DE1F0
3C3CE1E0
3E38F1E0
3E78F3E0
1E78F3E0
1E78F3C0
1E787BC0
1FF07BC0
1FF07BC0
0FF07FC0
0FF03F80
0FF03F80
0FE03F80
07E03F80
07E03F80
07E01F00
ENDCHAR
STARTCHAR 0176
ENCODING 374
SWIDTH 545 0
DWIDTH 25 0
BBX 23 41 1 0
BITMAP
001F00
003F80
007F80
007FC0
00F3E0
01E0E0
03C070
000000
000000
FC003E
FC007E
7C007C
7E00FC
3E00F8
3F01F8
1F01F0
1F83F0
0F83E0
0FC7E0
07C7C0
07E7C0
03EF80
03EF80
01FF80
01FF00
00FF00
00FE00
007E00
007C00
007C00
007C00
007C00
007C00
007C00
007C00
007C00
007C00
007C00
007C00
007C00
007C00
ENDCHAR
STARTCHAR 0177
ENCODING 375
SWIDTH 458 0
DWIDTH 21 0
BBX 21 45 0 -10
BITMAP
007C00
007E00
00FF00
01FF00
01E780
03C380
0383C0
0701E0
000000
000000
000000
FC01F8
7C01F0
7C01F0
7E03F0
3E03E0
3E03E0
3F03E0
1F07C0
1F07C0
1F07C0
0F87C0
0F8F80
0F8F80
078F80
07CF00
07DF00
03DF00
03DE00
03FE00
01FE00
01FC00
01FC00
00FC00
00F800
00F800
00F800
01F000
01F000
03F000
3FE000
3FE000
3FC000
3F8000
3F0000
ENDCHAR
STARTCHAR 0178
ENCODING 376
SWIDTH 545 0
DWIDTH 25 0
BBX 23 39 1 0
BITMAP
01E0E0
01E0E0
01E0E0
01E0E0
01E0E0
000000
000000
FC003E
FC007E
7C007C
7E00FC
3E00F8
3F01F8
1F01F0
1F83F0
0F83E0
0FC7E0
07C7C0
07E7C0
03EF80
03EF80
01FF80
01FF00
00FF00
00FE00
007E00
007C00
007C00
007C00
007C00
007C00
007C00
007C00
007C00
007C00
007C00
007C00
007C00
007C00
ENDCHAR
STARTCHAR 0179
ENCODING 377
SWIDTH 501 0
DWIDTH 23 0
BBX 21 40 1 0
BITMAP
0003E0
0007C0
000F80
001F00
003E00
003800
000000
000000
3FFFF0
3FFFF0
3FFFF0
3FFFF0
3FFFF0
0003F0
0007E0
0007E0
000FC0
001F80
001F80
003F00
007E00
007E00
00FC00
01F800
01F800
03F000
03F000
07E000
0FC000
0FC000
1F8000
3F0000
3F0000
7E0000
7E0000
FFFFF8
FFFFF8
FFFFF8
FFFFF8
FFFFF8
ENDCHAR
STARTCHAR 017A
ENCODING 378
SWIDTH 414 0
DWIDTH 19 0
BBX 17 34 1 0
BITMAP
001F00
003E00
007C00
007800
00F000
01E000
01C000
000000
000000
000000
7FFF00
7FFF00
7FFF00
7FFF00
7FFF00
003E00
007E00
007C00
00F800
01F000
03F000
03E000
07C000
0FC000
0F8000
1F0000
3F0000
3E0000
7C0000
FFFF80
FFFF80
FFFF80
FFFF80
FFFF80
ENDCHAR
STARTCHAR 017B
ENCODING 379
SWIDTH 501 0
DWIDTH 23 0
BBX 21 39 1 0
BITMAP
003E00
003E00
003E00
003E00
003E00
000000
000000
3FFFF0
3FFFF0
3FFFF0
3FFFF0
3FFFF0
0003F0
0007E0
0007E0
000FC0
001F80
001F80
003F00
007E00
007E00
00FC00
01F800
01F800
03F000
03F000
07E000
0FC000
0FC000
1F8000
3F0000
3F0000
7E0000
7E0000
FFFFF8
FFFFF8
FFFFF8
FFFFF8
FFFFF8
ENDCHAR
STARTCHAR 017C
ENCODING 380
SWIDTH 414 0
DWIDTH 19 0
BBX 17 33 1 0
BITMAP
01F000
01F000
01F000
01F000
01F000
000000
000000
000000
000000
7FFF00
7FFF00
7FFF00
7FFF00
7FFF00
003E00
007E00
007C00
00F800
01F000
03F000
03E000
07C000
0FC000
0F8000
1F0000
3F0000
3E0000
7C0000
FFFF80
FFFF80
FFFF80
FFFF80
FFFF80
ENDCHAR
STARTCHAR 017D
ENCODING 381
SWIDTH 501 0
DWIDTH 23 0
BBX 21 41 1 0
BITMAP
0780E0
03C1C0
01E7C0
00FF80
00FF00
007F00
003E00
000000
000000
3FFFF0
3FFFF0
3FFFF0
3FFFF0
3FFFF0
0003F0
0007E0
0007E0
000FC0
001F80
001F80
003F00
007E00
007E00
00FC00
01F800
01F800
03F000
03F000
07E000
0FC000
0FC000
1F8000
3F0000
3F0000
7E0000
7E0000
FFFFF8
FFFFF8
FFFFF8
FFFFF8
FFFFF8
ENDCHAR
STARTCHAR 017E
ENCODING 382
SWIDTH 414 0
DWIDTH 19 0
BBX 17 35 1 0
BITMAP
380F00
1C1E00
1E1C00
0F3C00
0FF800
07F800
03F000
03E000
000000
000000
000000
7FFF00
7FFF00
7FFF00
7FFF00
7FFF00
003E00
007E00
007C00
00F800
01F000
03F000
03E000
07C000
0FC000
0F8000
1F0000
3F0000
3E0000
7C0000
FFFF80
FFFF80
FFFF80
FFFF80
FFFF80
ENDCHAR
STARTCHAR 017F
ENCODING 383
SWIDTH 218 0
DWIDTH 10 0
BBX 9 33 3 0
BITMAP
1F80
7F80
FF80
FF80
FC00
F800
F800
F800
F800
F800
F800
F800
F800
F800
F800
F800
F800
F800
F800
F800
F800
F800
F800
F800
F800
F800
F800
F800
F800
F800
F800
F800
F800
ENDCHAR
STARTCHAR 0192
ENCODING 402
SWIDTH 458 0
DWIDTH 21 0
BBX 16 42 3 -10
BITMAP
003F
00FF
01FF
01FE
03F0
03E0
03E0
03E0
07E0
3FFC
3FFC
3FFC
3FFC
07C0
0FC0
0FC0
0F80
0F80
0F80
0F80
0F80
1F80
1F00
1F00
1F00
1F00
1F00
3F00
3E00
3E00
3E00
3E00
3E00
7E00
7C00
7C00
7C00
7C00
7C00
FC00
FC00
F800
ENDCHAR
STARTCHAR 01FA
ENCODING 506
SWIDTH 589 0
DWIDTH 27 0
BBX 25 47 1 0
BITMAP
0000F800
0001F000
0003E000
0007C000
000F8000
000E0000
00000000
000F0000
001FC000
003FC000
0038E000
00306000
00306000
00306000
0038E000
007FC000
007FC000
007F8000
00FF8000
00FF8000
00FF8000
01F7C000
01F7C000
01F7C000
01F3E000
03E3E000
03E3E000
03E1E000
07C1F000
07C1F000
07C1F000
07C0F800
0F80F800
0F80F800
0FFFFC00
1FFFFC00
1FFFFC00
1FFFFC00
3FFFFE00
3F003E00
3E003E00
3E003F00
7E001F00
7C001F00
7C001F00
FC001F80
FC000F80
ENDCHAR
STARTCHAR 01FB
ENCODING 507
SWIDTH 458 0
DWIDTH 21 0
BBX 20 45 1 0
BITMAP
0007C0
000F80
001F00
001E00
003C00
007800
007000
000000
00F000
01FC00
03FC00
038E00
030600
030600
030600
038E00
03FC00
01FC00
00F000
000000
000000
03F800
0FFE00
1FFF00
3FFF00
3F1F80
7E0F80
7E0F80
000F80
000F80
000F80
07FF80
1FFF80
3FFF80
7E0F80
FC0F80
FC0F80
F80F80
FC1F80
FC1FC0
FC3FC0
7FF7F0
7FF7F0
3FE3F0
0F81F0
ENDCHAR
STARTCHAR 01FC
ENCODING 508
SWIDTH 829 0
DWIDTH 38 0
BBX 36 40 0 0
BITMAP
0000000F80
0000001F00
0000003E00
0000007C00
000000F800
000000E000
0000000000
0000000000
0007FFFFE0
000FFFFFE0
000FFFFFE0
000FFFFFE0
001FFFFFE0
001F7E0000
003E7E0000
003E7E0000
003E7E0000
007C7E0000
007C7E0000
00FC7E0000
00F87E0000
00F87FFFC0
01F07FFFC0
01F07FFFC0
03F07FFFC0
03E07FFFC0
07E07E0000
07FFFE0000
07FFFE0000
0FFFFE0000
0FFFFE0000
1FFFFE0000
1F807E0000
1F007E0000
3F007E0000
3E007FFFF0
7E007FFFF0
7E007FFFF0
7C007FFFF0
FC007FFFF0
ENDCHAR
STARTCHAR 01FD
ENCODING 509
SWIDTH 741 0
DWIDTH 34 0
BBX 31 34 1 0
BITMAP
00000F80
00001F00
00003E00
00003C00
00007800
0000F000
0000E000
00000000
00000000
00000000
03F81F80
0FFE7FE0
1FFFFFF0
3FFFFFF8
3F0FF0F8
7E0FE07C
7E07E07C
0007C03C
0007C03E
01FFFFFE
1FFFFFFE
3FFFFFFE
7FFFFFFE
7E07C000
FC07C000
FC07C000
FC0FE000
FC0FE038
FC1FE07C
7E3FF0FC
7FF9FFF8
7FF8FFF8
3FE07FE0
0FC01F80
ENDCHAR
STARTCHAR 01FE
ENCODING 510
SWIDTH 632 0
DWIDTH 29 0
BBX 26 42 2 -2
BITMAP
0000F800
0001F000
0003E000
0007C000
000F8000
000E0000
00000000
00000F00
007F0E00
03FFFE00
07FFFC00
0FFFFC00
1FFFFE00
3FC1FE00
7F00FF00
7E00FF00
7E01FF80
FC01DF80
FC03DF80
FC078F80
F8078FC0
F80F0FC0
F80E0FC0
F81E0FC0
F81C0FC0
F83C0FC0
F8780FC0
F8700FC0
F8F00F80
FCE01F80
FDE01F80
7FC01F80
7FC03F00
7F807F00
3FC1FE00
1FFFFC00
1FFFF800
1FFFF000
1FFFE000
3CFF0000
78000000
70000000
ENDCHAR
STARTCHAR 01FF
ENCODING 511
SWIDTH 501 0
DWIDTH 23 0
BBX 21 35 1 -1
BITMAP
0007C0
000F80
001F00
001E00
003C00
007800
007000
000000
000000
000038
01FE70
07FFF0
0FFFE0
1FFFE0
3F87E0
3E07F0
7E07F0
7C0FF0
7C1FF0
7C1DF0
7C39F8
FC71F8
FCF1F8
7CE1F8
7DC1F0
7FC1F0
7F81F0
7F03F0
3E03E0
3F0FE0
1FFFC0
3FFF80
77FF00
F1FC00
E00000
ENDCHAR
STARTCHAR 0218
ENCODING 536
SWIDTH 545 0
DWIDTH 25 0
BBX 23 41 1 -9
BITMAP
01FF00
07FFC0
0FFFF0
1FFFF0
3FFFF8
3F83F8
3E00FC
7E00FC
7E0070
7E0000
7E0000
3F0000
3FE000
3FFC00
1FFF80
0FFFE0
03FFF8
00FFF8
000FFC
0001FC
0000FC
00007E
00007E
FC007E
FC007E
7E007C
7F81FC
3FFFFC
3FFFF8
1FFFF0
07FFE0
01FF00
000000
003C00
003C00
003C00
003C00
003C00
000C00
001C00
001800
ENDCHAR
STARTCHAR 0219
ENCODING 537
SWIDTH 458 0
DWIDTH 21 0
BBX 17 33 2 -9
BITMAP
07F000
1FFC00
3FFE00
7FFF00
FC1F00
F80F80
F80E00
F80000
FE0000
FFE000
7FFC00
3FFE00
1FFF00
07FF80
007F80
000F80
000780
700780
F00F80
FC1F80
FFFF00
7FFF00
3FFC00
0FF000
000000
01E000
01E000
01E000
01E000
01E000
006000
00E000
00C000
ENDCHAR
STARTCHAR 021A
ENCODING 538
SWIDTH 501 0
DWIDTH 23 0
BBX 23 41 0 -9
BITMAP
FFFFFE
FFFFFE
FFFFFE
FFFFFE
FFFFFE
007C00
007C00
007C00
007C00
007C00
007C00
007C00
007C00
007C00
007C00
007C00
007C00
007C00
007C00
007C00
007C00
007C00
007C00
007C00
007C00
007C00
007C00
007C00
007C00
007C00
007C00
007C00
000000
007800
007800
007800
007800
007800
001800
003800
003000
ENDCHAR
STARTCHAR 021B
ENCODING 539
SWIDTH 283 0
DWIDTH 13 0
BBX 12 38 0 -9
BITMAP
0700
0F00
0F00
0F00
1F00
FFF0
FFF0
FFF0
FFF0
1F00
1F00
1F00
1F00
1F00
1F00
1F00
1F00
1F00
1F00
1F00
1F00
1F00
1F00
1F00
1F80
1FF0
0FF0
0FF0
07E0
0000
0780
0780
0780
0780
0780
0180
0380
0300
ENDCHAR
STARTCHAR 02C6
ENCODING 710
SWIDTH 283 0
DWIDTH 13 0
BBX 14 8 0 27
BITMAP
0F80
0FC0
1FE0
3FE0
3CF0
7870
7078
E03C
ENDCHAR
STARTCHAR 02C7
ENCODING 711
SWIDTH 283 0
DWIDTH 13 0
BBX 14 8 0 27
BITMAP
E03C
7078
7870
3CF0
3FE0
1FE0
0FC0
0F80
ENDCHAR
STARTCHAR 02C9
ENCODING 713
SWIDTH 501 0
DWIDTH 23 0
BBX 21 4 1 27
BITMAP
FFFFF8
FFFFF8
FFFFF8
FFFFF8
ENDCHAR
STARTCHAR 02D8
ENCODING 728
SWIDTH 283 0
DWIDTH 13 0
BBX 13 7 -1 27
BITMAP
E038
F078
F8F0
7FF0
7FE0
3FE0
0F80
ENDCHAR
STARTCHAR 02D9
ENCODING 729
SWIDTH 283 0
DWIDTH 13 0
BBX 5 5 4 28
BITMAP
F8
F8
F8
F8
F8
ENDCHAR
STARTCHAR 02DA
ENCODING 730
SWIDTH 283 0
DWIDTH 13 0
BBX 9 11 1 26
BITMAP
3C00
7F00
FF00
E380
C180
C180
C180
E380
FF00
7F00
3C00
ENDCHAR
STARTCHAR 02DB
ENCODING 731
SWIDTH 283 0
DWIDTH 13 0
BBX 8 10 1 -10
BITMAP
1C
38
70
70
F0
F0
F1
7F
7F
3E
ENDCHAR
STARTCHAR 02DC
ENCODING 732
SWIDTH 283 0
DWIDTH 13 0
BBX 14 7 0 26
BITMAP
3C0C
7E1C
FF9C
FFFC
E7F8
E1F8
C0F0
ENDCHAR
STARTCHAR 02DD
ENCODING 733
SWIDTH 283 0
DWIDTH 13 0
BBX 16 7 -2 26
BITMAP
0F8F
1F1F
1E3E
3C3C
7878
70F0
E0E0
ENDCHAR
STARTCHAR 037E
ENCODING 894
SWIDTH 283 0
DWIDTH 13 0
BBX 5 30 4 -7
BITMAP
F8
F8
F8
F8
F8
F8
00
00
00
00
00
00
00
00
00
00
00
F8
F8
F8
F8
F8
F8
38
38
38
70
70
70
E0
ENDCHAR
STARTCHAR 0384
ENCODING 900
SWIDTH 283 0
DWIDTH 13 0
BBX 6 7 3 27
BITMAP
3C
7C
78
78
70
60
E0
ENDCHAR
STARTCHAR 0385
ENCODING 901
SWIDTH 283 0
DWIDTH 13 0
BBX 10 9 1 27
BITMAP
0F00
0E00
0E00
EFC0
EFC0
EDC0
EDC0
EDC0
0C00
ENDCHAR
STARTCHAR 0386
ENCODING 902
SWIDTH 589 0
DWIDTH 27 0
BBX 26 32 0 0
BITMAP
3C3F8000
7C3F8000
783FC000
787FC000
707FC000
607FC000
E0FBE000
00FBE000
00FBE000
00F9F000
01F1F000
01F1F000
01F0F000
03E0F800
03E0F800
03E0F800
03E07C00
07C07C00
07C07C00
07FFFE00
0FFFFE00
0FFFFE00
0FFFFE00
1FFFFF00
1F801F00
1F001F00
1F001F80
3F000F80
3E000F80
3E000F80
7E000FC0
7E0007C0
ENDCHAR
STARTCHAR 0387
ENCODING 903
SWIDTH 283 0
DWIDTH 13 0
BBX 5 7 4 12
BITMAP
F8
F8
F8
F8
F8
F8
F8
ENDCHAR
STARTCHAR 0388
ENCODING 904
SWIDTH 698 0
DWIDTH 32 0
BBX 33 32 0 0
BITMAP
3C0FFFFF00
7C0FFFFF00
780FFFFF00
780FFFFF00
700FFFFF00
600F800000
E00F800000
000F800000
000F800000
000F800000
000F800000
000F800000
000F800000
000FFFFE00
000FFFFE00
000FFFFE00
000FFFFE00
000FFFFE00
000F800000
000F800000
000F800000
000F800000
000F800000
000F800000
000F800000
000F800000
000F800000
000FFFFF80
000FFFFF80
000FFFFF80
000FFFFF80
000FFFFF80
ENDCHAR
STARTCHAR 0389
ENCODING 905
SWIDTH 741 0
DWIDTH 34 0
BBX 33 32 0 0
BITMAP
3C1F001F80
7C1F001F80
781F001F80
781F001F80
701F001F80
601F001F80
E01F001F80
001F001F80
001F001F80
001F001F80
001F001F80
001F001F80
001F001F80
001FFFFF80
001FFFFF80
001FFFFF80
001FFFFF80
001FFFFF80
001F001F80
001F001F80
001F001F80
001F001F80
001F001F80
001F001F80
001F001F80
001F001F80
001F001F80
001F001F80
001F001F80
001F001F80
001F001F80
001F001F80
ENDCHAR
STARTCHAR 038A
ENCODING 906
SWIDTH 392 0
DWIDTH 18 0
BBX 17 32 0 0
BITMAP
3C0F80
7C0F80
780F80
780F80
700F80
600F80
E00F80
000F80
000F80
000F80
000F80
000F80
000F80
000F80
000F80
000F80
000F80
000F80
000F80
000F80
000F80
000F80
000F80
000F80
000F80
000F80
000F80
000F80
000F80
000F80
000F80
000F80
ENDCHAR
STARTCHAR 038C
ENCODING 908
SWIDTH 676 0
DWIDTH 31 0
BBX 32 32 -2 0
BITMAP
3C01FC00
7C0FFF80
781FFFE0
783FFFF0
707FFFF0
60FF07F8
E1FC01FC
01F800FC
01F8007E
03F0007E
03F0007E
03E0003E
03E0003F
03E0003F
03E0003F
03E0003F
03E0003F
03E0003F
03E0003F
03E0003F
03F0003E
03F0007E
03F0007E
01F8007E
01F800FC
00FC01FC
00FF07F8
007FFFF0
003FFFE0
001FFFC0
000FFF80
0001FC00
ENDCHAR
STARTCHAR 038E
ENCODING 910
SWIDTH 763 0
DWIDTH 35 0
BBX 34 32 2 0
BITMAP
3C1F8007C0
7C1F800FC0
780F800F80
780FC01F80
7007C01F00
6007E03F00
E003E03E00
0003F07E00
0001F07C00
0001F8FC00
0000F8F800
0000FCF800
00007DF000
00007DF000
00003FF000
00003FE000
00001FE000
00001FC000
00000FC000
00000F8000
00000F8000
00000F8000
00000F8000
00000F8000
00000F8000
00000F8000
00000F8000
00000F8000
00000F8000
00000F8000
00000F8000
00000F8000
ENDCHAR
STARTCHAR 038F
ENCODING 911
SWIDTH 698 0
DWIDTH 32 0
BBX 33 32 -2 0
BITMAP
3C01FE0000
7C0FFFC000
781FFFE000
783FFFF800
707FFFF800
60FF03FC00
E1FE00FE00
01F8007E00
01F8007F00
03F0003F00
03F0003F00
03F0003F00
03F0001F00
03F0001F00
03E0001F00
03F0001F00
03F0001F00
03F0003F00
01F0003F00
01F0003E00
01F8007E00
00FC007C00
00FC00FC00
007E01F800
003F87F000
001FCFE000
0007CFC000
03FFCFFF80
03FFCFFF80
03FFCFFF80
03FFCFFF80
03FFCFFF80
ENDCHAR
STARTCHAR 0390
ENCODING 912
SWIDTH 218 0
DWIDTH 10 0
BBX 12 36 -3 0
BITMAP
0F00
0E00
0E00
EFC0
EFC0
EDC0
EDC0
EDC0
0C00
0000
0000
0000
03E0
03E0
03E0
03E0
03E0
03E0
03E0
03E0
03E0
03E0
03E0
03E0
03E0
03E0
03E0
03E0
03E0
03E0
03E0
03E0
03E0
03E0
03E0
03F0
ENDCHAR
STARTCHAR 0391
ENCODING 913
SWIDTH 589 0
DWIDTH 27 0
BBX 25 32 1 0
BITMAP
007F0000
007F0000
007F8000
00FF8000
00FF8000
00FF8000
01F7C000
01F7C000
01F7C000
01F3E000
03E3E000
03E3E000
03E1E000
07C1F000
07C1F000
07C1F000
07C0F800
0F80F800
0F80F800
0FFFFC00
1FFFFC00
1FFFFC00
1FFFFC00
3FFFFE00
3F003E00
3E003E00
3E003F00
7E001F00
7C001F00
7C001F00
FC001F80
FC000F80
ENDCHAR
STARTCHAR 0392
ENCODING 914
SWIDTH 589 0
DWIDTH 27 0
BBX 23 32 3 0
BITMAP
FFFE00
FFFFC0
FFFFE0
FFFFF0
FFFFF0
F803F8
F801F8
F801F8
F800F8
F800F8
F801F8
F801F0
F803F0
FFFFE0
FFFFC0
FFFF80
FFFFE0
FFFFF8
F801F8
F800FC
F8007C
F8007C
F8007C
F8007E
F8007C
F800FC
F801FC
FFFFFC
FFFFF8
FFFFF0
FFFFE0
FFFF00
ENDCHAR
STARTCHAR 0393
ENCODING 915
SWIDTH 501 0
DWIDTH 23 0
BBX 19 32 3 0
BITMAP
FFFFE0
FFFFE0
FFFFE0
FFFFE0
FFFFE0
F80000
F80000
F80000
F80000
F80000
F80000
F80000
F80000
F80000
F80000
F80000
F80000
F80000
F80000
F80000
F80000
F80000
F80000
F80000
F80000
F80000
F80000
F80000
F80000
F80000
F80000
F80000
ENDCHAR
STARTCHAR 0394
ENCODING 916
SWIDTH 589 0
DWIDTH 27 0
BBX 24 32 2 0
BITMAP
00FE00
00FE00
00FF00
01FF00
01FF00
01EF80
03EF80
03EF80
03EF80
07C7C0
07C7C0
07C7C0
0FC3E0
0F83E0
0F83E0
1F81F0
1F01F0
1F01F0
3F01F8
3E00F8
3E00F8
7E00FC
7E007C
7C007C
FC007E
FC003E
F8003E
FFFFFF
FFFFFF
FFFFFF
FFFFFF
FFFFFF
ENDCHAR
STARTCHAR 0395
ENCODING 917
SWIDTH 545 0
DWIDTH 25 0
BBX 21 32 3 0
BITMAP
FFFFF0
FFFFF0
FFFFF0
FFFFF0
FFFFF0
F80000
F80000
F80000
F80000
F80000
F80000
F80000
F80000
FFFFE0
FFFFE0
FFFFE0
FFFFE0
FFFFE0
F80000
F80000
F80000
F80000
F80000
F80000
F80000
F80000
F80000
FFFFF8
FFFFF8
FFFFF8
FFFFF8
FFFFF8
ENDCHAR
STARTCHAR 0396
ENCODING 918
SWIDTH 501 0
DWIDTH 23 0
BBX 21 32 1 0
BITMAP
3FFFF0
3FFFF0
3FFFF0
3FFFF0
3FFFF0
0003F0
0007E0
0007E0
000FC0
001F80
001F80
003F00
007E00
007E00
00FC00
01F800
01F800
03F000
03F000
07E000
0FC000
0FC000
1F8000
3F0000
3F0000
7E0000
7E0000
FFFFF8
FFFFF8
FFFFF8
FFFFF8
FFFFF8
ENDCHAR
STARTCHAR 0397
ENCODING 919
SWIDTH 589 0
DWIDTH 27 0
BBX 22 32 3 0
BITMAP
F800FC
F800FC
F800FC
F800FC
F800FC
F800FC
F800FC
F800FC
F800FC
F800FC
F800FC
F800FC
F800FC
FFFFFC
FFFFFC
FFFFFC
FFFFFC
FFFFFC
F800FC
F800FC
F800FC
F800FC
F800FC
F800FC
F800FC
F800FC
F800FC
F800FC
F800FC
F800FC
F800FC
F800FC
ENDCHAR
STARTCHAR 0398
ENCODING 920
SWIDTH 632 0
DWIDTH 29 0
BBX 26 32 2 0
BITMAP
007F0000
03FFE000
07FFF800
0FFFFC00
1FFFFE00
3FC1FE00
7F007F00
7E003F00
7E001F80
FC001F80
FC000F80
F8000F80
F8000FC0
F9FFCFC0
F9FFCFC0
F9FFCFC0
F9FFCFC0
F9FFCFC0
F8000FC0
F8000F80
FC000F80
FC001F80
FC001F80
7E001F00
7E003F00
3F007F00
3FC1FE00
1FFFFC00
0FFFF800
07FFF000
03FFE000
007F0000
ENDCHAR
STARTCHAR 0399
ENCODING 921
SWIDTH 218 0
DWIDTH 10 0
BBX 5 32 3 0
BITMAP
F8
F8
F8
F8
F8
F8
F8
F8
F8
F8
F8
F8
F8
F8
F8
F8
F8
F8
F8
F8
F8
F8
F8
F8
F8
F8
F8
F8
F8
F8
F8
F8
ENDCHAR
STARTCHAR 039A
ENCODING 922
SWIDTH 589 0
DWIDTH 27 0
BBX 24 32 3 0
BITMAP
F800FE
F801FC
F801F8
F803F0
F807E0
F80FE0
F81FC0
F81F80
F83F00
F87E00
F8FE00
F9FC00
F9F800
FBF000
FFF000
FFF800
FFFC00
FFFC00
FE7E00
FC7F00
F83F00
F81F80
F81FC0
F80FC0
F807E0
F807F0
F803F0
F801F8
F801FC
F800FC
F8007E
F8007F
ENDCHAR
STARTCHAR 039B
ENCODING 923
SWIDTH 545 0
DWIDTH 25 0
BBX 25 32 0 0
BITMAP
003F0000
007F0000
007F0000
007F0000
00FF8000
00FF8000
00F78000
00F7C000
01F7C000
01F7C000
01F3C000
03E3E000
03E3E000
03E3E000
07E1F000
07C1F000
07C1F000
07C1F800
0FC0F800
0F80F800
0F80F800
1F80FC00
1F007C00
1F007C00
3F007E00
3F003E00
3E003E00
3E003F00
7E003F00
7E001F00
7C001F00
FC001F80
ENDCHAR
STARTCHAR 039C
ENCODING 924
SWIDTH 676 0
DWIDTH 31 0
BBX 26 32 3 0
BITMAP
FE001FC0
FE003FC0
FE003FC0
FF003FC0
FF003FC0
FF007FC0
FF007FC0
FF807FC0
F7807FC0
F780F7C0
F7C0F7C0
F7C0F7C0
F3C1F7C0
F3C1F7C0
F3E1E7C0
F3E1E7C0
F1E3E7C0
F1E3E7C0
F1F3C7C0
F1F3C7C0
F0F7C7C0
F0F787C0
F0F787C0
F07F87C0
F07F87C0
F07F07C0
F07F07C0
F03F07C0
F03F07C0
F03E07C0
F03E07C0
F01E07C0
ENDCHAR
STARTCHAR 039D
ENCODING 925
SWIDTH 589 0
DWIDTH 27 0
BBX 22 32 3 0
BITMAP
FC007C
FC007C
FE007C
FE007C
FF007C
FF007C
FF807C
FF807C
FFC07C
F7C07C
F7E07C
F3E07C
F3E07C
F1F07C
F1F07C
F0F87C
F0F87C
F07C7C
F07C7C
F03E7C
F03E7C
F03F7C
F01F7C
F01FFC
F00FFC
F00FFC
F007FC
F007FC
F003FC
F003FC
F001FC
F001FC
ENDCHAR
STARTCHAR 039E
ENCODING 926
SWIDTH 523 0
DWIDTH 24 0
BBX 21 32 2 0
BITMAP
FFFFF0
FFFFF0
FFFFF0
FFFFF0
FFFFF0
000000
000000
000000
000000
000000
000000
000000
000000
3FFFC0
3FFFC0
3FFFC0
3FFFC0
3FFFC0
000000
000000
000000
000000
000000
000000
000000
000000
000000
FFFFF8
FFFFF8
FFFFF8
FFFFF8
FFFFF8
ENDCHAR
STARTCHAR 039F
ENCODING 927
SWIDTH 632 0
DWIDTH 29 0
BBX 26 32 2 0
BITMAP
007F0000
03FFE000
07FFF800
0FFFFC00
1FFFFC00
3FC1FE00
7F007F00
7E003F00
7E001F80
FC001F80
FC001F80
F8000F80
F8000FC0
F8000FC0
F8000FC0
F8000FC0
F8000FC0
F8000FC0
F8000FC0
F8000FC0
FC000F80
FC001F80
FC001F80
7E001F80
7E003F00
3F007F00
3FC1FE00
1FFFFC00
0FFFF800
07FFF000
03FFE000
007F0000
ENDCHAR
STARTCHAR 03A0
ENCODING 928
SWIDTH 589 0
DWIDTH 27 0
BBX 22 32 3 0
BITMAP
FFFFFC
FFFFFC
FFFFFC
FFFFFC
FFFFFC
F800FC
F800FC
F800FC
F800FC
F800FC
F800FC
F800FC
F800FC
F800FC
F800FC
F800FC
F800FC
F800FC
F800FC
F800FC
F800FC
F800FC
F800FC
F800FC
F800FC
F800FC
F800FC
F800FC
F800FC
F800FC
F800FC
F800FC
ENDCHAR
STARTCHAR 03A1
ENCODING 929
SWIDTH 545 0
DWIDTH 25 0
BBX 21 32 3 0
BITMAP
FFFE00
FFFF80
FFFFC0
FFFFE0
FFFFF0
F807F0
F803F0
F801F8
F801F8
F801F8
F801F8
F801F8
F801F8
F801F8
F803F0
F807F0
FFFFE0
FFFFE0
FFFFC0
FFFF80
FFFE00
F80000
F80000
F80000
F80000
F80000
F80000
F80000
F80000
F80000
F80000
F80000
ENDCHAR
STARTCHAR 03A3
ENCODING 931
SWIDTH 501 0
DWIDTH 23 0
BBX 20 32 2 0
BITMAP
FFFFC0
FFFFC0
FFFFC0
FFFFC0
FFFFC0
FC0000
7E0000
3F0000
3F0000
1F8000
0FC000
07E000
03E000
03F000
01F000
00F000
01F000
03F000
03E000
07E000
0FC000
1F8000
1F0000
3F0000
7E0000
7C0000
FC0000
FFFFF0
FFFFF0
FFFFF0
FFFFF0
FFFFF0
ENDCHAR
STARTCHAR 03A4
ENCODING 932
SWIDTH 501 0
DWIDTH 23 0
BBX 23 32 0 0
BITMAP
FFFFFE
FFFFFE
FFFFFE
FFFFFE
FFFFFE
007C00
007C00
007C00
007C00
007C00
007C00
007C00
007C00
007C00
007C00
007C00
007C00
007C00
007C00
007C00
007C00
007C00
007C00
007C00
007C00
007C00
007C00
007C00
007C00
007C00
007C00
007C00
ENDCHAR
STARTCHAR 03A5
ENCODING 933
SWIDTH 545 0
DWIDTH 25 0
BBX 23 32 1 0
BITMAP
FC003E
FC007E
7C007C
7E00FC
3E00F8
3F01F8
1F01F0
1F83F0
0F83E0
0FC7E0
07C7C0
07E7C0
03EF80
03EF80
01FF80
01FF00
00FF00
00FE00
007E00
007C00
007C00
007C00
007C00
007C00
007C00
007C00
007C00
007C00
007C00
007C00
007C00
007C00
ENDCHAR
STARTCHAR 03A6
ENCODING 934
SWIDTH 676 0
DWIDTH 31 0
BBX 29 32 1 0
BITMAP
000F8000
000F8000
000F8000
01FFF800
07FFFF00
0FFFFF80
1FFFFFC0
3FFFFFE0
7F8F8FE0
7E0F87F0
7E0F83F0
7C0F81F0
FC0F81F8
FC0F81F8
FC0F81F8
FC0F81F8
FC0F81F8
FC0F81F8
FC0F81F0
7C0F81F0
7E0F83F0
7F0F87F0
3F8F8FE0
3FFFFFE0
1FFFFFC0
0FFFFF80
07FFFF00
01FFF800
000F8000
000F8000
000F8000
000F8000
ENDCHAR
STARTCHAR 03A7
ENCODING 935
SWIDTH 545 0
DWIDTH 25 0
BBX 24 32 1 0
BITMAP
FC007E
7E007C
7E00FC
3F00F8
1F01F8
1F81F0
0F83F0
0FC3E0
07C7E0
07EFC0
03EFC0
03FF80
01FF80
01FF00
00FF00
00FE00
00FF00
01FF00
01FF80
03FF80
07EFC0
07E7C0
0FC7E0
0F83E0
1F83F0
1F01F0
3F01F8
3E00F8
7E00FC
7C007E
FC007E
F8003F
ENDCHAR
STARTCHAR 03A8
ENCODING 936
SWIDTH 676 0
DWIDTH 31 0
BBX 27 32 2 0
BITMAP
F81F03E0
F81F03E0
F81F03E0
F81F03E0
F81F03E0
F81F03E0
F81F03E0
F81F03E0
F81F03E0
F81F03E0
F81F03E0
F81F03E0
F81F07E0
F81F07E0
FC1F07C0
FC1F0FC0
7F1F1FC0
7FFFFF80
3FFFFF80
1FFFFF00
0FFFFE00
03FFF000
001F0000
001F0000
001F0000
001F0000
001F0000
001F0000
001F0000
001F0000
001F0000
001F0000
ENDCHAR
STARTCHAR 03A9
ENCODING 937
SWIDTH 654 0
DWIDTH 30 0
BBX 27 32 2 0
BITMAP
007F8000
03FFF000
07FFF800
0FFFFE00
1FFFFE00
3FC0FF00
7F803F80
7E001F80
7E001FC0
FC000FC0
FC000FC0
FC000FC0
FC0007C0
FC0007C0
F80007C0
FC0007C0
FC0007C0
FC000FC0
7C000FC0
7C000F80
7E001F80
3F001F00
3F003F00
1F807E00
0FE1FC00
07F3F800
01F3F000
FFF3FFE0
FFF3FFE0
FFF3FFE0
FFF3FFE0
FFF3FFE0
ENDCHAR
STARTCHAR 03AA
ENCODING 938
SWIDTH 218 0
DWIDTH 10 0
BBX 12 39 -1 0
BITMAP
F070
F070
F070
F070
F070
0000
0000
0F80
0F80
0F80
0F80
0F80
0F80
0F80
0F80
0F80
0F80
0F80
0F80
0F80
0F80
0F80
0F80
0F80
0F80
0F80
0F80
0F80
0F80
0F80
0F80
0F80
0F80
0F80
0F80
0F80
0F80
0F80
0F80
ENDCHAR
STARTCHAR 03AB
ENCODING 939
SWIDTH 545 0
DWIDTH 25 0
BBX 23 39 1 0
BITMAP
01E0E0
01E0E0
01E0E0
01E0E0
01E0E0
000000
000000
FC003E
FC007E
7C007C
7E00FC
3E00F8
3F01F8
1F01F0
1F83F0
0F83E0
0FC7E0
07C7C0
07E7C0
03EF80
03EF80
01FF80
01FF00
00FF00
00FE00
007E00
007C00
007C00
007C00
007C00
007C00
007C00
007C00
007C00
007C00
007C00
007C00
007C00
007C00
ENDCHAR
STARTCHAR 03AC
ENCODING 940
SWIDTH 501 0
DWIDTH 23 0
BBX 22 34 1 0
BITMAP
000F00
001F00
001E00
001E00
001C00
001800
003800
000000
000000
000000
03E07C
0FF8F8
1FFCF8
3FFEF0
3F1EF0
7E0FF0
7C0FF0
7C07E0
7C07E0
7C07E0
7C07E0
FC03E0
FC07E0
FC07E0
7C07E0
7C07E0
7C07E0
7C0FE0
7E0FF0
3F1DF0
3FFDF0
1FF9F0
0FF0F8
07E0F8
ENDCHAR
STARTCHAR 03AD
ENCODING 941
SWIDTH 392 0
DWIDTH 18 0
BBX 16 34 1 0
BITMAP
0078
00F8
00F0
00F0
00E0
00C0
01C0
0000
0000
0000
07F0
1FFC
3FFE
3FFF
7E1E
7C04
7C00
7C00
3F00
3FF0
0FF0
0FF0
3FF0
7F00
7C00
7C00
FC00
FC04
7C0E
7E1F
7FFF
3FFE
1FFC
07F0
ENDCHAR
STARTCHAR 03AE
ENCODING 942
SWIDTH 501 0
DWIDTH 23 0
BBX 19 44 2 -10
BITMAP
000F00
001F00
001E00
001E00
001C00
001800
003800
000000
000000
000000
F83E00
F8FF80
F9FF80
7FFFC0
7FFFC0
7F0FC0
7E07E0
7E07E0
7C07E0
7C03E0
7C03E0
7C03E0
7C03E0
7C03E0
7C03E0
7C03E0
7C03E0
7C03E0
7C03E0
7C03E0
7C03E0
7C03E0
7C03E0
7C03E0
0003E0
0003E0
0003E0
0003E0
0003E0
0003E0
0003E0
0003E0
0003E0
0003E0
ENDCHAR
STARTCHAR 03AF
ENCODING 943
SWIDTH 218 0
DWIDTH 10 0
BBX 6 34 3 0
BITMAP
3C
7C
78
78
70
60
E0
00
00
00
F8
F8
F8
F8
F8
F8
F8
F8
F8
F8
F8
F8
F8
F8
F8
F8
F8
F8
F8
F8
F8
F8
F8
FC
ENDCHAR
STARTCHAR 03B0
ENCODING 944
SWIDTH 480 0
DWIDTH 22 0
BBX 18 36 2 0
BITMAP
03C000
038000
038000
3BF000
3BF000
3B7000
3B7000
3B7000
030000
000000
000000
000000
FC1F00
FC0F80
FC0F80
FC0F80
FC0FC0
FC07C0
FC07C0
FC07C0
FC07C0
FC07C0
FC07C0
FC07C0
FC07C0
FC07C0
FC07C0
FC07C0
FC0FC0
7C0FC0
7E1F80
7FFF80
3FFF00
3FFE00
1FFC00
07F000
ENDCHAR
STARTCHAR 03B1
ENCODING 945
SWIDTH 501 0
DWIDTH 23 0
BBX 22 24 1 0
BITMAP
03E07C
0FF8F8
1FFCF8
3FFEF0
3F1EF0
7E0FF0
7C0FF0
7C07E0
7C07E0
7C07E0
7C07E0
FC03E0
FC07E0
FC07E0
7C07E0
7C07E0
7C07E0
7C0FE0
7E0FF0
3F1DF0
3FFDF0
1FF9F0
0FF0F8
07E0F8
ENDCHAR
STARTCHAR 03B2
ENCODING 946
SWIDTH 501 0
DWIDTH 23 0
BBX 19 43 3 -10
BITMAP
07F000
1FFC00
3FFE00
7FFF00
7FFF00
FE1F80
FC0F80
F80F80
F80F80
F80F80
F80F80
F81F00
F81F00
F87E00
F8FE00
F8F800
F8FE00
F8FF00
F81F80
F80FC0
F807C0
F807E0
F803E0
F803E0
F803E0
F803E0
F807E0
F807C0
FE1FC0
FFFF80
FFFF80
FFFF00
F9FC00
F80000
F80000
F80000
F80000
F80000
F80000
F80000
F80000
F80000
F80000
ENDCHAR
STARTCHAR 03B3
ENCODING 947
SWIDTH 458 0
DWIDTH 21 0
BBX 21 34 0 -10
BITMAP
FC01F8
7C01F0
7C01F0
7E03F0
3E03E0
3E03E0
3E03E0
1F07C0
1F07C0
1F07C0
0F87C0
0F8F80
0F8F80
0F8F80
07CF00
07DF00
07DF00
03DE00
03DE00
03DE00
01FC00
01FC00
01FC00
00F800
00F800
01F800
01F800
01F000
01F000
01F000
03F000
03F000
03E000
03E000
ENDCHAR
STARTCHAR 03B4
ENCODING 948
SWIDTH 501 0
DWIDTH 23 0
BBX 19 33 2 0
BITMAP
3FFFC0
3FFFC0
3FFFC0
1FFFC0
0F8000
0FC000
07E000
03F000
01F800
00FC00
01FE00
07FF00
0FFF00
1F9F80
3F0FC0
7E0FC0
7C07C0
FC07E0
F807E0
F803E0
F803E0
F803E0
F803E0
F803E0
F803E0
F803E0
FC07E0
7C07C0
7E1FC0
3FFF80
3FFF00
0FFE00
03F800
ENDCHAR
STARTCHAR 03B5
ENCODING 949
SWIDTH 392 0
DWIDTH 18 0
BBX 16 24 1 0
BITMAP
07F0
1FFC
3FFE
3FFF
7E1E
7C04
7C00
7C00
3F00
3FF0
0FF0
0FF0
3FF0
7F00
7C00
7C00
FC00
FC04
7C0E
7E1F
7FFF
3FFE
1FFC
07F0
ENDCHAR
STARTCHAR 03B6
ENCODING 950
SWIDTH 370 0
DWIDTH 17 0
BBX 16 42 1 -9
BITMAP
3FFE
3FFE
3FFE
3FFE
003E
007C
00F8
00F0
01F0
03E0
03C0
07C0
0F80
0F00
1F00
1E00
3E00
3C00
3C00
7C00
7800
7800
F800
F800
F800
F800
FC00
FF00
7FC0
7FF8
3FFC
1FFE
07FE
00FF
003F
001F
000F
000F
001E
001E
001E
0004
ENDCHAR
STARTCHAR 03B7
ENCODING 951
SWIDTH 501 0
DWIDTH 23 0
BBX 19 34 2 -10
BITMAP
F83E00
F8FF80
F9FF80
7FFFC0
7FFFC0
7F0FC0
7E07E0
7E07E0
7C07E0
7C03E0
7C03E0
7C03E0
7C03E0
7C03E0
7C03E0
7C03E0
7C03E0
7C03E0
7C03E0
7C03E0
7C03E0
7C03E0
7C03E0
7C03E0
0003E0
0003E0
0003E0
0003E0
0003E0
0003E0
0003E0
0003E0
0003E0
0003E0
ENDCHAR
STARTCHAR 03B8
ENCODING 952
SWIDTH 436 0
DWIDTH 20 0
BBX 17 33 2 0
BITMAP
03E000
0FF800
1FFC00
3FFC00
3E3E00
7C3E00
7C1F00
F81F00
F81F00
F81F00
F81F00
F80F80
F80F80
F80F80
FFFF80
FFFF80
FFFF80
FFFF80
F80F80
F80F80
F80F80
F81F00
F81F00
F81F00
F81F00
781F00
7C1E00
7C3E00
3E7E00
3FFC00
1FF800
0FF000
03E000
ENDCHAR
STARTCHAR 03B9
ENCODING 953
SWIDTH 218 0
DWIDTH 10 0
BBX 6 24 3 0
BITMAP
F8
F8
F8
F8
F8
F8
F8
F8
F8
F8
F8
F8
F8
F8
F8
F8
F8
F8
F8
F8
F8
F8
F8
FC
ENDCHAR
STARTCHAR 03BA
ENCODING 954
SWIDTH 458 0
DWIDTH 21 0
BBX 18 24 3 0
BITMAP
F80F80
F81F00
F83F00
F83E00
F87C00
F8FC00
F8F800
F9F000
FBF000
FBE000
FFE000
FFE000
FFF000
FFF000
FCF800
F8F800
F87C00
F87C00
F83E00
F83F00
F81F00
F81F80
F80F80
F80FC0
ENDCHAR
STARTCHAR 03BB
ENCODING 955
SWIDTH 458 0
DWIDTH 21 0
BBX 20 35 0 0
BITMAP
1F0000
3FC000
1FC000
1FE000
1FE000
03F000
01F000
01F000
00F800
00F800
00F800
007C00
007C00
00FC00
00FE00
00FE00
01FE00
01FE00
03FF00
03FF00
03CF00
07CF80
07CF80
07CF80
0F8F80
0F87C0
1F87C0
1F07C0
1F07E0
3F03E0
3E03E0
7E03E0
7E03F0
7C01F0
FC01F0
ENDCHAR
STARTCHAR 03BC
ENCODING 956
SWIDTH 501 0
DWIDTH 23 0
BBX 18 32 3 -8
BITMAP
F80F80
F80F80
F80F80
F80F80
F80F80
F80F80
F80F80
F80F80
F80F80
F80F80
F80F80
F80F80
F80F80
F80F80
F80F80
F80F80
F81F80
FC1F80
FE3F80
FFFF80
FFFF80
FFEF80
FFEF80
FBC7C0
F80000
F80000
F80000
F80000
F80000
F80000
F80000
F80000
ENDCHAR
STARTCHAR 03BD
ENCODING 957
SWIDTH 458 0
DWIDTH 21 0
BBX 19 24 0 0
BITMAP
FC07E0
FC03E0
7C03E0
7C03E0
7E03E0
3E03E0
3E03E0
3E03E0
1F03E0
1F03E0
1F03E0
1F07C0
0F87C0
0F87C0
0F8F80
078F80
07DF00
07DF00
03FE00
03FE00
03FC00
03FC00
01F800
01F000
ENDCHAR
STARTCHAR 03BE
ENCODING 958
SWIDTH 370 0
DWIDTH 17 0
BBX 16 42 1 -9
BITMAP
3FFC
3FFC
3FFC
3FFC
03E0
0780
0F00
1E00
1E00
1E00
1F00
1F80
0FF0
07F8
01F8
03F8
07F8
1FC0
3F00
3C00
7C00
7800
7800
F800
F800
F800
FC00
FF00
7FC0
7FF8
3FFC
1FFE
07FE
00FF
003F
001F
000F
000F
001E
001E
001E
0004
ENDCHAR
STARTCHAR 03BF
ENCODING 959
SWIDTH 501 0
DWIDTH 23 0
BBX 21 24 1 0
BITMAP
01FC00
07FF00
0FFF80
1FFFC0
3F87E0
3E03E0
7E03F0
7C01F0
7C01F0
7C01F0
7C01F0
FC01F8
FC01F8
7C01F8
7C01F0
7C01F0
7C01F0
7E03F0
3E03E0
3F8FE0
1FFFC0
0FFF80
07FF00
01FC00
ENDCHAR
STARTCHAR 03C0
ENCODING 960
SWIDTH 632 0
DWIDTH 29 0
BBX 27 24 1 0
BITMAP
FFFFFFE0
FFFFFFE0
FFFFFFE0
FFFFFFE0
87C07C00
07C07C00
07C07C00
07C07C00
07C07C00
07C07C00
07C07C00
07C07C00
07C07C00
07C07C00
07C07C00
0FC07C00
0FC07C00
0F807C00
0F807C00
0F807C00
0F807FC0
0F807FC0
1F803FC0
1F001FC0
ENDCHAR
STARTCHAR 03C1
ENCODING 961
SWIDTH 501 0
DWIDTH 23 0
BBX 20 34 2 -10
BITMAP
01F800
0FFE00
1FFF00
3FFF80
3F1FC0
7E07C0
7C07E0
7C03E0
FC03E0
FC03F0
FC03F0
FC03F0
FC03F0
FC03F0
FC03F0
FC03F0
FC03E0
FC03E0
FE07E0
FF0FC0
FFFFC0
FFFF80
FDFF00
FC7C00
FC0000
FC0000
FC0000
FC0000
FC0000
FC0000
FC0000
FC0000
FC0000
FC0000
ENDCHAR
STARTCHAR 03C2
ENCODING 962
SWIDTH 436 0
DWIDTH 20 0
BBX 17 33 1 -9
BITMAP
01F800
03FE00
0FFF00
0FFF00
1F8F00
3F0200
3E0000
3E0000
7C0000
7C0000
7C0000
7C0000
780000
F80000
F80000
F80000
7C0000
7C0000
7E0000
7FC000
3FF000
3FFC00
1FFF00
07FF00
01FF80
003F80
000F80
000780
000780
000780
000F00
000F00
000700
ENDCHAR
STARTCHAR 03C3
ENCODING 963
SWIDTH 567 0
DWIDTH 26 0
BBX 24 24 1 0
BITMAP
00FFFF
03FFFF
0FFFFF
1FFFFF
3FC7C0
3F03C0
7E03E0
7E03E0
7C01F0
7C01F0
7C01F0
FC01F0
FC01F8
7C01F8
7C01F8
7C01F0
7C01F0
7E03F0
3E03F0
3F07E0
1FFFE0
0FFFC0
07FF00
01FC00
ENDCHAR
STARTCHAR 03C4
ENCODING 964
SWIDTH 370 0
DWIDTH 17 0
BBX 16 24 0 0
BITMAP
7FFF
FFFF
FFFF
FFFF
87E0
07E0
07E0
07E0
07E0
07E0
07E0
07E0
07E0
07E0
07E0
07E0
07E0
07E0
07E0
03E0
03FC
03FC
01FE
00FC
ENDCHAR
STARTCHAR 03C5
ENCODING 965
SWIDTH 480 0
DWIDTH 22 0
BBX 18 24 2 0
BITMAP
FC1F00
FC0F80
FC0F80
FC0F80
FC0FC0
FC07C0
FC07C0
FC07C0
FC07C0
FC07C0
FC07C0
FC07C0
FC07C0
FC07C0
FC07C0
FC07C0
FC0FC0
7C0FC0
7E1F80
7FFF80
3FFF00
3FFE00
1FFC00
07F000
ENDCHAR
STARTCHAR 03C6
ENCODING 966
SWIDTH 589 0
DWIDTH 27 0
BBX 25 35 1 -10
BITMAP
0183E000
078FF800
0F8FFC00
1F9FFE00
3F1F3E00
3E3E1E00
7E3E1F00
7C3E1F00
7C3E1F00
7C3E1F00
7C3E1F00
FC3E1F80
FC3E1F80
FC3E1F00
7C3E1F00
7C3E1F00
7C3E1F00
7C3E1F00
7E3E3F00
3E3E3E00
3FBEFE00
1FFFFC00
0FFFF800
07FFF000
01FF8000
003E0000
003E0000
003E0000
003E0000
003E0000
003E0000
003E0000
003E0000
003E0000
003E0000
ENDCHAR
STARTCHAR 03C7
ENCODING 967
SWIDTH 480 0
DWIDTH 22 0
BBX 21 35 0 -10
BITMAP
3C0000
FE01F8
7F01F0
7F83F0
7F83E0
0F83E0
07C7C0
07C7C0
03EF80
03EF80
03EF80
01FF00
01FF00
00FE00
00FE00
00FC00
00FC00
00FC00
00FE00
01FE00
01FF00
03FF00
03EF00
07CF80
07CF80
0FC7C0
0F87C0
0F87C0
1F03E0
1F03E0
3F03F0
3E01F0
7E01F8
7C01F8
FC00F8
ENDCHAR
STARTCHAR 03C8
ENCODING 968
SWIDTH 610 0
DWIDTH 28 0
BBX 24 40 2 -10
BITMAP
003E00
003E00
003E00
003E00
003E00
003E00
F83E1F
F83E1F
F83E1F
F83E1F
F83E1F
F83E1F
F83E1F
F83E1F
F83E1F
F83E1F
F83E1F
F83E1F
F83E1F
F83E1F
F83E1F
FC3E1F
7C3E1F
7C3E1F
7C3E3E
7F3E7E
3FFFFE
1FFFFC
0FFFF8
03FFE0
003E00
003E00
003E00
003E00
003E00
003E00
003E00
003E00
003E00
003E00
ENDCHAR
STARTCHAR 03C9
ENCODING 969
SWIDTH 698 0
DWIDTH 32 0
BBX 29 24 1 0
BITMAP
00C00C00
03C00F00
0FC00F80
1FC01FC0
1F8007E0
3F0003F0
3E0001F0
7E0001F8
7C0000F8
7C0780F8
7C0780F8
FC0780F8
FC0780F8
FC0780F8
7C0780F8
7C0F80F8
7C0FC0F8
7C0FC0F8
7E0FC1F8
3F1FE3F0
3FFDFFF0
1FFCFFE0
0FF87FC0
03E01F00
ENDCHAR
STARTCHAR 03CA
ENCODING 970
SWIDTH 218 0
DWIDTH 10 0
BBX 12 32 -1 0
BITMAP
F0F0
F0F0
F0F0
F0F0
F0F0
0000
0000
0000
0F80
0F80
0F80
0F80
0F80
0F80
0F80
0F80
0F80
0F80
0F80
0F80
0F80
0F80
0F80
0F80
0F80
0F80
0F80
0F80
0F80
0F80
0F80
0FC0
ENDCHAR
STARTCHAR 03CB
ENCODING 971
SWIDTH 480 0
DWIDTH 22 0
BBX 18 32 2 0
BITMAP
1E1E00
1E1E00
1E1E00
1E1E00
1E1E00
000000
000000
000000
FC1F00
FC0F80
FC0F80
FC0F80
FC0FC0
FC07C0
FC07C0
FC07C0
FC07C0
FC07C0
FC07C0
FC07C0
FC07C0
FC07C0
FC07C0
FC07C0
FC0FC0
7C0FC0
7E1F80
7FFF80
3FFF00
3FFE00
1FFC00
07F000
ENDCHAR
STARTCHAR 03CC
ENCODING 972
SWIDTH 501 0
DWIDTH 23 0
BBX 21 34 1 0
BITMAP
000F00
001F00
001E00
001E00
001C00
001800
003800
000000
000000
000000
01FC00
07FF00
0FFF80
1FFFC0
3F87E0
3E03E0
7E03F0
7C01F0
7C01F0
7C01F0
7C01F0
FC01F8
FC01F8
7C01F8
7C01F0
7C01F0
7C01F0
7E03F0
3E03E0
3F8FE0
1FFFC0
0FFF80
07FF00
01FC00
ENDCHAR
STARTCHAR 03CD
ENCODING 973
SWIDTH 480 0
DWIDTH 22 0
BBX 18 34 2 0
BITMAP
007800
00F800
00F000
00F000
00E000
00C000
01C000
000000
000000
000000
FC1F00
FC0F80
FC0F80
FC0F80
FC0FC0
FC07C0
FC07C0
FC07C0
FC07C0
FC07C0
FC07C0
FC07C0
FC07C0
FC07C0
FC07C0
FC07C0
FC0FC0
7C0FC0
7E1F80
7FFF80
3FFF00
3FFE00
1FFC00
07F000
ENDCHAR
STARTCHAR 03CE
ENCODING 974
SWIDTH 698 0
DWIDTH 32 0
BBX 29 34 1 0
BITMAP
00003C00
00007C00
00007800
00007800
00007000
00006000
0000E000
00000000
00000000
00000000
00C00C00
03C00F00
0FC00F80
1FC01FC0
1F8007E0
3F0003F0
3E0001F0
7E0001F8
7C0000F8
7C0780F8
7C0780F8
FC0780F8
FC0780F8
FC0780F8
7C0780F8
7C0F80F8
7C0FC0F8
7C0FC0F8
7E0FC1F8
3F1FE3F0
3FFDFFF0
1FFCFFE0
0FF87FC0
03E01F00
ENDCHAR
STARTCHAR 0401
ENCODING 1025
SWIDTH 545 0
DWIDTH 25 0
BBX 21 39 3 0
BITMAP
078380
078380
078380
078380
078380
000000
000000
FFFFF0
FFFFF0
FFFFF0
FFFFF0
FFFFF0
F80000
F80000
F80000
F80000
F80000
F80000
F80000
F80000
FFFFE0
FFFFE0
FFFFE0
FFFFE0
FFFFE0
F80000
F80000
F80000
F80000
F80000
F80000
F80000
F80000
F80000
FFFFF8
FFFFF8
FFFFF8
FFFFF8
FFFFF8
ENDCHAR
STARTCHAR 0402
ENCODING 1026
SWIDTH 720 0
DWIDTH 33 0
BBX 31 32 0 0
BITMAP
FFFFFE00
FFFFFE00
FFFFFE00
FFFFFE00
FFFFFE00
007C0000
007C0000
007C0000
007C0000
007C0000
007C1FC0
007CFFF0
007FFFF8
007FFFFC
007FFFFE
007FC0FE
007C007E
007C003E
007C003E
007C003E
007C003E
007C003E
007C003E
007C003E
007C003E
007C183E
007C3C7E
007C7FFE
007CFFFC
007C7FFC
007C3FF0
007C0FE0
ENDCHAR
STARTCHAR 0403
ENCODING 1027
SWIDTH 501 0
DWIDTH 23 0
BBX 19 40 3 0
BITMAP
001F00
003E00
007C00
00F800
01F000
01C000
000000
000000
FFFFE0
FFFFE0
FFFFE0
FFFFE0
FFFFE0
F80000
F80000
F80000
F80000
F80000
F80000
F80000
F80000
F80000
F80000
F80000
F80000
F80000
F80000
F80000
F80000
F80000
F80000
F80000
F80000
F80000
F80000
F80000
F80000
F80000
F80000
F80000
ENDCHAR
STARTCHAR 0404
ENCODING 1028
SWIDTH 589 0
DWIDTH 27 0
BBX 24 32 2 0
BITMAP
00FF00
03FFC0
0FFFF0
1FFFF8
3FFFFC
3FC1FC
7F007E
7E003E
FC003E
FC0010
F80000
F80000
F80000
FFFE00
FFFE00
FFFE00
FFFE00
FFFE00
F80000
F80000
F80000
FC0018
FC001E
7C003F
7E007E
3F00FE
3FC1FC
1FFFFC
0FFFF8
07FFF0
03FFC0
007F00
ENDCHAR
STARTCHAR 0405
ENCODING 1029
SWIDTH 545 0
DWIDTH 25 0
BBX 23 32 1 0
BITMAP
01FF00
07FFC0
0FFFF0
1FFFF0
3FFFF8
3F83F8
3E00FC
7E00FC
7E0070
7E0000
7E0000
3F0000
3FE000
3FFC00
1FFF80
0FFFE0
03FFF8
00FFF8
000FFC
0001FC
0000FC
00007E
00007E
FC007E
FC007E
7E007C
7F81FC
3FFFFC
3FFFF8
1FFFF0
07FFE0
01FF00
ENDCHAR
STARTCHAR 0406
ENCODING 1030
SWIDTH 218 0
DWIDTH 10 0
BBX 5 32 3 0
BITMAP
F8
F8
F8
F8
F8
F8
F8
F8
F8
F8
F8
F8
F8
F8
F8
F8
F8
F8
F8
F8
F8
F8
F8
F8
F8
F8
F8
F8
F8
F8
F8
F8
ENDCHAR
STARTCHAR 0407
ENCODING 1031
SWIDTH 218 0
DWIDTH 10 0
BBX 12 39 -1 0
BITMAP
F070
F070
F070
F070
F070
0000
0000
0F80
0F80
0F80
0F80
0F80
0F80
0F80
0F80
0F80
0F80
0F80
0F80
0F80
0F80
0F80
0F80
0F80
0F80
0F80
0F80
0F80
0F80
0F80
0F80
0F80
0F80
0F80
0F80
0F80
0F80
0F80
0F80
ENDCHAR
STARTCHAR 0408
ENCODING 1032
SWIDTH 458 0
DWIDTH 21 0
BBX 17 32 1 0
BITMAP
01FF80
01FF80
01FF80
01FF80
01FF80
000F80
000F80
000F80
000F80
000F80
000F80
000F80
000F80
000F80
000F80
000F80
000F80
000F80
000F80
000F80
000F80
000F80
180F80
F80F80
FC0F80
FC1F80
FE3F80
7FFF00
7FFF00
3FFE00
1FFC00
07F000
ENDCHAR
STARTCHAR 0409
ENCODING 1033
SWIDTH 894 0
DWIDTH 41 0
BBX 40 32 0 0
BITMAP
03FFFE0000
03FFFE0000
03FFFE0000
03FFFE0000
03FFFE0000
03E03E0000
03E03E0000
03E03E0000
07E03E0000
07E03E0000
07E03E0000
07E03E0000
07C03E0000
07C03FFFC0
07C03FFFF0
07C03FFFFC
0FC03FFFFC
0FC03FFFFE
0FC03E00FE
0FC03E007F
0F803E003F
0F803E003F
1F803E003F
1F803E003F
1F803E003F
3F003E003F
3F003E00FE
FF003FFFFE
FE003FFFFC
FE003FFFF8
FC003FFFF0
F8003FFFC0
ENDCHAR
STARTCHAR 040A
ENCODING 1034
SWIDTH 872 0
DWIDTH 40 0
BBX 36 32 3 0
BITMAP
F801F80000
F801F80000
F801F80000
F801F80000
F801F80000
F801F80000
F801F80000
F801F80000
F801F80000
F801F80000
F801F80000
F801F80000
F801F80000
FFFFFFFC00
FFFFFFFF00
FFFFFFFF80
FFFFFFFFC0
FFFFFFFFE0
F801F80FE0
F801F807E0
F801F803F0
F801F803F0
F801F803F0
F801F803F0
F801F803F0
F801F807E0
F801F80FE0
F801FFFFE0
F801FFFFC0
F801FFFF80
F801FFFF00
F801FFFC00
ENDCHAR
STARTCHAR 040B
ENCODING 1035
SWIDTH 720 0
DWIDTH 33 0
BBX 31 32 0 0
BITMAP
FFFFFE00
FFFFFE00
FFFFFE00
FFFFFE00
FFFFFE00
007C0000
007C0000
007C0000
007C0000
007C0000
007C0000
007C3F80
007DFFE0
007FFFF0
007FFFF8
007FFFFC
007F01FC
007C00FC
007C007C
007C007C
007C007C
007C007E
007C007E
007C007E
007C007E
007C007E
007C007E
007C007E
007C007E
007C007E
007C007E
007C007E
ENDCHAR
STARTCHAR 040C
ENCODING 1036
SWIDTH 501 0
DWIDTH 23 0
BBX 20 40 3 0
BITMAP
0007C0
000F80
001F00
003E00
007C00
007000
000000
000000
F807E0
F807C0
F80FC0
F80F80
F81F80
F81F00
F83F00
F83E00
F87E00
F87C00
F8FC00
F8F800
F9F800
FFF000
FFE000
FFF000
FFF000
FFF800
F8F800
F8FC00
F87C00
F87E00
F83E00
F83F00
F81F00
F81F80
F80F80
F80FC0
F807C0
F807E0
F807E0
F803F0
ENDCHAR
STARTCHAR 040E
ENCODING 1038
SWIDTH 501 0
DWIDTH 23 0
BBX 24 41 0 0
BITMAP
0780F0
0781F0
0781E0
07C3E0
03FFC0
01FFC0
007F00
000000
000000
FC003F
7C003E
7E007E
3E007C
3F007C
1F00FC
1F80F8
0F80F8
0FC1F8
07C1F0
07E3F0
03E3E0
03F3E0
01F7E0
01FFC0
01FFC0
00FF80
00FF80
007F80
007F00
003F00
003E00
003E00
007E00
007C00
10FC00
1FF800
3FF800
3FF000
3FF000
3FE000
1F8000
ENDCHAR
STARTCHAR 040F
ENCODING 1039
SWIDTH 589 0
DWIDTH 27 0
BBX 22 41 3 -9
BITMAP
F800FC
F800FC
F800FC
F800FC
F800FC
F800FC
F800FC
F800FC
F800FC
F800FC
F800FC
F800FC
F800FC
F800FC
F800FC
F800FC
F800FC
F800FC
F800FC
F800FC
F800FC
F800FC
F800FC
F800FC
F800FC
F800FC
F800FC
FFFFFC
FFFFFC
FFFFFC
FFFFFC
FFFFFC
00F800
00F800
00F800
00F800
00F800
00F800
00F800
00F800
00F800
ENDCHAR
STARTCHAR 0410
ENCODING 1040
SWIDTH 589 0
DWIDTH 27 0
BBX 25 32 1 0
BITMAP
007F0000
007F0000
007F8000
00FF8000
00FF8000
00FF8000
01F7C000
01F7C000
01F7C000
01F3E000
03E3E000
03E3E000
03E1E000
07C1F000
07C1F000
07C1F000
07C0F800
0F80F800
0F80F800
0FFFFC00
1FFFFC00
1FFFFC00
1FFFFC00
3FFFFE00
3F003E00
3E003E00
3E003F00
7E001F00
7C001F00
7C001F00
FC001F80
FC000F80
ENDCHAR
STARTCHAR 0411
ENCODING 1041
SWIDTH 589 0
DWIDTH 27 0
BBX 23 32 3 0
BITMAP
FFFFE0
FFFFE0
FFFFE0
FFFFE0
FFFFE0
F80000
F80000
F80000
F80000
F80000
F80000
F80000
F80000
FFFF80
FFFFE0
FFFFF0
FFFFF8
FFFFFC
F801FC
F800FC
F8007E
F8007E
F8007E
F8007E
F8007E
F800FC
F801FC
FFFFFC
FFFFF8
FFFFF0
FFFFE0
FFFF80
ENDCHAR
STARTCHAR 0412
ENCODING 1042
SWIDTH 589 0
DWIDTH 27 0
BBX 23 32 3 0
BITMAP
FFFE00
FFFFC0
FFFFE0
FFFFF0
FFFFF0
F803F8
F801F8
F801F8
F800F8
F800F8
F801F8
F801F0
F803F0
FFFFE0
FFFFC0
FFFF80
FFFFE0
FFFFF8
F801F8
F800FC
F8007C
F8007C
F8007C
F8007E
F8007C
F800FC
F801FC
FFFFFC
FFFFF8
FFFFF0
FFFFE0
FFFF00
ENDCHAR
STARTCHAR 0413
ENCODING 1043
SWIDTH 501 0
DWIDTH 23 0
BBX 19 32 3 0
BITMAP
FFFFE0
FFFFE0
FFFFE0
FFFFE0
FFFFE0
F80000
F80000
F80000
F80000
F80000
F80000
F80000
F80000
F80000
F80000
F80000
F80000
F80000
F80000
F80000
F80000
F80000
F80000
F80000
F80000
F80000
F80000
F80000
F80000
F80000
F80000
F80000
ENDCHAR
STARTCHAR 0414
ENCODING 1044
SWIDTH 589 0
DWIDTH 27 0
BBX 26 41 0 -9
BITMAP
00FFFE00
00FFFE00
00FFFE00
00FFFE00
00FFFE00
00F83E00
00F83E00
01F03E00
01F03E00
01F03E00
01F03E00
01F03E00
01F03E00
01F03E00
01F03E00
03E03E00
03E03E00
03E03E00
03E03E00
03E03E00
07E03E00
07C03E00
07C03E00
0FC03E00
0FC03E00
0F803E00
1F803E00
FFFFFFC0
FFFFFFC0
FFFFFFC0
FFFFFFC0
FFFFFFC0
F80003C0
F80003C0
F80003C0
F80003C0
F80003C0
F80003C0
F80003C0
F80003C0
F80003C0
ENDCHAR
STARTCHAR 0415
ENCODING 1045
SWIDTH 545 0
DWIDTH 25 0
BBX 21 32 3 0
BITMAP
FFFFF0
FFFFF0
FFFFF0
FFFFF0
FFFFF0
F80000
F80000
F80000
F80000
F80000
F80000
F80000
F80000
FFFFE0
FFFFE0
FFFFE0
FFFFE0
FFFFE0
F80000
F80000
F80000
F80000
F80000
F80000
F80000
F80000
F80000
FFFFF8
FFFFF8
FFFFF8
FFFFF8
FFFFF8
ENDCHAR
STARTCHAR 0416
ENCODING 1046
SWIDTH 741 0
DWIDTH 34 0
BBX 34 32 0 0
BITMAP
7C03F00F80
7E03F01F80
3E03F01F00
3F03F03F00
1F03F03E00
1F83F07E00
0F83F07C00
0FC3F0FC00
07C3F0F800
07E3F1F800
03E3F1F000
03F3F3F000
01FBF3E000
00FBF7E000
00FFFFC000
00FFFFC000
01FFFFE000
01FFFFE000
03F3F1F000
03E3F1F000
07E3F1F800
07C3F0F800
0FC3F0FC00
0FC3F07C00
1F83F07E00
1F83F03E00
1F03F03F00
3F03F03F00
3E03F01F80
7E03F01F80
7C03F00FC0
FC03F00FC0
ENDCHAR
STARTCHAR 0417
ENCODING 1047
SWIDTH 523 0
DWIDTH 24 0
BBX 21 32 1 0
BITMAP
01FC00
07FF80
0FFFC0
1FFFE0
3FFFE0
3F87F0
7E03F0
7E01F0
7C01F0
1C01F0
0001F0
0003F0
0007E0
00FFC0
00FF80
00FF00
00FFC0
00FFE0
0007F0
0001F0
0001F8
0800F8
3800F8
FC01F8
FC01F8
7E01F8
7F07F0
3FFFF0
3FFFE0
1FFFC0
07FF80
01FC00
ENDCHAR
STARTCHAR 0418
ENCODING 1048
SWIDTH 589 0
DWIDTH 27 0
BBX 22 32 3 0
BITMAP
F001FC
F001FC
F003FC
F003FC
F007FC
F007FC
F007FC
F00FFC
F00FFC
F01F7C
F01F7C
F03E7C
F03E7C
F07C7C
F07C7C
F0F87C
F0F87C
F0F07C
F1F07C
F1E07C
F3E07C
F3E07C
F7C07C
F7C07C
FF807C
FF807C
FF007C
FF007C
FE007C
FE007C
FC007C
FC007C
ENDCHAR
STARTCHAR 0419
ENCODING 1049
SWIDTH 589 0
DWIDTH 27 0
BBX 22 41 3 0
BITMAP
0780F0
0781F0
0781E0
07C3E0
03FFC0
01FFC0
007F00
000000
000000
F001FC
F001FC
F003FC
F003FC
F007FC
F007FC
F007FC
F00FFC
F00FFC
F01F7C
F01F7C
F03E7C
F03E7C
F07C7C
F07C7C
F0F87C
F0F87C
F0F07C
F1F07C
F1E07C
F3E07C
F3E07C
F7C07C
F7C07C
FF807C
FF807C
FF007C
FF007C
FE007C
FE007C
FC007C
FC007C
ENDCHAR
STARTCHAR 041A
ENCODING 1050
SWIDTH 501 0
DWIDTH 23 0
BBX 20 32 3 0
BITMAP
F807E0
F807C0
F80FC0
F80F80
F81F80
F81F00
F83F00
F83E00
F87E00
F87C00
F8FC00
F8F800
F9F800
FFF000
FFE000
FFF000
FFF000
FFF800
F8F800
F8FC00
F87C00
F87E00
F83E00
F83F00
F81F00
F81F80
F80F80
F80FC0
F807C0
F807E0
F807E0
F803F0
ENDCHAR
STARTCHAR 041B
ENCODING 1051
SWIDTH 589 0
DWIDTH 27 0
BBX 24 32 0 0
BITMAP
03FFFF
03FFFF
03FFFF
03FFFF
03FFFF
03E01F
03E01F
03E01F
07E01F
07E01F
07E01F
07E01F
07C01F
07C01F
07C01F
07C01F
0FC01F
0FC01F
0FC01F
0FC01F
0F801F
0F801F
1F801F
1F801F
1F801F
3F001F
7F001F
FF001F
FE001F
FE001F
FC001F
F8001F
ENDCHAR
STARTCHAR 041C
ENCODING 1052
SWIDTH 676 0
DWIDTH 31 0
BBX 26 32 3 0
BITMAP
FE001FC0
FE003FC0
FE003FC0
FF003FC0
FF003FC0
FF007FC0
FF007FC0
FF807FC0
F7807FC0
F780F7C0
F7C0F7C0
F7C0F7C0
F3C1F7C0
F3C1F7C0
F3E1E7C0
F3E1E7C0
F1E3E7C0
F1E3E7C0
F1F3C7C0
F1F3C7C0
F0F7C7C0
F0F787C0
F0F787C0
F07F87C0
F07F87C0
F07F07C0
F07F07C0
F03F07C0
F03F07C0
F03E07C0
F03E07C0
F01E07C0
ENDCHAR
STARTCHAR 041D
ENCODING 1053
SWIDTH 589 0
DWIDTH 27 0
BBX 22 32 3 0
BITMAP
F800FC
F800FC
F800FC
F800FC
F800FC
F800FC
F800FC
F800FC
F800FC
F800FC
F800FC
F800FC
F800FC
FFFFFC
FFFFFC
FFFFFC
FFFFFC
FFFFFC
F800FC
F800FC
F800FC
F800FC
F800FC
F800FC
F800FC
F800FC
F800FC
F800FC
F800FC
F800FC
F800FC
F800FC
ENDCHAR
STARTCHAR 041E
ENCODING 1054
SWIDTH 632 0
DWIDTH 29 0
BBX 26 32 2 0
BITMAP
007F0000
03FFE000
07FFF800
0FFFFC00
1FFFFC00
3FC1FE00
7F007F00
7E003F00
7E001F80
FC001F80
FC001F80
F8000F80
F8000FC0
F8000FC0
F8000FC0
F8000FC0
F8000FC0
F8000FC0
F8000FC0
F8000FC0
FC000F80
FC001F80
FC001F80
7E001F80
7E003F00
3F007F00
3FC1FE00
1FFFFC00
0FFFF800
07FFF000
03FFE000
007F0000
ENDCHAR
STARTCHAR 041F
ENCODING 1055
SWIDTH 589 0
DWIDTH 27 0
BBX 22 32 3 0
BITMAP
FFFFFC
FFFFFC
FFFFFC
FFFFFC
FFFFFC
F800FC
F800FC
F800FC
F800FC
F800FC
F800FC
F800FC
F800FC
F800FC
F800FC
F800FC
F800FC
F800FC
F800FC
F800FC
F800FC
F800FC
F800FC
F800FC
F800FC
F800FC
F800FC
F800FC
F800FC
F800FC
F800FC
F800FC
ENDCHAR
STARTCHAR 0420
ENCODING 1056
SWIDTH 545 0
DWIDTH 25 0
BBX 21 32 3 0
BITMAP
FFFE00
FFFF80
FFFFC0
FFFFE0
FFFFF0
F807F0
F803F0
F801F8
F801F8
F801F8
F801F8
F801F8
F801F8
F801F8
F803F0
F807F0
FFFFE0
FFFFE0
FFFFC0
FFFF80
FFFE00
F80000
F80000
F80000
F80000
F80000
F80000
F80000
F80000
F80000
F80000
F80000
ENDCHAR
STARTCHAR 0421
ENCODING 1057
SWIDTH 589 0
DWIDTH 27 0
BBX 24 32 2 0
BITMAP
00FF00
03FFE0
0FFFF0
1FFFF8
1FFFFC
3FC1FE
7F007E
7E003F
7C003F
FC0018
FC0000
F80000
F80000
F80000
F80000
F80000
F80000
F80000
F80000
F80000
F80000
FC0018
FC001E
7E003F
7E003F
7F007E
3FC1FE
1FFFFC
0FFFF8
07FFF0
03FFE0
007F00
ENDCHAR
STARTCHAR 0422
ENCODING 1058
SWIDTH 501 0
DWIDTH 23 0
BBX 23 32 0 0
BITMAP
FFFFFE
FFFFFE
FFFFFE
FFFFFE
FFFFFE
007C00
007C00
007C00
007C00
007C00
007C00
007C00
007C00
007C00
007C00
007C00
007C00
007C00
007C00
007C00
007C00
007C00
007C00
007C00
007C00
007C00
007C00
007C00
007C00
007C00
007C00
007C00
ENDCHAR
STARTCHAR 0423
ENCODING 1059
SWIDTH 501 0
DWIDTH 23 0
BBX 24 32 0 0
BITMAP
FC003F
7C003E
7E007E
3E007C
3F007C
1F00FC
1F80F8
0F80F8
0FC1F8
07C1F0
07E3F0
03E3E0
03F3E0
01F7E0
01FFC0
01FFC0
00FF80
00FF80
007F80
007F00
003F00
003E00
003E00
007E00
007C00
10FC00
1FF800
3FF800
3FF000
3FF000
3FE000
1F8000
ENDCHAR
STARTCHAR 0424
ENCODING 1060
SWIDTH 698 0
DWIDTH 32 0
BBX 30 32 1 0
BITMAP
0007C000
0007C000
0007C000
00FFFE00
07FFFF80
0FFFFFC0
1FFFFFE0
3FFFFFF0
3F87C7F0
7F07C1F8
7E07C1F8
7C07C0F8
FC07C0FC
FC07C0FC
FC07C0FC
FC07C0FC
FC07C0FC
FC07C0FC
7C07C0FC
7C07C0F8
7E07C1F8
7F07C3F8
3F87C7F0
3FFFFFF0
1FFFFFE0
0FFFFFC0
07FFFF80
00FFFE00
0007C000
0007C000
0007C000
0007C000
ENDCHAR
STARTCHAR 0425
ENCODING 1061
SWIDTH 545 0
DWIDTH 25 0
BBX 24 32 1 0
BITMAP
FC007E
7E007C
7E00FC
3F00F8
1F01F8
1F81F0
0F83F0
0FC3E0
07C7E0
07EFC0
03EFC0
03FF80
01FF80
01FF00
00FF00
00FE00
00FF00
01FF00
01FF80
03FF80
07EFC0
07E7C0
0FC7E0
0F83E0
1F83F0
1F01F0
3F01F8
3E00F8
7E00FC
7C007E
FC007E
F8003F
ENDCHAR
STARTCHAR 0426
ENCODING 1062
SWIDTH 610 0
DWIDTH 28 0
BBX 24 41 3 -9
BITMAP
F801F8
F801F8
F801F8
F801F8
F801F8
F801F8
F801F8
F801F8
F801F8
F801F8
F801F8
F801F8
F801F8
F801F8
F801F8
F801F8
F801F8
F801F8
F801F8
F801F8
F801F8
F801F8
F801F8
F801F8
F801F8
F801F8
F801F8
FFFFFF
FFFFFF
FFFFFF
FFFFFF
FFFFFF
00000F
00000F
00000F
00000F
00000F
00000F
00000F
00000F
00000F
ENDCHAR
STARTCHAR 0427
ENCODING 1063
SWIDTH 589 0
DWIDTH 27 0
BBX 22 32 2 0
BITMAP
F8007C
F8007C
F8007C
F8007C
F8007C
F8007C
F8007C
F8007C
F8007C
F8007C
F8007C
F8007C
F8007C
FC007C
FC007C
7F03FC
7FFFFC
7FFFFC
3FFFFC
1FFF7C
07F87C
00007C
00007C
00007C
00007C
00007C
00007C
00007C
00007C
00007C
00007C
00007C
ENDCHAR
STARTCHAR 0428
ENCODING 1064
SWIDTH 829 0
DWIDTH 38 0
BBX 32 32 3 0
BITMAP
F807E01F
F807E01F
F807E01F
F807E01F
F807E01F
F807E01F
F807E01F
F807E01F
F807E01F
F807E01F
F807E01F
F807E01F
F807E01F
F807E01F
F807E01F
F807E01F
F807E01F
F807E01F
F807E01F
F807E01F
F807E01F
F807E01F
F807E01F
F807E01F
F807E01F
F807E01F
F807E01F
FFFFFFFF
FFFFFFFF
FFFFFFFF
FFFFFFFF
FFFFFFFF
ENDCHAR
STARTCHAR 0429
ENCODING 1065
SWIDTH 829 0
DWIDTH 38 0
BBX 35 41 3 -9
BITMAP
F807C03F00
F807C03F00
F807C03F00
F807C03F00
F807C03F00
F807C03F00
F807C03F00
F807C03F00
F807C03F00
F807C03F00
F807C03F00
F807C03F00
F807C03F00
F807C03F00
F807C03F00
F807C03F00
F807C03F00
F807C03F00
F807C03F00
F807C03F00
F807C03F00
F807C03F00
F807C03F00
F807C03F00
F807C03F00
F807C03F00
F807C03F00
FFFFFFFFE0
FFFFFFFFE0
FFFFFFFFE0
FFFFFFFFE0
FFFFFFFFE0
00000001E0
00000001E0
00000001E0
00000001E0
00000001E0
00000001E0
00000001E0
00000001E0
00000001E0
ENDCHAR
STARTCHAR 042A
ENCODING 1066
SWIDTH 720 0
DWIDTH 33 0
BBX 31 32 0 0
BITMAP
FFFC0000
FFFC0000
FFFC0000
FFFC0000
FFFC0000
007C0000
007C0000
007C0000
007C0000
007C0000
007C0000
007C0000
007C0000
007FFFC0
007FFFF0
007FFFF8
007FFFFC
007FFFFC
007C00FE
007C007E
007C003E
007C003E
007C003E
007C003E
007C003E
007C007E
007C00FE
007FFFFC
007FFFFC
007FFFF8
007FFFE0
007FFF80
ENDCHAR
STARTCHAR 042B
ENCODING 1067
SWIDTH 829 0
DWIDTH 38 0
BBX 32 32 3 0
BITMAP
F800001F
F800001F
F800001F
F800001F
F800001F
F800001F
F800001F
F800001F
F800001F
F800001F
F800001F
F800001F
F800001F
FFFF801F
FFFFE01F
FFFFF01F
FFFFF81F
FFFFF81F
F803FC1F
F800FC1F
F8007C1F
F8007C1F
F8007E1F
F8007C1F
F8007C1F
F800FC1F
F801FC1F
FFFFF81F
FFFFF81F
FFFFF01F
FFFFC01F
FFFF001F
ENDCHAR
STARTCHAR 042C
ENCODING 1068
SWIDTH 589 0
DWIDTH 27 0
BBX 23 32 3 0
BITMAP
F80000
F80000
F80000
F80000
F80000
F80000
F80000
F80000
F80000
F80000
F80000
F80000
F80000
FFFF80
FFFFE0
FFFFF0
FFFFF8
FFFFFC
F801FC
F800FC
F8007E
F8007E
F8007E
F8007E
F8007E
F800FC
F801FC
FFFFFC
FFFFF8
FFFFF0
FFFFE0
FFFF80
ENDCHAR
STARTCHAR 042D
ENCODING 1069
SWIDTH 589 0
DWIDTH 27 0
BBX 24 32 1 0
BITMAP
00FE00
07FFC0
0FFFE0
1FFFF8
3FFFF8
7F83FC
7E00FE
7C007E
FC003E
18003F
00003F
00001F
00001F
007FFF
007FFF
007FFF
007FFF
007FFF
00001F
00001F
00003F
18003F
78003E
FC007E
7C007E
7E00FC
3F83FC
3FFFF8
1FFFF0
0FFFE0
07FFC0
00FE00
ENDCHAR
STARTCHAR 042E
ENCODING 1070
SWIDTH 850 0
DWIDTH 39 0
BBX 34 32 3 0
BITMAP
F8001FC000
F800FFF000
F801FFF800
F803FFFC00
F807FFFE00
F80FF07F00
F80FC03F00
F81F801F80
F81F801F80
F81F000FC0
F81F000FC0
F83F000FC0
F83F0007C0
FFFF0007C0
FFFF0007C0
FFFF0007C0
FFFF0007C0
FFFF0007C0
F83F0007C0
F83F000FC0
F83F000FC0
F81F000FC0
F81F800F80
F81F801F80
F80FC01F80
F80FC03F00
F80FF07F00
F807FFFE00
F803FFFC00
F801FFF800
F800FFF000
F8001FC000
ENDCHAR
STARTCHAR 042F
ENCODING 1071
SWIDTH 589 0
DWIDTH 27 0
BBX 24 32 1 0
BITMAP
01FFFF
07FFFF
1FFFFF
1FFFFF
3FFFFF
3F803F
7E003F
7E003F
7E003F
7C003F
7C003F
7E003F
7E003F
3F003F
3F803F
1FFFFF
1FFFFF
0FFFFF
03FFFF
03FFFF
03F03F
07E03F
07E03F
0FC03F
0FC03F
1F803F
1F803F
3F003F
7F003F
7E003F
FE003F
FC003F
ENDCHAR
STARTCHAR 0430
ENCODING 1072
SWIDTH 458 0
DWIDTH 21 0
BBX 20 24 1 0
BITMAP
03F800
0FFE00
1FFF00
3FFF00
3F1F80
7E0F80
7E0F80
000F80
000F80
000F80
07FF80
1FFF80
3FFF80
7E0F80
FC0F80
FC0F80
F80F80
FC1F80
FC1FC0
FC3FC0
7FF7F0
7FF7F0
3FE3F0
0F81F0
ENDCHAR
STARTCHAR 0431
ENCODING 1073
SWIDTH 501 0
DWIDTH 23 0
BBX 20 34 2 0
BITMAP
000060
000FE0
00FFE0
03FFE0
0FFFE0
1FFFE0
1FF800
3F0000
7C0000
780000
700000
F0FC00
E3FF00
E7FF80
EFFFC0
EF0FE0
FE07E0
FC03E0
FC03E0
F803F0
F803F0
F803F0
F803F0
F803F0
F803F0
F803F0
FC03E0
7C03E0
7E07E0
3F0FC0
3FFFC0
1FFF80
0FFF00
03F800
ENDCHAR
STARTCHAR 0432
ENCODING 1074
SWIDTH 501 0
DWIDTH 23 0
BBX 19 24 3 0
BITMAP
FFFC00
FFFF00
FFFF80
FFFFC0
F80FC0
F807C0
F807C0
F807C0
F80F80
FFFF00
FFFE00
FFFF00
FFFF80
F80FC0
F807C0
F807E0
F807E0
F807E0
F807E0
F80FC0
FFFFC0
FFFF80
FFFF00
FFFC00
ENDCHAR
STARTCHAR 0433
ENCODING 1075
SWIDTH 349 0
DWIDTH 16 0
BBX 12 24 3 0
BITMAP
FFF0
FFF0
FFF0
FFF0
F800
F800
F800
F800
F800
F800
F800
F800
F800
F800
F800
F800
F800
F800
F800
F800
F800
F800
F800
F800
ENDCHAR
STARTCHAR 0434
ENCODING 1076
SWIDTH 523 0
DWIDTH 24 0
BBX 23 33 0 -9
BITMAP
01FFF8
03FFF8
03FFF8
03FFF8
03E1F8
03E1F8
03E1F8
03E1F8
03C1F8
07C1F8
07C1F8
07C1F8
07C1F8
07C1F8
0F81F8
0F81F8
0F81F8
0F81F8
1F01F8
1F01F8
FFFFFE
FFFFFE
FFFFFE
FFFFFE
F8001E
F8001E
F8001E
F8001E
F8001E
F8001E
F8001E
F8001E
F8001E
ENDCHAR
STARTCHAR 0435
ENCODING 1077
SWIDTH 458 0
DWIDTH 21 0
BBX 19 24 1 0
BITMAP
01F800
07FE00
1FFF00
1FFF80
3F0F80
7E07C0
7C07C0
7C07C0
7C03C0
7FFFC0
FFFFE0
FFFFE0
FFFFE0
7C0000
7C0000
7C0000
7C0000
7E0780
3E07C0
3F0FC0
1FFF80
1FFF00
07FE00
01F800
ENDCHAR
STARTCHAR 0436
ENCODING 1078
SWIDTH 589 0
DWIDTH 27 0
BBX 27 24 0 0
BITMAP
F81F03E0
7C1F07C0
7C1F07C0
3C1F0F80
3E1F0F80
3E1F1F00
1F1F1F00
1F1F3E00
0F9F3E00
0F9F7C00
07DF7C00
07FFF800
07FFFC00
07FFFC00
0F9F3E00
0F9F3E00
1F1F1E00
1F1F1F00
3E1F1F00
3E1F0F80
7E1F0F80
7C1F07C0
FC1F07C0
F81F07E0
ENDCHAR
STARTCHAR 0437
ENCODING 1079
SWIDTH 414 0
DWIDTH 19 0
BBX 16 24 1 0
BITMAP
07F0
1FFC
3FFE
7FFE
7C3F
781F
181F
001F
007E
03FC
03F0
03F8
03FE
007F
001F
001F
101F
F81F
F81F
7C3F
7FFF
3FFE
1FFC
07F0
ENDCHAR
STARTCHAR 0438
ENCODING 1080
SWIDTH 501 0
DWIDTH 23 0
BBX 18 24 3 0
BITMAP
F00FC0
F00FC0
F01FC0
F01FC0
F03FC0
F03FC0
F07FC0
F07FC0
F0F7C0
F0F7C0
F1E7C0
F1E7C0
F3C7C0
F3C7C0
F7C7C0
F787C0
FF87C0
FF07C0
FF07C0
FE07C0
FE07C0
FC07C0
FC07C0
F807C0
ENDCHAR
STARTCHAR 0439
ENCODING 1081
SWIDTH 501 0
DWIDTH 23 0
BBX 18 34 3 0
BITMAP
1E03C0
1E07C0
1E0780
1F0F80
0FFF00
07FF00
01FC00
000000
000000
000000
F00FC0
F00FC0
F01FC0
F01FC0
F03FC0
F03FC0
F07FC0
F07FC0
F0F7C0
F0F7C0
F1E7C0
F1E7C0
F3C7C0
F3C7C0
F7C7C0
F787C0
FF87C0
FF07C0
FF07C0
FE07C0
FE07C0
FC07C0
FC07C0
F807C0
ENDCHAR
STARTCHAR 043A
ENCODING 1082
SWIDTH 414 0
DWIDTH 19 0
BBX 16 24 3 0
BITMAP
F83E
F83E
F83E
F87C
F87C
F8F8
F8F8
F9F0
F9F0
FBE0
FFE0
FFC0
FFE0
FFE0
F9F0
F9F0
F9F0
F8F8
F8F8
F87C
F87C
F83E
F83E
F83F
ENDCHAR
STARTCHAR 043B
ENCODING 1083
SWIDTH 523 0
DWIDTH 24 0
BBX 21 24 0 0
BITMAP
03FFF8
03FFF8
03FFF8
03FFF8
03C0F8
07C0F8
07C0F8
07C0F8
07C0F8
07C0F8
07C0F8
07C0F8
0780F8
0F80F8
0F80F8
0F80F8
0F80F8
0F80F8
1F00F8
1F00F8
FF00F8
FE00F8
FE00F8
FC00F8
ENDCHAR
STARTCHAR 043C
ENCODING 1084
SWIDTH 610 0
DWIDTH 28 0
BBX 22 24 3 0
BITMAP
FE01FC
FE01FC
FE01FC
FE01FC
FF03FC
FF03FC
F703FC
F783BC
F787BC
F787BC
F3873C
F3C73C
F3CF3C
F3CF3C
F1CE3C
F1EE3C
F1FE3C
F1FE3C
F0FC3C
F0FC3C
F0FC3C
F0FC3C
F0783C
F0783C
ENDCHAR
STARTCHAR 043D
ENCODING 1085
SWIDTH 501 0
DWIDTH 23 0
BBX 17 24 3 0
BITMAP
F80F80
F80F80
F80F80
F80F80
F80F80
F80F80
F80F80
F80F80
F80F80
F80F80
FFFF80
FFFF80
FFFF80
FFFF80
F80F80
F80F80
F80F80
F80F80
F80F80
F80F80
F80F80
F80F80
F80F80
F80F80
ENDCHAR
STARTCHAR 043E
ENCODING 1086
SWIDTH 501 0
DWIDTH 23 0
BBX 21 24 1 0
BITMAP
01FC00
07FF00
0FFF80
1FFFC0
3F87E0
3E03E0
7E03F0
7C01F0
7C01F0
7C01F0
7C01F0
FC01F8
FC01F8
7C01F8
7C01F0
7C01F0
7C01F0
7E03F0
3E03E0
3F8FE0
1FFFC0
0FFF80
07FF00
01FC00
ENDCHAR
STARTCHAR 043F
ENCODING 1087
SWIDTH 501 0
DWIDTH 23 0
BBX 17 24 3 0
BITMAP
FFFF80
FFFF80
FFFF80
FFFF80
F80F80
F80F80
F80F80
F80F80
F80F80
F80F80
F80F80
F80F80
F80F80
F80F80
F80F80
F80F80
F80F80
F80F80
F80F80
F80F80
F80F80
F80F80
F80F80
F80F80
ENDCHAR
STARTCHAR 0440
ENCODING 1088
SWIDTH 501 0
DWIDTH 23 0
BBX 19 35 3 -10
BITMAP
00FC00
F9FE00
FBFF00
FFFF80
FE1F80
FC0FC0
FC0FC0
F807C0
F807C0
F807C0
F807C0
F807C0
F807E0
F807C0
F807C0
F807C0
F807C0
F807C0
FC0FC0
FC0FC0
FE1F80
FFFF80
FBFF00
F9FE00
F8F800
F80000
F80000
F80000
F80000
F80000
F80000
F80000
F80000
F80000
F80000
ENDCHAR
STARTCHAR 0441
ENCODING 1089
SWIDTH 458 0
DWIDTH 21 0
BBX 19 24 1 0
BITMAP
01F800
07FE00
0FFF00
1FFF80
3F0FC0
3E07C0
7E07C0
7C07E0
7C0000
7C0000
7C0000
FC0000
FC0000
7C0000
7C0000
7C0000
7C03E0
7E07E0
3E07C0
3F0FC0
1FFF80
1FFF00
07FE00
01F800
ENDCHAR
STARTCHAR 0442
ENCODING 1090
SWIDTH 392 0
DWIDTH 18 0
BBX 16 24 1 0
BITMAP
FFFF
FFFF
FFFF
FFFF
03E0
03E0
03E0
03E0
03E0
03E0
03E0
03E0
03E0
03E0
03E0
03E0
03E0
03E0
03E0
03E0
03E0
03E0
03E0
03E0
ENDCHAR
STARTCHAR 0443
ENCODING 1091
SWIDTH 458 0
DWIDTH 21 0
BBX 21 34 0 -10
BITMAP
FC01F8
7C01F0
7C01F0
7E03F0
3E03E0
3E03E0
3F03E0
1F07C0
1F07C0
1F07C0
0F87C0
0F8F80
0F8F80
078F80
07CF00
07DF00
03DF00
03DE00
03FE00
01FE00
01FC00
01FC00
00FC00
00F800
00F800
00F800
01F000
01F000
03F000
3FE000
3FE000
3FC000
3F8000
3F0000
ENDCHAR
STARTCHAR 0444
ENCODING 1092
SWIDTH 720 0
DWIDTH 33 0
BBX 29 43 2 -10
BITMAP
000F8000
000F8000
000F8000
000F8000
000F8000
000F8000
000F8000
000F8000
000F8000
0F8F8F80
1FCFBFC0
3FEFBFE0
7FFFFFF0
7E3FE3F0
FC1FC1F8
FC1FC1F8
F80F80F8
F80F80F8
F80F80F8
F80F80F8
F80F80F8
F80F80F8
F80F80F8
F80F80F8
F80F80F8
F80F80F8
FC1FC1F8
FC1FC1F8
7E3FE3F0
7FFFFFF0
3FEFBFE0
3FCFBFC0
0F8F8F80
000F8000
000F8000
000F8000
000F8000
000F8000
000F8000
000F8000
000F8000
000F8000
000F8000
ENDCHAR
STARTCHAR 0445
ENCODING 1093
SWIDTH 458 0
DWIDTH 21 0
BBX 19 24 1 0
BITMAP
F807E0
7C07C0
7E0FC0
3E0F80
3F1F80
1F1F00
1FBE00
0FBE00
07FC00
07FC00
03F800
03F000
03F800
07F800
07FC00
0FFE00
0FBE00
1FBF00
3F1F00
3E0F80
7E0FC0
7C07C0
FC07E0
F803E0
ENDCHAR
STARTCHAR 0446
ENCODING 1094
SWIDTH 501 0
DWIDTH 23 0
BBX 20 33 3 -9
BITMAP
F80F80
F80F80
F80F80
F80F80
F80F80
F80F80
F80F80
F80F80
F80F80
F80F80
F80F80
F80F80
F80F80
F80F80
F80F80
F80F80
F80F80
F80F80
F80F80
F80F80
FFFFF0
FFFFF0
FFFFF0
FFFFF0
0001F0
0001F0
0001F0
0001F0
0001F0
0001F0
0001F0
0001F0
0001F0
ENDCHAR
STARTCHAR 0447
ENCODING 1095
SWIDTH 480 0
DWIDTH 22 0
BBX 17 24 2 0
BITMAP
F80F80
F80F80
F80F80
F80F80
F80F80
F80F80
F80F80
F80F80
F80F80
F80F80
F80F80
FC1F80
FFFF80
FFFF80
7FFF80
7FEF80
1F0F80
000F80
000F80
000F80
000F80
000F80
000F80
000F80
ENDCHAR
STARTCHAR 0448
ENCODING 1096
SWIDTH 676 0
DWIDTH 31 0
BBX 26 24 3 0
BITMAP
F03E07C0
F03E07C0
F03E07C0
F03E07C0
F03E07C0
F03E07C0
F03E07C0
F03E07C0
F03E07C0
F03E07C0
F03E07C0
F03E07C0
F03E07C0
F03E07C0
F03E07C0
F03E07C0
F03E07C0
F03E07C0
F03E07C0
F03E07C0
FFFFFFC0
FFFFFFC0
FFFFFFC0
FFFFFFC0
ENDCHAR
STARTCHAR 0449
ENCODING 1097
SWIDTH 698 0
DWIDTH 32 0
BBX 28 33 3 -9
BITMAP
F03E07C0
F03E07C0
F03E07C0
F03E07C0
F03E07C0
F03E07C0
F03E07C0
F03E07C0
F03E07C0
F03E07C0
F03E07C0
F03E07C0
F03E07C0
F03E07C0
F03E07C0
F03E07C0
F03E07C0
F03E07C0
F03E07C0
F03E07C0
FFFFFFF0
FFFFFFF0
FFFFFFF0
FFFFFFF0
000000F0
000000F0
000000F0
000000F0
000000F0
000000F0
000000F0
000000F0
000000F0
ENDCHAR
STARTCHAR 044A
ENCODING 1098
SWIDTH 610 0
DWIDTH 28 0
BBX 25 24 1 0
BITMAP
FFF00000
FFF00000
FFF00000
FFF00000
01F00000
01F00000
01F00000
01F00000
01F00000
01FFF000
01FFFC00
01FFFE00
01FFFF00
01F03F80
01F01F80
01F00F80
01F00F80
01F00F80
01F01F80
01F03F00
01FFFF00
01FFFE00
01FFFC00
01FFF000
ENDCHAR
STARTCHAR 044B
ENCODING 1099
SWIDTH 741 0
DWIDTH 34 0
BBX 28 24 3 0
BITMAP
F80001F0
F80001F0
F80001F0
F80001F0
F80001F0
F80001F0
F80001F0
F80001F0
F80001F0
FFFE01F0
FFFF81F0
FFFFC1F0
FFFFE1F0
F80FE1F0
F803E1F0
F803F1F0
F803F1F0
F803F1F0
F803E1F0
F80FE1F0
FFFFE1F0
FFFFC1F0
FFFF81F0
FFFC01F0
ENDCHAR
STARTCHAR 044C
ENCODING 1100
SWIDTH 501 0
DWIDTH 23 0
BBX 19 24 3 0
BITMAP
F80000
F80000
F80000
F80000
F80000
F80000
F80000
F80000
F80000
FFFC00
FFFF00
FFFF80
FFFFC0
F80FC0
F807C0
F807E0
F807E0
F807E0
F807C0
F80FC0
FFFFC0
FFFF80
FFFF00
FFFC00
ENDCHAR
STARTCHAR 044D
ENCODING 1101
SWIDTH 458 0
DWIDTH 21 0
BBX 18 24 1 0
BITMAP
03F000
0FFC00
1FFE00
3FFF00
7E1F80
7C0F80
FC0FC0
F807C0
0007C0
0007C0
01FFC0
01FFC0
01FFC0
01FFC0
0007C0
0007C0
F807C0
FC0FC0
7C0F80
7E1F80
3FFF00
3FFE00
0FFC00
03F000
ENDCHAR
STARTCHAR 044E
ENCODING 1102
SWIDTH 698 0
DWIDTH 32 0
BBX 28 24 3 0
BITMAP
F801F800
F807FE00
F80FFF80
F81FFFC0
F83F0FC0
F83E07E0
F87E07E0
F87C03E0
F87C03E0
F87C03F0
FFFC03F0
FFFC03F0
FFFC03F0
FFFC03F0
F8FC03F0
F87C03E0
F87C03E0
F87E07E0
F87E07E0
F83F0FC0
F81FFF80
F81FFF80
F807FE00
F801F800
ENDCHAR
STARTCHAR 044F
ENCODING 1103
SWIDTH 480 0
DWIDTH 22 0
BBX 19 24 0 0
BITMAP
03FFE0
0FFFE0
1FFFE0
3FFFE0
3F03E0
3E03E0
3E03E0
3E03E0
3E03E0
3E03E0
3F03E0
1FFFE0
0FFFE0
03FFE0
07FFE0
07C3E0
0FC3E0
0F83E0
1F83E0
3F03E0
3F03E0
7E03E0
7C03E0
FC03E0
ENDCHAR
STARTCHAR 0451
ENCODING 1105
SWIDTH 458 0
DWIDTH 21 0
BBX 19 32 1 0
BITMAP
0F0F00
0F0F00
0F0F00
0F0F00
0F0F00
000000
000000
000000
01F800
07FE00
1FFF00
1FFF80
3F0F80
7E07C0
7C07C0
7C07C0
7C03C0
7FFFC0
FFFFE0
FFFFE0
FFFFE0
7C0000
7C0000
7C0000
7C0000
7E0780
3E07C0
3F0FC0
1FFF80
1FFF00
07FE00
01F800
ENDCHAR
STARTCHAR 0452
ENCODING 1106
SWIDTH 501 0
DWIDTH 23 0
BBX 21 43 0 -10
BITMAP
1F0000
1F0000
1F0000
FFFC00
FFFC00
FFFC00
FFFC00
1F0000
1F0000
1F0F80
1F3FC0
1F7FE0
1F7FF0
1FFFF0
1FC3F0
1F81F0
1F81F8
1F01F8
1F01F8
1F00F8
1F00F8
1F00F8
1F00F8
1F00F8
1F00F8
1F00F8
1F00F8
1F00F8
1F00F8
1F00F8
1F00F8
1F00F8
1F00F8
0000F8
0000F8
0001F8
0001F8
0001F8
000FF0
000FF0
000FF0
000FE0
000FC0
ENDCHAR
STARTCHAR 0453
ENCODING 1107
SWIDTH 349 0
DWIDTH 16 0
BBX 13 34 3 0
BITMAP
00F8
01F0
03E0
03C0
0780
0F00
0E00
0000
0000
0000
FFF0
FFF0
FFF0
FFF0
F800
F800
F800
F800
F800
F800
F800
F800
F800
F800
F800
F800
F800
F800
F800
F800
F800
F800
F800
F800
ENDCHAR
STARTCHAR 0454
ENCODING 1108
SWIDTH 458 0
DWIDTH 21 0
BBX 19 24 1 0
BITMAP
01F800
07FE00
0FFF00
1FFF80
3F0FC0
3E07C0
7E07C0
7C07E0
7C0000
7C0000
7FF000
FFF000
FFF000
7FF000
7C0000
7C0000
7C03E0
7E07E0
3E07C0
3F0FC0
1FFF80
1FFF00
07FE00
01F800
ENDCHAR
STARTCHAR 0455
ENCODING 1109
SWIDTH 458 0
DWIDTH 21 0
BBX 17 24 2 0
BITMAP
07F000
1FFC00
3FFE00
7FFF00
FC1F00
F80F80
F80E00
F80000
FE0000
FFE000
7FFC00
3FFE00
1FFF00
07FF80
007F80
000F80
000780
700780
F00F80
FC1F80
FFFF00
7FFF00
3FFC00
0FF000
ENDCHAR
STARTCHAR 0456
ENCODING 1110
SWIDTH 218 0
DWIDTH 10 0
BBX 5 33 3 0
BITMAP
F8
F8
F8
F8
F8
00
00
00
00
F8
F8
F8
F8
F8
F8
F8
F8
F8
F8
F8
F8
F8
F8
F8
F8
F8
F8
F8
F8
F8
F8
F8
F8
ENDCHAR
STARTCHAR 0457
ENCODING 1111
SWIDTH 218 0
DWIDTH 10 0
BBX 12 32 -1 0
BITMAP
F0F0
F0F0
F0F0
F0F0
F0F0
0000
0000
0000
0F80
0F80
0F80
0F80
0F80
0F80
0F80
0F80
0F80
0F80
0F80
0F80
0F80
0F80
0F80
0F80
0F80
0F80
0F80
0F80
0F80
0F80
0F80
0F80
ENDCHAR
STARTCHAR 0458
ENCODING 1112
SWIDTH 218 0
DWIDTH 10 0
BBX 9 43 -1 -10
BITMAP
0F80
0F80
0F80
0F80
0F80
0000
0000
0000
0000
0F80
0F80
0F80
0F80
0F80
0F80
0F80
0F80
0F80
0F80
0F80
0F80
0F80
0F80
0F80
0F80
0F80
0F80
0F80
0F80
0F80
0F80
0F80
0F80
0F80
0F80
0F80
1F80
1F80
FF80
FF00
FF00
FE00
FC00
ENDCHAR
STARTCHAR 0459
ENCODING 1113
SWIDTH 807 0
DWIDTH 37 0
BBX 35 24 0 0
BITMAP
03FFF80000
03FFF80000
03FFF80000
03FFF80000
03C0F80000
07C0F80000
07C0F80000
07C0F80000
07C0F80000
07C0FFFC00
07C0FFFF00
07C0FFFF80
0780FFFFC0
0F80F80FE0
0F80F807E0
0F80F803E0
0F80F803E0
0F80F803E0
1F00F807E0
1F00F80FC0
FF00FFFFC0
FE00FFFF80
FE00FFFF00
FC00FFFC00
ENDCHAR
STARTCHAR 045A
ENCODING 1114
SWIDTH 741 0
DWIDTH 34 0
BBX 30 24 3 0
BITMAP
F81F8000
F81F8000
F81F8000
F81F8000
F81F8000
F81F8000
F81F8000
F81F8000
F81F8000
F81F8000
FFFFFF00
FFFFFFE0
FFFFFFF0
FFFFFFF8
F81F81F8
F81F80FC
F81F80FC
F81F80FC
F81F80F8
F81F81F8
F81FFFF8
F81FFFF0
F81FFFE0
F81FFF80
ENDCHAR
STARTCHAR 045B
ENCODING 1115
SWIDTH 501 0
DWIDTH 23 0
BBX 21 33 0 0
BITMAP
1F0000
1F0000
1F0000
FFFC00
FFFC00
FFFC00
FFFC00
1F0000
1F0000
1F0F80
1F3FC0
1F7FE0
1F7FF0
1FFFF0
1FC3F0
1F81F0
1F81F8
1F01F8
1F01F8
1F00F8
1F00F8
1F00F8
1F00F8
1F00F8
1F00F8
1F00F8
1F00F8
1F00F8
1F00F8
1F00F8
1F00F8
1F00F8
1F00F8
ENDCHAR
STARTCHAR 045C
ENCODING 1116
SWIDTH 414 0
DWIDTH 19 0
BBX 16 34 3 0
BITMAP
003E
007C
00F8
00F0
01E0
03C0
0380
0000
0000
0000
F83E
F83E
F83E
F87C
F87C
F8F8
F8F8
F9F0
F9F0
FBE0
FFE0
FFC0
FFE0
FFE0
F9F0
F9F0
F9F0
F8F8
F8F8
F87C
F87C
F83E
F83E
F83F
ENDCHAR
STARTCHAR 045E
ENCODING 1118
SWIDTH 458 0
DWIDTH 21 0
BBX 21 44 0 -10
BITMAP
0F01E0
0F03E0
0F03C0
0F87C0
07FF80
03FF80
00FE00
000000
000000
000000
FC01F8
7C01F0
7C01F0
7E03F0
3E03E0
3E03E0
3F03E0
1F07C0
1F07C0
1F07C0
0F87C0
0F8F80
0F8F80
078F80
07CF00
07DF00
03DF00
03DE00
03FE00
01FE00
01FC00
01FC00
00FC00
00F800
00F800
00F800
01F000
01F000
03F000
3FE000
3FE000
3FC000
3F8000
3F0000
ENDCHAR
STARTCHAR 045F
ENCODING 1119
SWIDTH 501 0
DWIDTH 23 0
BBX 17 33 3 -9
BITMAP
F80F80
F80F80
F80F80
F80F80
F80F80
F80F80
F80F80
F80F80
F80F80
F80F80
F80F80
F80F80
F80F80
F80F80
F80F80
F80F80
F80F80
F80F80
F80F80
F80F80
FFFF80
FFFF80
FFFF80
FFFF80
03E000
03E000
03E000
03E000
03E000
03E000
03E000
03E000
03E000
ENDCHAR
STARTCHAR 0490
ENCODING 1168
SWIDTH 458 0
DWIDTH 21 0
BBX 17 41 3 0
BITMAP
000F80
000F80
000F80
000F80
000F80
000F80
000F80
000F80
000F80
FFFF80
FFFF80
FFFF80
FFFF80
FFFF80
FC0000
FC0000
FC0000
FC0000
FC0000
FC0000
FC0000
FC0000
FC0000
FC0000
FC0000
FC0000
FC0000
FC0000
FC0000
FC0000
FC0000
FC0000
FC0000
FC0000
FC0000
FC0000
FC0000
FC0000
FC0000
FC0000
FC0000
ENDCHAR
STARTCHAR 0491
ENCODING 1169
SWIDTH 349 0
DWIDTH 16 0
BBX 12 33 2 0
BITMAP
00F0
00F0
00F0
00F0
00F0
00F0
00F0
00F0
00F0
FFF0
FFF0
FFF0
FFF0
F800
F800
F800
F800
F800
F800
F800
F800
F800
F800
F800
F800
F800
F800
F800
F800
F800
F800
F800
F800
ENDCHAR
STARTCHAR 1E80
ENCODING 7808
SWIDTH 785 0
DWIDTH 36 0
BBX 35 40 0 0
BITMAP
0001F00000
0001F80000
00007C0000
00003C0000
00001E0000
00000F0000
0000000000
0000000000
FC01F803E0
FC01F803E0
7C03F803E0
7C03FC07E0
7C03FC07E0
7E03FC07C0
7E03FC07C0
3E07FC07C0
3E07FE07C0
3E07BE0FC0
3E07BE0F80
3F07BE0F80
1F0F9E0F80
1F0F9F0F80
1F0F9F0F80
1F0F1F1F00
1F8F1F1F00
0F8F0F1F00
0F9F0F1F00
0F9F0F9E00
0F9E0FBE00
079E0FBE00
07DE07BE00
07FE07BE00
07FE07BC00
07FC07BC00
03FC07FC00
03FC03FC00
03FC03FC00
03FC03F800
03F803F800
01F803F800
ENDCHAR
STARTCHAR 1E81
ENCODING 7809
SWIDTH 632 0
DWIDTH 29 0
BBX 29 34 0 0
BITMAP
003E0000
001F0000
000F8000
0007C000
0003C000
0001E000
0000F000
00000000
00000000
00000000
F80FC078
F80FC0F8
F81FC0F8
781FC0F8
7C1FC0F0
7C1DE0F0
7C3DE1F0
7C3DE1F0
3C3DE1F0
3C3CE1E0
3E38F1E0
3E78F3E0
1E78F3E0
1E78F3C0
1E787BC0
1FF07BC0
1FF07BC0
0FF07FC0
0FF03F80
0FF03F80
0FE03F80
07E03F80
07E03F80
07E01F00
ENDCHAR
STARTCHAR 1E82
ENCODING 7810
SWIDTH 785 0
DWIDTH 36 0
BBX 35 40 0 0
BITMAP
000001F000
000003E000
000007C000
00000F8000
00001F0000
00001C0000
0000000000
0000000000
FC01F803E0
FC01F803E0
7C03F803E0
7C03FC07E0
7C03FC07E0
7E03FC07C0
7E03FC07C0
3E07FC07C0
3E07FE07C0
3E07BE0FC0
3E07BE0F80
3F07BE0F80
1F0F9E0F80
1F0F9F0F80
1F0F9F0F80
1F0F1F1F00
1F8F1F1F00
0F8F0F1F00
0F9F0F1F00
0F9F0F9E00
0F9E0FBE00
079E0FBE00
07DE07BE00
07FE07BE00
07FE07BC00
07FC07BC00
03FC07FC00
03FC03FC00
03FC03FC00
03FC03F800
03F803F800
01F803F800
ENDCHAR
STARTCHAR 1E83
ENCODING 7811
SWIDTH 632 0
DWIDTH 29 0
BBX 29 34 0 0
BITMAP
00003E00
00007C00
0000F800
0000F000
0001E000
0003C000
00038000
00000000
00000000
00000000
F80FC078
F80FC0F8
F81FC0F8
781FC0F8
7C1FC0F0
7C1DE0F0
7C3DE1F0
7C3DE1F0
3C3DE1F0
3C3CE1E0
3E38F1E0
3E78F3E0
1E78F3E0
1E78F3C0
1E787BC0
1FF07BC0
1FF07BC0
0FF07FC0
0FF03F80
0FF03F80
0FE03F80
07E03F80
07E03F80
07E01F00
ENDCHAR
STARTCHAR 1E84
ENCODING 7812
SWIDTH 785 0
DWIDTH 36 0
BBX 35 39 0 0
BITMAP
0003C1C000
0003C1C000
0003C1C000
0003C1C000
0003C1C000
0000000000
0000000000
FC01F803E0
FC01F803E0
7C03F803E0
7C03FC07E0
7C03FC07E0
7E03FC07C0
7E03FC07C0
3E07FC07C0
3E07FE07C0
3E07BE0FC0
3E07BE0F80
3F07BE0F80
1F0F9E0F80
1F0F9F0F80
1F0F9F0F80
1F0F1F1F00
1F8F1F1F00
0F8F0F1F00
0F9F0F1F00
0F9F0F9E00
0F9E0FBE00
079E0FBE00
07DE07BE00
07FE07BE00
07FE07BC00
07FC07BC00
03FC07FC00
03FC03FC00
03FC03FC00
03FC03F800
03F803F800
01F803F800
ENDCHAR
STARTCHAR 1E85
ENCODING 7813
SWIDTH 632 0
DWIDTH 29 0
BBX 29 32 0 0
BITMAP
003C3C00
003C3C00
003C3C00
003C3C00
003C3C00
00000000
00000000
00000000
F80FC078
F80FC0F8
F81FC0F8
781FC0F8
7C1FC0F0
7C1DE0F0
7C3DE1F0
7C3DE1F0
3C3DE1F0
3C3CE1E0
3E38F1E0
3E78F3E0
1E78F3E0
1E78F3C0
1E787BC0
1FF07BC0
1FF07BC0
0FF07FC0
0FF03F80
0FF03F80
0FE03F80
07E03F80
07E03F80
07E01F00
ENDCHAR
STARTCHAR 1EF2
ENCODING 7922
SWIDTH 545 0
DWIDTH 25 0
BBX 23 40 1 0
BITMAP
00F800
00FC00
003E00
001E00
000F00
000780
000000
000000
FC003E
FC007E
7C007C
7E00FC
3E00F8
3F01F8
1F01F0
1F83F0
0F83E0
0FC7E0
07C7C0
07E7C0
03EF80
03EF80
01FF80
01FF00
00FF00
00FE00
007E00
007C00
007C00
007C00
007C00
007C00
007C00
007C00
007C00
007C00
007C00
007C00
007C00
007C00
ENDCHAR
STARTCHAR 1EF3
ENCODING 7923
SWIDTH 458 0
DWIDTH 21 0
BBX 21 44 0 -10
BITMAP
0F8000
07C000
03E000
01F000
00F000
007800
003C00
000000
000000
000000
FC01F8
7C01F0
7C01F0
7E03F0
3E03E0
3E03E0
3F03E0
1F07C0
1F07C0
1F07C0
0F87C0
0F8F80
0F8F80
078F80
07CF00
07DF00
03DF00
03DE00
03FE00
01FE00
01FC00
01FC00
00FC00
00F800
00F800
00F800
01F000
01F000
03F000
3FE000
3FE000
3FC000
3F8000
3F0000
ENDCHAR
STARTCHAR 2010
ENCODING 8208
SWIDTH 283 0
DWIDTH 13 0
BBX 10 5 1 9
BITMAP
FFC0
FFC0
FFC0
FFC0
FFC0
ENDCHAR
STARTCHAR 2011
ENCODING 8209
SWIDTH 283 0
DWIDTH 13 0
BBX 10 5 1 9
BITMAP
FFC0
FFC0
FFC0
FFC0
FFC0
ENDCHAR
STARTCHAR 2013
ENCODING 8211
SWIDTH 458 0
DWIDTH 21 0
BBX 19 5 1 10
BITMAP
FFFFE0
FFFFE0
FFFFE0
FFFFE0
FFFFE0
ENDCHAR
STARTCHAR 2014
ENCODING 8212
SWIDTH 829 0
DWIDTH 38 0
BBX 38 5 0 10
BITMAP
FFFFFFFFFC
FFFFFFFFFC
FFFFFFFFFC
FFFFFFFFFC
FFFFFFFFFC
ENDCHAR
STARTCHAR 2015
ENCODING 8213
SWIDTH 829 0
DWIDTH 38 0
BBX 38 5 0 10
BITMAP
FFFFFFFFFC
FFFFFFFFFC
FFFFFFFFFC
FFFFFFFFFC
FFFFFFFFFC
ENDCHAR
STARTCHAR 2017
ENCODING 8215
SWIDTH 501 0
DWIDTH 23 0
BBX 21 8 0 -12
BITMAP
FFFFF8
FFFFF8
000000
000000
000000
000000
FFFFF8
FFFFF8
ENDCHAR
STARTCHAR 2018
ENCODING 8216
SWIDTH 218 0
DWIDTH 10 0
BBX 5 13 3 19
BITMAP
78
70
F0
E0
E0
E0
E0
F8
F8
F8
F8
F8
F8
ENDCHAR
STARTCHAR 2019
ENCODING 8217
SWIDTH 218 0
DWIDTH 10 0
BBX 5 13 3 19
BITMAP
F8
F8
F8
F8
F8
F8
38
38
38
70
70
F0
E0
ENDCHAR
STARTCHAR 201A
ENCODING 8218
SWIDTH 218 0
DWIDTH 10 0
BBX 5 13 3 -7
BITMAP
F8
F8
F8
F8
F8
F8
38
38
38
70
70
F0
E0
ENDCHAR
STARTCHAR 201B
ENCODING 8219
SWIDTH 218 0
DWIDTH 10 0
BBX 5 13 3 19
BITMAP
F8
F8
F8
F8
F8
F8
E0
E0
E0
E0
F0
70
78
ENDCHAR
STARTCHAR 201C
ENCODING 8220
SWIDTH 414 0
DWIDTH 19 0
BBX 13 14 3 18
BITMAP
7878
7070
7070
F0E0
E0E0
E0E0
E0E0
E0E0
F8F8
F8F8
F8F8
F8F8
F8F8
F8F8
ENDCHAR
STARTCHAR 201D
ENCODING 8221
SWIDTH 414 0
DWIDTH 19 0
BBX 13 12 3 20
BITMAP
F8F8
F8F8
F8F8
F8F8
F8F8
F8F8
3838
3838
3838
7070
7070
E0E0
ENDCHAR
STARTCHAR 201E
ENCODING 8222
SWIDTH 414 0
DWIDTH 19 0
BBX 13 12 3 -6
BITMAP
F8F8
F8F8
F8F8
F8F8
F8F8
F8F8
3838
3838
3838
7070
7070
E0E0
ENDCHAR
STARTCHAR 2020
ENCODING 8224
SWIDTH 458 0
DWIDTH 21 0
BBX 15 36 3 -3
BITMAP
07C0
07C0
07C0
07C0
07C0
07C0
0380
0380
FFFE
FFFE
FFFE
FFFE
0380
0380
0380
0380
0380
0380
0380
0380
0380
0380
0380
0380
0380
0380
0380
0380
0380
0380
0380
0380
0380
0380
0380
0380
ENDCHAR
STARTCHAR 2021
ENCODING 8225
SWIDTH 458 0
DWIDTH 21 0
BBX 15 36 3 -3
BITMAP
0380
0380
0380
0380
0380
0380
0380
8382
FFFE
FFFE
FFFE
F39E
0380
0380
0380
0380
0380
0380
0380
0380
0380
0380
0380
0380
0380
FFFE
FFFE
FFFE
FFFE
0380
0380
0380
0380
0380
0380
0380
ENDCHAR
STARTCHAR 2022
ENCODING 8226
SWIDTH 283 0
DWIDTH 13 0
BBX 11 13 1 9
BITMAP
1F00
3F80
7FC0
7FC0
FFE0
FFE0
FFE0
FFE0
FFE0
7FC0
7FC0
3F80
0F00
ENDCHAR
STARTCHAR 2026
ENCODING 8230
SWIDTH 829 0
DWIDTH 38 0
BBX 29 7 4 0
BITMAP
F80F80F8
F80F80F8
F80F80F8
F80F80F8
F80F80F8
F80F80F8
F80F80F8
ENDCHAR
STARTCHAR 2030
ENCODING 8240
SWIDTH 829 0
DWIDTH 38 0
BBX 36 32 1 0
BITMAP
1E00780000
7F80700000
7F80F00000
F3C0F00000
E1C1E00000
E1C1E00000
E1C3C00000
E1C3C00000
E1C7800000
E1C7800000
E1CF000000
E1CF000000
F3CE000000
7F9E000000
3F9C000000
1E3C000000
0038F80F80
0079FC1FC0
0073FE3FE0
00F38E38E0
00E78E38F0
01E70F7870
01E70F7870
03C70F7870
03C70F7870
07870F7870
07870F3870
0F078E38F0
0F038E38E0
0E03FE3FE0
1E01FC1FC0
1C00F80F80
ENDCHAR
STARTCHAR 2032
ENCODING 8242
SWIDTH 196 0
DWIDTH 9 0
BBX 6 12 2 20
BITMAP
7C
7C
FC
F8
F8
F8
F8
F8
F0
F0
F0
F0
ENDCHAR
STARTCHAR 2033
ENCODING 8243
SWIDTH 392 0
DWIDTH 18 0
BBX 17 12 2 20
BITMAP
7C0F80
7C0F80
FC1F80
F81F00
F81F00
F81F00
F81F00
F81F00
F01E00
F01E00
F01E00
F01E00
ENDCHAR
STARTCHAR 2039
ENCODING 8249
SWIDTH 283 0
DWIDTH 13 0
BBX 9 18 2 3
BITMAP
0F80
1F00
1F00
3E00
3E00
7C00
7C00
F800
F000
F000
F800
7C00
7C00
3E00
1E00
1F00
0F80
0F80
ENDCHAR
STARTCHAR 203A
ENCODING 8250
SWIDTH 283 0
DWIDTH 13 0
BBX 9 18 2 3
BITMAP
F000
F800
7C00
7C00
3E00
3E00
1F00
0F00
0F80
0F80
1F00
1F00
3E00
3E00
7C00
7800
F800
F000
ENDCHAR
STARTCHAR 203C
ENCODING 8252
SWIDTH 545 0
DWIDTH 25 0
BBX 18 32 4 0
BITMAP
F807C0
F807C0
F807C0
F807C0
F807C0
F807C0
F807C0
F807C0
F807C0
F807C0
F807C0
F807C0
F807C0
F807C0
F807C0
F807C0
F807C0
F807C0
F00780
F00780
F00780
F00780
000000
000000
000000
000000
F807C0
F807C0
F807C0
F807C0
F807C0
F807C0
ENDCHAR
STARTCHAR 203E
ENCODING 8254
SWIDTH 283 0
DWIDTH 13 0
BBX 17 4 -2 33
BITMAP
FFFF80
FFFF80
FFFF80
FFFF80
ENDCHAR
STARTCHAR 2044
ENCODING 8260
SWIDTH 130 0
DWIDTH 6 0
BBX 20 32 -7 0
BITMAP
0000F0
0000F0
0001E0
0001C0
0003C0
000380
000780
000700
000F00
000E00
001E00
001C00
003C00
003800
007800
007000
00F000
00E000
01E000
03C000
03C000
078000
078000
0F0000
0F0000
1E0000
1E0000
3C0000
3C0000
780000
780000
F00000
ENDCHAR
STARTCHAR 207F
ENCODING 8319
SWIDTH 327 0
DWIDTH 15 0
BBX 11 15 2 12
BITMAP
E780
EFC0
FFE0
F9E0
F0E0
E0E0
E0E0
E0E0
E0E0
E0E0
E0E0
E0E0
E0E0
E0E0
E0E0
ENDCHAR
STARTCHAR 20A3
ENCODING 8355
SWIDTH 501 0
DWIDTH 23 0
BBX 22 32 0 0
BITMAP
1FFFFC
1FFFFC
1FFFFC
1FFFFC
1FFFFC
1F8000
1F8000
1F8000
1F8000
1F8000
1F8000
1F8000
1F8000
1F8000
1FFFFC
1FFFFC
1FFFFC
1FFFFC
1FFFFC
1F8000
1F8000
1F8000
1F8000
FFFE00
FFFE00
FFFE00
1F8000
1F8000
1F8000
1F8000
1F8000
1F8000
ENDCHAR
STARTCHAR 20A4
ENCODING 8356
SWIDTH 458 0
DWIDTH 21 0
BBX 21 32 0 0
BITMAP
00FE00
01FF00
03FF80
07FFC0
0FC7C0
0F83E0
0F83E0
0F8100
0F8000
0F0000
0F0000
0F0000
FFFC00
FFFC00
FFFC00
0F0000
0F0000
FFFC00
FFFC00
FFFC00
0F0000
0F0000
0F0000
1F00F8
1F00F0
3E01F0
7C03F0
7FFFE0
7FFFE0
7FFFC0
7FFF80
7FFF00
ENDCHAR
STARTCHAR 20A7
ENCODING 8359
SWIDTH 960 0
DWIDTH 44 0
BBX 40 32 3 0
BITMAP
FFC0000000
FFF8000000
FFFC000000
FFFE000000
F87F000000
F81F000000
F81F000000
F80F000000
F80F9C0000
F80F9C0000
F80F9C0000
F80F3C0000
F81F3C0000
F81FFF87F0
F87FFF9FFC
FFFEFFBFFC
FFFCFFBFFE
FFF83C3C1E
FFE03C3C1E
F8003C3E00
F8003C3F80
F8003C1FF0
F8003C1FFC
F8003C07FE
F8003C01FF
F8003C001F
F8003C780F
F8003C7C1F
F8003FBFFE
F8003FBFFE
F8001F9FFC
F8000F8FF0
ENDCHAR
STARTCHAR 20AC
ENCODING 8364
SWIDTH 458 0
DWIDTH 21 0
BBX 20 32 0 0
BITMAP
007E00
01FF80
03FFC0
07FFC0
0FFFE0
0FC7E0
0F83F0
1F81F0
1F01C0
1F0000
1F0000
1F0000
7FFC00
7FFC00
FFF800
3F0000
3F0000
7FFC00
7FFC00
FFFC00
1F0000
1F0000
1F0000
1F01F0
1F81F0
0F81F0
0FC3F0
0FFFE0
07FFE0
03FFC0
01FF80
007E00
ENDCHAR
STARTCHAR 2105
ENCODING 8453
SWIDTH 785 0
DWIDTH 36 0
BBX 34 32 1 0
BITMAP
07C000F000
1FF001F000
3FF801E000
7C7803C000
783C03C000
783C078000
F800078000
F0000F0000
F0001F0000
F0001E0000
F0003C0000
F0003C0000
F80078FC00
F83CF9FF00
783CF3FF80
7C79F7C780
7FF9E78780
3FF3CF83C0
1FE3CF83C0
07C78F03C0
000F8F03C0
000F0F03C0
001E0F03C0
001E0F03C0
003C0F83C0
003C0F83C0
00780787C0
00F807C780
00F007FF80
01E003FF00
01E001FE00
03C000FC00
ENDCHAR
STARTCHAR 2113
ENCODING 8467
SWIDTH 501 0
DWIDTH 23 0
BBX 20 32 1 0
BITMAP
00FE00
03FF80
07FFC0
0FFFE0
0FC3F0
1FC3F0
1F83F0
1F83F0
1F83F0
1F83F0
1F83E0
1F87E0
1F8FC0
1F9FC0
1FFF80
1FFE00
1FFC00
7FF000
FFC000
FF8000
FF8000
9F8000
1F8000
1F80F0
1F80E0
1FC1E0
1FC3E0
1FFFC0
0FFF80
0FFF80
07FE00
01F800
ENDCHAR
STARTCHAR 2116
ENCODING 8470
SWIDTH 916 0
DWIDTH 42 0
BBX 37 32 3 0
BITMAP
F8007C0000
FC007C0000
FC007C0000
FE007C0000
FE007C0000
FF007C0000
FF007C0000
FF807C0000
FF807C0000
F7C07C0000
F7C07C0FC0
F3E07C1FE0
F3E07C3FF0
F1F07C7CF0
F1F07C7878
F0F87C7878
F0F87C7878
F07C7C7878
F07C7C7878
F03E7C7878
F03E7C7878
F01F7C7CF0
F01F7C3FF0
F00FFC1FE0
F00FBC0F80
F007FC0000
F007FC0000
F003FC0000
F003FC7FF8
F001FC7FF8
F001FC7FF8
F000FC7FF8
ENDCHAR
STARTCHAR 2122
ENCODING 8482
SWIDTH 829 0
DWIDTH 38 0
BBX 31 14 2 18
BITMAP
FFFBE03E
FFFBF03E
FFFBF03E
0703B07E
0703B87E
0703F8EE
0703D8EE
0703DCEE
0703DDCE
0703CDCE
0703CF8E
0703C78E
0703C78E
0703C70E
ENDCHAR
STARTCHAR 2126
ENCODING 8486
SWIDTH 654 0
DWIDTH 30 0
BBX 27 32 2 0
BITMAP
007F8000
03FFF000
07FFF800
0FFFFE00
1FFFFE00
3FE0FF00
3F803F80
7F001F80
7E001F80
7E000FC0
FC000FC0
FC000FC0
FC000FC0
FC000FC0
FC000FC0
FC000FC0
FC000FC0
7C000FC0
7C000F80
7E000F80
3E001F80
3F001F00
1F003F00
1F807E00
0FE0FC00
07F1F800
01F1E000
FFF1FFE0
FFF1FFE0
FFF1FFE0
FFF1FFE0
FFF1FFE0
ENDCHAR
STARTCHAR 212E
ENCODING 8494
SWIDTH 610 0
DWIDTH 28 0
BBX 24 25 2 -1
BITMAP
00FF00
03FFC0
0F81F0
1C0078
380018
38001C
78001E
78001E
F8001E
F8001F
FFFFFF
FFFFFF
F80000
F80000
F80000
F80000
780000
780000
78000C
38001C
1C0018
1E0070
0F81E0
03FFC0
00FF00
ENDCHAR
STARTCHAR 215B
ENCODING 8539
SWIDTH 676 0
DWIDTH 31 0
BBX 31 33 3 -1
BITMAP
3C0003C0
7C0003C0
FC000780
DC000700
9C000F00
1C000E00
1C001E00
1C001C00
1C003C00
1C003800
1C007800
1C007000
1C00F000
FF80E000
FF81E000
FF81C000
0003C1F0
000387F8
00078FFC
000F0F1C
000F0F1C
001E0F1C
001E07F8
003C03F0
003C07FC
00780F1C
00780E1E
00F00E1E
00F00E1E
01E00F1C
01E00FFC
03C007F8
000001F0
ENDCHAR
STARTCHAR 215C
ENCODING 8540
SWIDTH 676 0
DWIDTH 31 0
BBX 32 33 2 -1
BITMAP
1F0003C0
7F8003C0
7FC00780
F3C00700
F1C00F00
01C00E00
03C01E00
0F801C00
0F003C00
0FC03800
01C07800
01E07000
E1E0F000
F1E0E000
FFC1E000
7FC1C000
1F03C0F8
000383FC
000787FE
000F078E
000F078E
001E078E
001E03FC
003C01F8
003C03FE
0078078E
0078070F
00F0070F
00F0070F
01E0078E
01E007FE
03C003FC
000000F8
ENDCHAR
STARTCHAR 215D
ENCODING 8541
SWIDTH 676 0
DWIDTH 31 0
BBX 32 33 2 -1
BITMAP
7FC003C0
7FC003C0
7FC00780
70000700
70000F00
FF000E00
FF801E00
FFC01C00
F1E03C00
01E03800
01E07800
01E07000
F1E0F000
F1C0E000
7FC1E000
7F81C000
1F03C0F8
000383FC
000787FE
000F078E
000F078E
001E078E
001E03FC
003C01F8
003C03FE
0078078E
0078070F
00F0070F
00F0070F
01E0078E
01E007FE
03C003FC
000000F8
ENDCHAR
STARTCHAR 215E
ENCODING 8542
SWIDTH 676 0
DWIDTH 31 0
BBX 30 33 4 -1
BITMAP
FFC00F00
FFC00F00
FFC01E00
01C01C00
03803C00
03803800
07007800
07007000
0E00F000
0E00E000
1E01E000
1C01C000
1C03C000
3C038000
3C078000
3C070000
000F03E0
000E0FF0
001E1FF8
003C1E38
003C1E38
00781E38
00780FF0
00F007E0
00F00FF8
01E01E38
01E01C3C
03C01C3C
03C01C3C
07801E38
07801FF8
0F000FF0
000003E0
ENDCHAR
STARTCHAR 2190
ENCODING 8592
SWIDTH 1003 0
DWIDTH 46 0
BBX 28 10 9 3
BITMAP
03000000
06000000
0C000000
3C000000
7FFFFFF0
FFFFFFF0
3C000000
0C000000
06000000
03000000
ENDCHAR
STARTCHAR 2191
ENCODING 8593
SWIDTH 501 0
DWIDTH 23 0
BBX 11 27 6 -1
BITMAP
0400
0E00
0E00
1F00
3F80
75C0
E4E0
8420
0400
0400
0400
0400
0400
0400
0400
0400
0400
0400
0400
0400
0400
0400
0400
0400
0400
0400
0400
ENDCHAR
STARTCHAR 2192
ENCODING 8594
SWIDTH 1003 0
DWIDTH 46 0
BBX 27 10 9 3
BITMAP
00000C00
00000600
00000700
000003C0
FFFFFFE0
FFFFFFE0
000003C0
00000700
00000600
00000C00
ENDCHAR
STARTCHAR 2193
ENCODING 8595
SWIDTH 501 0
DWIDTH 23 0
BBX 11 27 6 -1
BITMAP
0400
0400
0400
0400
0400
0400
0400
0400
0400
0400
0400
0400
0400
0400
0400
0400
0400
0400
0400
0400
C460
E4E0
7FC0
3F80
1F00
0E00
0400
ENDCHAR
STARTCHAR 2194
ENCODING 8596
SWIDTH 1003 0
DWIDTH 46 0
BBX 27 10 9 3
BITMAP
03000C00
06000600
0C000700
3C0003C0
7FFFFFE0
FFFFFFE0
3C0003C0
0C000700
06000600
03000C00
ENDCHAR
STARTCHAR 2195
ENCODING 8597
SWIDTH 501 0
DWIDTH 23 0
BBX 11 27 6 -1
BITMAP
0400
0E00
0E00
1F00
3F80
75C0
E4E0
8420
0400
0400
0400
0400
0400
0400
0400
0400
0400
0400
0400
0400
C460
E4E0
7FC0
3F80
1F00
0E00
0400
ENDCHAR
STARTCHAR 21A8
ENCODING 8616
SWIDTH 501 0
DWIDTH 23 0
BBX 11 30 6 -4
BITMAP
0400
0E00
0E00
1F00
3F80
75C0
E4E0
8420
0400
0400
0400
0400
0400
0400
0400
0400
0400
0400
0400
0400
C460
E4E0
7FC0
3F80
1F00
0E00
0400
0000
FFE0
FFE0
ENDCHAR
STARTCHAR 2202
ENCODING 8706
SWIDTH 501 0
DWIDTH 23 0
BBX 20 34 1 -1
BITMAP
00FC00
03FF00
03FF80
03FFC0
030FE0
0007E0
0003E0
0003F0
0001F0
0001F0
0001F0
01F1F0
07F9F0
0FFDF0
1FFFF0
1F8FF0
3F07F0
3E03F0
7E03F0
7E03F0
7C03F0
7C03E0
FC03E0
FC07E0
FC07E0
FC07C0
FC0FC0
FC0F80
7C1F80
7E3F00
7FFE00
3FFC00
1FF800
07E000
ENDCHAR
STARTCHAR 2206
ENCODING 8710
SWIDTH 610 0
DWIDTH 28 0
BBX 26 32 1 0
BITMAP
007F8000
00FFC000
00FFC000
00FFC000
01FFE000
01FFE000
01FFE000
03F3F000
03F3F000
03F3F000
07E1F800
07E1F800
07E1F800
0FE0FC00
0FC0FC00
0FC0FC00
1FC0FE00
1F807E00
1F807E00
3F807F00
3F803F00
3F003F00
7F003F80
7F001F80
7E001F80
FE001FC0
FE001FC0
FFFFFFC0
FFFFFFC0
FFFFFFC0
FFFFFFC0
FFFFFFC0
ENDCHAR
STARTCHAR 220F
ENCODING 8719
SWIDTH 829 0
DWIDTH 38 0
BBX 28 41 5 -9
BITMAP
FFFFFFF0
FFFFFFF0
FFFFFFF0
FFFFFFF0
FFFFFFF0
FC0003F0
FC0003F0
FC0003F0
FC0003F0
FC0003F0
FC0003F0
FC0003F0
FC0003F0
FC0003F0
FC0003F0
FC0003F0
FC0003F0
FC0003F0
FC0003F0
FC0003F0
FC0003F0
FC0003F0
FC0003F0
FC0003F0
FC0003F0
FC0003F0
FC0003F0
FC0003F0
FC0003F0
FC0003F0
FC0003F0
FC0003F0
FC0003F0
FC0003F0
FC0003F0
FC0003F0
FC0003F0
FC0003F0
FC0003F0
FC0003F0
FC0003F0
ENDCHAR
STARTCHAR 2211
ENCODING 8721
SWIDTH 720 0
DWIDTH 33 0
BBX 27 42 3 -10
BITMAP
FFFFFFC0
FFFFFFC0
FFFFFFC0
FFFFFFC0
7FFFFFC0
3F800000
1FC00000
1FE00000
0FE00000
07F00000
03F80000
03FC0000
01FC0000
00FE0000
007F0000
007F8000
003F8000
001FC000
000FE000
000FF000
0007F000
0007F000
0007E000
000FE000
001FC000
003F8000
007F0000
007F0000
00FE0000
01FC0000
03F80000
03F80000
07F00000
0FE00000
1FC00000
3FC00000
3F800000
7FFFFFE0
FFFFFFE0
FFFFFFE0
FFFFFFE0
FFFFFFE0
ENDCHAR
STARTCHAR 2212
ENCODING 8722
SWIDTH 480 0
DWIDTH 22 0
BBX 18 5 2 13
BITMAP
FFFFC0
FFFFC0
FFFFC0
FFFFC0
FFFFC0
ENDCHAR
STARTCHAR 2215
ENCODING 8725
SWIDTH 130 0
DWIDTH 6 0
BBX 20 32 -7 0
BITMAP
0000F0
0000F0
0001E0
0001C0
0003C0
000380
000780
000700
000F00
000E00
001E00
001C00
003C00
003800
007800
007000
00F000
00E000
01E000
03C000
03C000
078000
078000
0F0000
0F0000
1E0000
1E0000
3C0000
3C0000
780000
780000
F00000
ENDCHAR
STARTCHAR 2219
ENCODING 8729
SWIDTH 283 0
DWIDTH 13 0
BBX 6 7 3 12
BITMAP
FC
FC
FC
FC
FC
FC
FC
ENDCHAR
STARTCHAR 221A
ENCODING 8730
SWIDTH 545 0
DWIDTH 25 0
BBX 25 37 0 -1
BITMAP
00000780
00000780
00000F00
00000F00
00000F00
00001F00
00001E00
00001E00
00003E00
00003C00
00003C00
00003C00
00007800
00007800
00007800
0000F000
FE00F000
FF00F000
FF01F000
FF01E000
0F81E000
0781E000
0783C000
07C3C000
03C3C000
03C78000
01E78000
01E78000
01EF8000
00FF0000
00FF0000
00FF0000
007E0000
007E0000
007E0000
003C0000
003C0000
ENDCHAR
STARTCHAR 221E
ENCODING 8734
SWIDTH 720 0
DWIDTH 33 0
BBX 29 17 2 5
BITMAP
0FC00F00
1FE03FC0
3FF07FE0
7FF8FFF0
FC7DF3F0
F83FE0F8
F01FC078
F00F8078
F00F8078
F00F8078
F01F8078
F83FC0F8
FC7DE1F8
7FF9FFF0
7FF0FFE0
1FE07FC0
0FC01F80
ENDCHAR
STARTCHAR 221F
ENCODING 8735
SWIDTH 981 0
DWIDTH 45 0
BBX 28 27 9 0
BITMAP
C0000000
C0000000
C0000000
C0000000
C0000000
C0000000
C0000000
C0000000
C0000000
C0000000
C0000000
C0000000
C0000000
C0000000
C0000000
C0000000
C0000000
C0000000
C0000000
C0000000
C0000000
C0000000
C0000000
C0000000
C0000000
FFFFFFF0
FFFFFFF0
ENDCHAR
STARTCHAR 2229
ENCODING 8745
SWIDTH 720 0
DWIDTH 33 0
BBX 21 23 6 0
BITMAP
01FC00
07FF00
0F0780
1C01C0
3800E0
300060
700030
600030
600038
E00038
E00018
E00018
E00018
E00018
E00018
E00018
E00018
E00018
E00018
E00018
E00018
E00018
E00018
ENDCHAR
STARTCHAR 222B
ENCODING 8747
SWIDTH 283 0
DWIDTH 13 0
BBX 19 44 -3 -10
BITMAP
000FE0
003FE0
00FFE0
00FFE0
01FFE0
01FC00
03F800
03F800
03F800
03F800
03F800
03F800
03F800
03F800
03F800
03F800
03F800
03F800
03F800
03F800
03F800
03F800
03F800
03F800
03F800
03F800
03F800
03F800
03F800
03F800
03F800
03F800
03F800
03F800
03F800
03F800
03F800
03F000
07F000
FFF000
FFE000
FFC000
FF8000
FE0000
ENDCHAR
STARTCHAR 2248
ENCODING 8776
SWIDTH 545 0
DWIDTH 25 0
BBX 23 19 1 6
BITMAP
1F8000
7FE002
FFFE0E
FFFFFE
FFFFFE
E0FFFE
801FFE
0003F8
000000
000000
000000
1F8000
7FF002
FFFC0E
FFFFFE
FFFFFE
E0FFFE
801FFE
0003F8
ENDCHAR
STARTCHAR 2260
ENCODING 8800
SWIDTH 545 0
DWIDTH 25 0
BBX 24 27 1 2
BITMAP
0000F8
0001F0
0001E0
0003E0
0007C0
FFFFFF
FFFFFF
FFFFFF
FFFFFF
FFFFFF
003E00
003E00
007C00
007C00
00F800
00F800
01F000
FFFFFF
FFFFFF
FFFFFF
FFFFFF
FFFFFF
0F8000
0F0000
1F0000
1E0000
3E0000
ENDCHAR
STARTCHAR 2261
ENCODING 8801
SWIDTH 480 0
DWIDTH 22 0
BBX 18 19 2 5
BITMAP
FFFFC0
FFFFC0
FFFFC0
000000
000000
000000
000000
000000
FFFFC0
FFFFC0
FFFFC0
000000
000000
000000
000000
000000
FFFFC0
FFFFC0
FFFFC0
ENDCHAR
STARTCHAR 2264
ENCODING 8804
SWIDTH 545 0
DWIDTH 25 0
BBX 23 29 1 0
BITMAP
000006
00003E
0001FE
000FFE
007FFE
03FFF8
1FFFC0
FFFE00
FFF800
FFC000
FE0000
F80000
FF0000
FFE000
FFFC00
3FFF80
07FFF0
00FFFE
001FFE
0003FE
00007E
00000E
000000
000000
FFFFFE
FFFFFE
FFFFFE
FFFFFE
FFFFFE
ENDCHAR
STARTCHAR 2265
ENCODING 8805
SWIDTH 545 0
DWIDTH 25 0
BBX 23 29 1 0
BITMAP
C00000
F80000
FF0000
FFE000
FFFC00
3FFF80
07FFF0
00FFFE
001FFE
0003FE
00007E
00003E
0001FE
000FFE
007FFE
03FFF8
1FFFC0
FFFE00
FFF000
FF8000
FC0000
E00000
000000
000000
FFFFFE
FFFFFE
FFFFFE
FFFFFE
FFFFFE
ENDCHAR
STARTCHAR 2302
ENCODING 8962
SWIDTH 610 0
DWIDTH 28 0
BBX 20 26 4 0
BITMAP
004000
006000
00F000
01B800
031C00
070E00
0E0600
1C0300
380180
7000C0
600060
C00070
800030
800030
800030
800030
800030
800030
800030
800030
800030
800030
800030
800030
FFFFF0
FFFFF0
ENDCHAR
STARTCHAR 2310
ENCODING 8976
SWIDTH 480 0
DWIDTH 22 0
BBX 18 12 2 5
BITMAP
FFFFC0
FFFFC0
FFFFC0
E00000
E00000
E00000
E00000
E00000
E00000
E00000
E00000
E00000
ENDCHAR
STARTCHAR 2320
ENCODING 8992
SWIDTH 610 0
DWIDTH 28 0
BBX 10 52 12 -14
BITMAP
0780
1FC0
33C0
7180
7000
7000
7000
F000
F000
F000
F000
F000
F000
F000
F000
F000
F000
F000
F000
F000
F000
F000
F000
F000
F000
F000
F000
F000
F000
F000
F000
F000
F000
F000
F000
F000
F000
F000
F000
F000
F000
F000
F000
F000
F000
F000
F000
F000
F000
F000
F000
F000
ENDCHAR
STARTCHAR 2321
ENCODING 8993
SWIDTH 610 0
DWIDTH 28 0
BBX 10 52 6 -14
BITMAP
03C0
03C0
03C0
03C0
03C0
03C0
03C0
03C0
03C0
03C0
03C0
03C0
03C0
03C0
03C0
03C0
03C0
03C0
03C0
03C0
03C0
03C0
03C0
03C0
03C0
03C0
03C0
03C0
03C0
03C0
03C0
03C0
03C0
03C0
03C0
03C0
03C0
03C0
03C0
03C0
03C0
03C0
03C0
03C0
0380
0380
0380
0380
E300
F300
FE00
7800
ENDCHAR
STARTCHAR 2500
ENCODING 9472
SWIDTH 720 0
DWIDTH 33 0
BBX 33 3 0 12
BITMAP
FFFFFFFF80
FFFFFFFF80
FFFFFFFF80
ENDCHAR
STARTCHAR 2502
ENCODING 9474
SWIDTH 610 0
DWIDTH 28 0
BBX 4 56 10 -14
BITMAP
F0
F0
F0
F0
F0
F0
F0
F0
F0
F0
F0
F0
F0
F0
F0
F0
F0
F0
F0
F0
F0
F0
F0
F0
F0
F0
F0
F0
F0
F0
F0
F0
F0
F0
F0
F0
F0
F0
F0
F0
F0
F0
F0
F0
F0
F0
F0
F0
F0
F0
F0
F0
F0
F0
F0
F0
ENDCHAR
STARTCHAR 250C
ENCODING 9484
SWIDTH 720 0
DWIDTH 33 0
BBX 18 29 15 -14
BITMAP
FFFFC0
FFFFC0
FFFFC0
E00000
E00000
E00000
E00000
E00000
E00000
E00000
E00000
E00000
E00000
E00000
E00000
E00000
E00000
E00000
E00000
E00000
E00000
E00000
E00000
E00000
E00000
E00000
E00000
E00000
E00000
ENDCHAR
STARTCHAR 2510
ENCODING 9488
SWIDTH 720 0
DWIDTH 33 0
BBX 18 29 0 -14
BITMAP
FFFFC0
FFFFC0
FFFFC0
0001C0
0001C0
0001C0
0001C0
0001C0
0001C0
0001C0
0001C0
0001C0
0001C0
0001C0
0001C0
0001C0
0001C0
0001C0
0001C0
0001C0
0001C0
0001C0
0001C0
0001C0
0001C0
0001C0
0001C0
0001C0
0001C0
ENDCHAR
STARTCHAR 2514
ENCODING 9492
SWIDTH 720 0
DWIDTH 33 0
BBX 18 29 15 12
BITMAP
E00000
E00000
E00000
E00000
E00000
E00000
E00000
E00000
E00000
E00000
E00000
E00000
E00000
E00000
E00000
E00000
E00000
E00000
E00000
E00000
E00000
E00000
E00000
E00000
E00000
E00000
FFFFC0
FFFFC0
FFFFC0
ENDCHAR
STARTCHAR 2518
ENCODING 9496
SWIDTH 720 0
DWIDTH 33 0
BBX 18 29 0 12
BITMAP
0001C0
0001C0
0001C0
0001C0
0001C0
0001C0
0001C0
0001C0
0001C0
0001C0
0001C0
0001C0
0001C0
0001C0
0001C0
0001C0
0001C0
0001C0
0001C0
0001C0
0001C0
0001C0
0001C0
0001C0
0001C0
0001C0
FFFFC0
FFFFC0
FFFFC0
ENDCHAR
STARTCHAR 251C
ENCODING 9500
SWIDTH 720 0
DWIDTH 33 0
BBX 18 55 15 -14
BITMAP
E00000
E00000
E00000
E00000
E00000
E00000
E00000
E00000
E00000
E00000
E00000
E00000
E00000
E00000
E00000
E00000
E00000
E00000
E00000
E00000
E00000
E00000
E00000
E00000
E00000
E00000
FFFFC0
FFFFC0
FFFFC0
E00000
E00000
E00000
E00000
E00000
E00000
E00000
E00000
E00000
E00000
E00000
E00000
E00000
E00000
E00000
E00000
E00000
E00000
E00000
E00000
E00000
E00000
E00000
E00000
E00000
E00000
ENDCHAR
STARTCHAR 2524
ENCODING 9508
SWIDTH 720 0
DWIDTH 33 0
BBX 18 55 0 -14
BITMAP
0001C0
0001C0
0001C0
0001C0
0001C0
0001C0
0001C0
0001C0
0001C0
0001C0
0001C0
0001C0
0001C0
0001C0
0001C0
0001C0
0001C0
0001C0
0001C0
0001C0
0001C0
0001C0
0001C0
0001C0
0001C0
0001C0
FFFFC0
FFFFC0
FFFFC0
0001C0
0001C0
0001C0
0001C0
0001C0
0001C0
0001C0
0001C0
0001C0
0001C0
0001C0
0001C0
0001C0
0001C0
0001C0
0001C0
0001C0
0001C0
0001C0
0001C0
0001C0
0001C0
0001C0
0001C0
0001C0
0001C0
ENDCHAR
STARTCHAR 252C
ENCODING 9516
SWIDTH 720 0
DWIDTH 33 0
BBX 33 29 0 -14
BITMAP
FFFFFFFF80
FFFFFFFF80
FFFFFFFF80
0001C00000
0001C00000
0001C00000
0001C00000
0001C00000
0001C00000
0001C00000
0001C00000
0001C00000
0001C00000
0001C00000
0001C00000
0001C00000
0001C00000
0001C00000
0001C00000
0001C00000
0001C00000
0001C00000
0001C00000
0001C00000
0001C00000
0001C00000
0001C00000
0001C00000
0001C00000
ENDCHAR
STARTCHAR 2534
ENCODING 9524
SWIDTH 720 0
DWIDTH 33 0
BBX 33 29 0 12
BITMAP
0001C00000
0001C00000
0001C00000
0001C00000
0001C00000
0001C00000
0001C00000
0001C00000
0001C00000
0001C00000
0001C00000
0001C00000
0001C00000
0001C00000
0001C00000
0001C00000
0001C00000
0001C00000
0001C00000
0001C00000
0001C00000
0001C00000
0001C00000
0001C00000
0001C00000
0001C00000
FFFFFFFF80
FFFFFFFF80
FFFFFFFF80
ENDCHAR
STARTCHAR 253C
ENCODING 9532
SWIDTH 720 0
DWIDTH 33 0
BBX 33 55 0 -14
BITMAP
0001C00000
0001C00000
0001C00000
0001C00000
0001C00000
0001C00000
0001C00000
0001C00000
0001C00000
0001C00000
0001C00000
0001C00000
0001C00000
0001C00000
0001C00000
0001C00000
0001C00000
0001C00000
0001C00000
0001C00000
0001C00000
0001C00000
0001C00000
0001C00000
0001C00000
0001C00000
FFFFFFFF80
FFFFFFFF80
FFFFFFFF80
0001C00000
0001C00000
0001C00000
0001C00000
0001C00000
0001C00000
0001C00000
0001C00000
0001C00000
0001C00000
0001C00000
0001C00000
0001C00000
0001C00000
0001C00000
0001C00000
0001C00000
0001C00000
0001C00000
0001C00000
0001C00000
0001C00000
0001C00000
0001C00000
0001C00000
0001C00000
ENDCHAR
STARTCHAR 2550
ENCODING 9552
SWIDTH 720 0
DWIDTH 33 0
BBX 33 11 0 8
BITMAP
FFFFFFFF80
FFFFFFFF80
FFFFFFFF80
0000000000
0000000000
0000000000
0000000000
0000000000
FFFFFFFF80
FFFFFFFF80
FFFFFFFF80
ENDCHAR
STARTCHAR 2551
ENCODING 9553
SWIDTH 720 0
DWIDTH 33 0
BBX 11 56 11 -14
BITMAP
E0E0
E0E0
E0E0
E0E0
E0E0
E0E0
E0E0
E0E0
E0E0
E0E0
E0E0
E0E0
E0E0
E0E0
E0E0
E0E0
E0E0
E0E0
E0E0
E0E0
E0E0
E0E0
E0E0
E0E0
E0E0
E0E0
E0E0
E0E0
E0E0
E0E0
E0E0
E0E0
E0E0
E0E0
E0E0
E0E0
E0E0
E0E0
E0E0
E0E0
E0E0
E0E0
E0E0
E0E0
E0E0
E0E0
E0E0
E0E0
E0E0
E0E0
E0E0
E0E0
E0E0
E0E0
E0E0
E0E0
ENDCHAR
STARTCHAR 2552
ENCODING 9554
SWIDTH 720 0
DWIDTH 33 0
BBX 18 33 15 -14
BITMAP
FFFFC0
FFFFC0
FFFFC0
E00000
E00000
E00000
E00000
E00000
FFFFC0
FFFFC0
FFFFC0
E00000
E00000
E00000
E00000
E00000
E00000
E00000
E00000
E00000
E00000
E00000
E00000
E00000
E00000
E00000
E00000
E00000
E00000
E00000
E00000
E00000
E00000
ENDCHAR
STARTCHAR 2553
ENCODING 9555
SWIDTH 720 0
DWIDTH 33 0
BBX 22 29 11 -14
BITMAP
FFFFFC
FFFFFC
FFFFFC
E0E000
E0E000
E0E000
E0E000
E0E000
E0E000
E0E000
E0E000
E0E000
E0E000
E0E000
E0E000
E0E000
E0E000
E0E000
E0E000
E0E000
E0E000
E0E000
E0E000
E0E000
E0E000
E0E000
E0E000
E0E000
E0E000
ENDCHAR
STARTCHAR 2554
ENCODING 9556
SWIDTH 720 0
DWIDTH 33 0
BBX 22 33 11 -14
BITMAP
FFFFFC
FFFFFC
FFFFFC
E00000
E00000
E00000
E00000
E00000
E0FFFC
E0FFFC
E0FFFC
E0E000
E0E000
E0E000
E0E000
E0E000
E0E000
E0E000
E0E000
E0E000
E0E000
E0E000
E0E000
E0E000
E0E000
E0E000
E0E000
E0E000
E0E000
E0E000
E0E000
E0E000
E0E000
ENDCHAR
STARTCHAR 2555
ENCODING 9557
SWIDTH 720 0
DWIDTH 33 0
BBX 18 33 0 -14
BITMAP
FFFFC0
FFFFC0
FFFFC0
0001C0
0001C0
0001C0
0001C0
0001C0
FFFFC0
FFFFC0
FFFFC0
0001C0
0001C0
0001C0
0001C0
0001C0
0001C0
0001C0
0001C0
0001C0
0001C0
0001C0
0001C0
0001C0
0001C0
0001C0
0001C0
0001C0
0001C0
0001C0
0001C0
0001C0
0001C0
ENDCHAR
STARTCHAR 2556
ENCODING 9558
SWIDTH 720 0
DWIDTH 33 0
BBX 22 29 0 -14
BITMAP
FFFFFC
FFFFFC
FFFFFC
001C1C
001C1C
001C1C
001C1C
001C1C
001C1C
001C1C
001C1C
001C1C
001C1C
001C1C
001C1C
001C1C
001C1C
001C1C
001C1C
001C1C
001C1C
001C1C
001C1C
001C1C
001C1C
001C1C
001C1C
001C1C
001C1C
ENDCHAR
STARTCHAR 2557
ENCODING 9559
SWIDTH 720 0
DWIDTH 33 0
BBX 22 33 0 -14
BITMAP
FFFFFC
FFFFFC
FFFFFC
00001C
00001C
00001C
00001C
00001C
FFFC1C
FFFC1C
FFFC1C
001C1C
001C1C
001C1C
001C1C
001C1C
001C1C
001C1C
001C1C
001C1C
001C1C
001C1C
001C1C
001C1C
001C1C
001C1C
001C1C
001C1C
001C1C
001C1C
001C1C
001C1C
001C1C
ENDCHAR
STARTCHAR 2558
ENCODING 9560
SWIDTH 720 0
DWIDTH 33 0
BBX 18 33 15 8
BITMAP
E00000
E00000
E00000
E00000
E00000
E00000
E00000
E00000
E00000
E00000
E00000
E00000
E00000
E00000
E00000
E00000
E00000
E00000
E00000
E00000
E00000
E00000
FFFFC0
FFFFC0
FFFFC0
E00000
E00000
E00000
E00000
E00000
FFFFC0
FFFFC0
FFFFC0
ENDCHAR
STARTCHAR 2559
ENCODING 9561
SWIDTH 720 0
DWIDTH 33 0
BBX 22 29 11 12
BITMAP
E0E000
E0E000
E0E000
E0E000
E0E000
E0E000
E0E000
E0E000
E0E000
E0E000
E0E000
E0E000
E0E000
E0E000
E0E000
E0E000
E0E000
E0E000
E0E000
E0E000
E0E000
E0E000
E0E000
E0E000
E0E000
E0E000
FFFFFC
FFFFFC
FFFFFC
ENDCHAR
STARTCHAR 255A
ENCODING 9562
SWIDTH 720 0
DWIDTH 33 0
BBX 22 33 11 8
BITMAP
E0E000
E0E000
E0E000
E0E000
E0E000
E0E000
E0E000
E0E000
E0E000
E0E000
E0E000
E0E000
E0E000
E0E000
E0E000
E0E000
E0E000
E0E000
E0E000
E0E000
E0E000
E0E000
E0FFFC
E0FFFC
E0FFFC
E00000
E00000
E00000
E00000
E00000
FFFFFC
FFFFFC
FFFFFC
ENDCHAR
STARTCHAR 255B
ENCODING 9563
SWIDTH 720 0
DWIDTH 33 0
BBX 18 33 0 8
BITMAP
0001C0
0001C0
0001C0
0001C0
0001C0
0001C0
0001C0
0001C0
0001C0
0001C0
0001C0
0001C0
0001C0
0001C0
0001C0
0001C0
0001C0
0001C0
0001C0
0001C0
0001C0
0001C0
FFFFC0
FFFFC0
FFFFC0
0001C0
0001C0
0001C0
0001C0
0001C0
FFFFC0
FFFFC0
FFFFC0
ENDCHAR
STARTCHAR 255C
ENCODING 9564
SWIDTH 720 0
DWIDTH 33 0
BBX 22 29 0 12
BITMAP
001C1C
001C1C
001C1C
001C1C
001C1C
001C1C
001C1C
001C1C
001C1C
001C1C
001C1C
001C1C
001C1C
001C1C
001C1C
001C1C
001C1C
001C1C
001C1C
001C1C
001C1C
001C1C
001C1C
001C1C
001C1C
001C1C
FFFFFC
FFFFFC
FFFFFC
ENDCHAR
STARTCHAR 255D
ENCODING 9565
SWIDTH 720 0
DWIDTH 33 0
BBX 22 33 0 8
BITMAP
001C1C
001C1C
001C1C
001C1C
001C1C
001C1C
001C1C
001C1C
001C1C
001C1C
001C1C
001C1C
001C1C
001C1C
001C1C
001C1C
001C1C
001C1C
001C1C
001C1C
001C1C
001C1C
FFFC1C
FFFC1C
FFFC1C
00001C
00001C
00001C
00001C
00001C
FFFFFC
FFFFFC
FFFFFC
ENDCHAR
STARTCHAR 255E
ENCODING 9566
SWIDTH 720 0
DWIDTH 33 0
BBX 18 55 15 -14
BITMAP
E00000
E00000
E00000
E00000
E00000
E00000
E00000
E00000
E00000
E00000
E00000
E00000
E00000
E00000
E00000
E00000
E00000
E00000
E00000
E00000
E00000
E00000
FFFFC0
FFFFC0
FFFFC0
E00000
E00000
E00000
E00000
E00000
FFFFC0
FFFFC0
FFFFC0
E00000
E00000
E00000
E00000
E00000
E00000
E00000
E00000
E00000
E00000
E00000
E00000
E00000
E00000
E00000
E00000
E00000
E00000
E00000
E00000
E00000
E00000
ENDCHAR
STARTCHAR 255F
ENCODING 9567
SWIDTH 720 0
DWIDTH 33 0
BBX 22 55 11 -14
BITMAP
E0E000
E0E000
E0E000
E0E000
E0E000
E0E000
E0E000
E0E000
E0E000
E0E000
E0E000
E0E000
E0E000
E0E000
E0E000
E0E000
E0E000
E0E000
E0E000
E0E000
E0E000
E0E000
E0E000
E0E000
E0E000
E0E000
E0FFFC
E0FFFC
E0FFFC
E0E000
E0E000
E0E000
E0E000
E0E000
E0E000
E0E000
E0E000
E0E000
E0E000
E0E000
E0E000
E0E000
E0E000
E0E000
E0E000
E0E000
E0E000
E0E000
E0E000
E0E000
E0E000
E0E000
E0E000
E0E000
E0E000
ENDCHAR
STARTCHAR 2560
ENCODING 9568
SWIDTH 720 0
DWIDTH 33 0
BBX 22 55 11 -14
BITMAP
E0E000
E0E000
E0E000
E0E000
E0E000
E0E000
E0E000
E0E000
E0E000
E0E000
E0E000
E0E000
E0E000
E0E000
E0E000
E0E000
E0E000
E0E000
E0E000
E0E000
E0E000
E0E000
E0FFFC
E0FFFC
E0FFFC
E00000
E00000
E00000
E00000
E00000
E0FFFC
E0FFFC
E0FFFC
E0E000
E0E000
E0E000
E0E000
E0E000
E0E000
E0E000
E0E000
E0E000
E0E000
E0E000
E0E000
E0E000
E0E000
E0E000
E0E000
E0E000
E0E000
E0E000
E0E000
E0E000
E0E000
ENDCHAR
STARTCHAR 2561
ENCODING 9569
SWIDTH 720 0
DWIDTH 33 0
BBX 18 55 0 -14
BITMAP
0001C0
0001C0
0001C0
0001C0
0001C0
0001C0
0001C0
0001C0
0001C0
0001C0
0001C0
0001C0
0001C0
0001C0
0001C0
0001C0
0001C0
0001C0
0001C0
0001C0
0001C0
0001C0
FFFFC0
FFFFC0
FFFFC0
0001C0
0001C0
0001C0
0001C0
0001C0
FFFFC0
FFFFC0
FFFFC0
0001C0
0001C0
0001C0
0001C0
0001C0
0001C0
0001C0
0001C0
0001C0
0001C0
0001C0
0001C0
0001C0
0001C0
0001C0
0001C0
0001C0
0001C0
0001C0
0001C0
0001C0
0001C0
ENDCHAR
STARTCHAR 2562
ENCODING 9570
SWIDTH 720 0
DWIDTH 33 0
BBX 22 55 0 -14
BITMAP
001C1C
001C1C
001C1C
001C1C
001C1C
001C1C
001C1C
001C1C
001C1C
001C1C
001C1C
001C1C
001C1C
001C1C
001C1C
001C1C
001C1C
001C1C
001C1C
001C1C
001C1C
001C1C
001C1C
001C1C
001C1C
001C1C
FFFC1C
FFFC1C
FFFC1C
001C1C
001C1C
001C1C
001C1C
001C1C
001C1C
001C1C
001C1C
001C1C
001C1C
001C1C
001C1C
001C1C
001C1C
001C1C
001C1C
001C1C
001C1C
001C1C
001C1C
001C1C
001C1C
001C1C
001C1C
001C1C
001C1C
ENDCHAR
STARTCHAR 2563
ENCODING 9571
SWIDTH 720 0
DWIDTH 33 0
BBX 22 55 0 -14
BITMAP
001C1C
001C1C
001C1C
001C1C
001C1C
001C1C
001C1C
001C1C
001C1C
001C1C
001C1C
001C1C
001C1C
001C1C
001C1C
001C1C
001C1C
001C1C
001C1C
001C1C
001C1C
001C1C
FFFC1C
FFFC1C
FFFC1C
00001C
00001C
00001C
00001C
00001C
FFFC1C
FFFC1C
FFFC1C
001C1C
001C1C
001C1C
001C1C
001C1C
001C1C
001C1C
001C1C
001C1C
001C1C
001C1C
001C1C
001C1C
001C1C
001C1C
001C1C
001C1C
001C1C
001C1C
001C1C
001C1C
001C1C
ENDCHAR
STARTCHAR 2564
ENCODING 9572
SWIDTH 720 0
DWIDTH 33 0
BBX 33 33 0 -14
BITMAP
FFFFFFFF80
FFFFFFFF80
FFFFFFFF80
0000000000
0000000000
0000000000
0000000000
0000000000
FFFFFFFF80
FFFFFFFF80
FFFFFFFF80
0001C00000
0001C00000
0001C00000
0001C00000
0001C00000
0001C00000
0001C00000
0001C00000
0001C00000
0001C00000
0001C00000
0001C00000
0001C00000
0001C00000
0001C00000
0001C00000
0001C00000
0001C00000
0001C00000
0001C00000
0001C00000
0001C00000
ENDCHAR
STARTCHAR 2565
ENCODING 9573
SWIDTH 720 0
DWIDTH 33 0
BBX 33 29 0 -14
BITMAP
FFFFFFFF80
FFFFFFFF80
FFFFFFFF80
001C1C0000
001C1C0000
001C1C0000
001C1C0000
001C1C0000
001C1C0000
001C1C0000
001C1C0000
001C1C0000
001C1C0000
001C1C0000
001C1C0000
001C1C0000
001C1C0000
001C1C0000
001C1C0000
001C1C0000
001C1C0000
001C1C0000
001C1C0000
001C1C0000
001C1C0000
001C1C0000
001C1C0000
001C1C0000
001C1C0000
ENDCHAR
STARTCHAR 2566
ENCODING 9574
SWIDTH 720 0
DWIDTH 33 0
BBX 33 33 0 -14
BITMAP
FFFFFFFF80
FFFFFFFF80
FFFFFFFF80
0000000000
0000000000
0000000000
0000000000
0000000000
FFFC1FFF80
FFFC1FFF80
FFFC1FFF80
001C1C0000
001C1C0000
001C1C0000
001C1C0000
001C1C0000
001C1C0000
001C1C0000
001C1C0000
001C1C0000
001C1C0000
001C1C0000
001C1C0000
001C1C0000
001C1C0000
001C1C0000
001C1C0000
001C1C0000
001C1C0000
001C1C0000
001C1C0000
001C1C0000
001C1C0000
ENDCHAR
STARTCHAR 2567
ENCODING 9575
SWIDTH 720 0
DWIDTH 33 0
BBX 33 33 0 8
BITMAP
0001C00000
0001C00000
0001C00000
0001C00000
0001C00000
0001C00000
0001C00000
0001C00000
0001C00000
0001C00000
0001C00000
0001C00000
0001C00000
0001C00000
0001C00000
0001C00000
0001C00000
0001C00000
0001C00000
0001C00000
0001C00000
0001C00000
FFFFFFFF80
FFFFFFFF80
FFFFFFFF80
0000000000
0000000000
0000000000
0000000000
0000000000
FFFFFFFF80
FFFFFFFF80
FFFFFFFF80
ENDCHAR
STARTCHAR 2568
ENCODING 9576
SWIDTH 720 0
DWIDTH 33 0
BBX 33 29 0 12
BITMAP
001C1C0000
001C1C0000
001C1C0000
001C1C0000
001C1C0000
001C1C0000
001C1C0000
001C1C0000
001C1C0000
001C1C0000
001C1C0000
001C1C0000
001C1C0000
001C1C0000
001C1C0000
001C1C0000
001C1C0000
001C1C0000
001C1C0000
001C1C0000
001C1C0000
001C1C0000
001C1C0000
001C1C0000
001C1C0000
001C1C0000
FFFFFFFF80
FFFFFFFF80
FFFFFFFF80
ENDCHAR
STARTCHAR 2569
ENCODING 9577
SWIDTH 720 0
DWIDTH 33 0
BBX 33 33 0 8
BITMAP
001C1C0000
001C1C0000
001C1C0000
001C1C0000
001C1C0000
001C1C0000
001C1C0000
001C1C0000
001C1C0000
001C1C0000
001C1C0000
001C1C0000
001C1C0000
001C1C0000
001C1C0000
001C1C0000
001C1C0000
001C1C0000
001C1C0000
001C1C0000
001C1C0000
001C1C0000
FFFC1FFF80
FFFC1FFF80
FFFC1FFF80
0000000000
0000000000
0000000000
0000000000
0000000000
FFFFFFFF80
FFFFFFFF80
FFFFFFFF80
ENDCHAR
STARTCHAR 256A
ENCODING 9578
SWIDTH 720 0
DWIDTH 33 0
BBX 33 55 0 -14
BITMAP
0001C00000
0001C00000
0001C00000
0001C00000
0001C00000
0001C00000
0001C00000
0001C00000
0001C00000
0001C00000
0001C00000
0001C00000
0001C00000
0001C00000
0001C00000
0001C00000
0001C00000
0001C00000
0001C00000
0001C00000
0001C00000
0001C00000
FFFFFFFF80
FFFFFFFF80
FFFFFFFF80
0001C00000
0001C00000
0001C00000
0001C00000
0001C00000
FFFFFFFF80
FFFFFFFF80
FFFFFFFF80
0001C00000
0001C00000
0001C00000
0001C00000
0001C00000
0001C00000
0001C00000
0001C00000
0001C00000
0001C00000
0001C00000
0001C00000
0001C00000
0001C00000
0001C00000
0001C00000
0001C00000
0001C00000
0001C00000
0001C00000
0001C00000
0001C00000
ENDCHAR
STARTCHAR 256B
ENCODING 9579
SWIDTH 720 0
DWIDTH 33 0
BBX 33 55 0 -14
BITMAP
001C1C0000
001C1C0000
001C1C0000
001C1C0000
001C1C0000
001C1C0000
001C1C0000
001C1C0000
001C1C0000
001C1C0000
001C1C0000
001C1C0000
001C1C0000
001C1C0000
001C1C0000
001C1C0000
001C1C0000
001C1C0000
001C1C0000
001C1C0000
001C1C0000
001C1C0000
001C1C0000
001C1C0000
001C1C0000
001C1C0000
FFFFFFFF80
FFFFFFFF80
FFFFFFFF80
001C1C0000
001C1C0000
001C1C0000
001C1C0000
001C1C0000
001C1C0000
001C1C0000
001C1C0000
001C1C0000
001C1C0000
001C1C0000
001C1C0000
001C1C0000
001C1C0000
001C1C0000
001C1C0000
001C1C0000
001C1C0000
001C1C0000
001C1C0000
001C1C0000
001C1C0000
001C1C0000
001C1C0000
001C1C0000
001C1C0000
ENDCHAR
STARTCHAR 256C
ENCODING 9580
SWIDTH 720 0
DWIDTH 33 0
BBX 33 55 0 -14
BITMAP
001C1C0000
001C1C0000
001C1C0000
001C1C0000
001C1C0000
001C1C0000
001C1C0000
001C1C0000
001C1C0000
001C1C0000
001C1C0000
001C1C0000
001C1C0000
001C1C0000
001C1C0000
001C1C0000
001C1C0000
001C1C0000
001C1C0000
001C1C0000
001C1C0000
001C1C0000
FFFC1FFF80
FFFC1FFF80
FFFC1FFF80
0000000000
0000000000
0000000000
0000000000
0000000000
FFFC1FFF80
FFFC1FFF80
FFFC1FFF80
001C1C0000
001C1C0000
001C1C0000
001C1C0000
001C1C0000
001C1C0000
001C1C0000
001C1C0000
001C1C0000
001C1C0000
001C1C0000
001C1C0000
001C1C0000
001C1C0000
001C1C0000
001C1C0000
001C1C0000
001C1C0000
001C1C0000
001C1C0000
001C1C0000
001C1C0000
ENDCHAR
STARTCHAR 2580
ENCODING 9600
SWIDTH 720 0
DWIDTH 33 0
BBX 33 28 0 14
BITMAP
FFFFFFFF80
FFFFFFFF80
FFFFFFFF80
FFFFFFFF80
FFFFFFFF80
FFFFFFFF80
FFFFFFFF80
FFFFFFFF80
FFFFFFFF80
FFFFFFFF80
FFFFFFFF80
FFFFFFFF80
FFFFFFFF80
FFFFFFFF80
FFFFFFFF80
FFFFFFFF80
FFFFFFFF80
FFFFFFFF80
FFFFFFFF80
FFFFFFFF80
FFFFFFFF80
FFFFFFFF80
FFFFFFFF80
FFFFFFFF80
FFFFFFFF80
FFFFFFFF80
FFFFFFFF80
FFFFFFFF80
ENDCHAR
STARTCHAR 2584
ENCODING 9604
SWIDTH 720 0
DWIDTH 33 0
BBX 33 28 0 -14
BITMAP
FFFFFFFF80
FFFFFFFF80
FFFFFFFF80
FFFFFFFF80
FFFFFFFF80
FFFFFFFF80
FFFFFFFF80
FFFFFFFF80
FFFFFFFF80
FFFFFFFF80
FFFFFFFF80
FFFFFFFF80
FFFFFFFF80
FFFFFFFF80
FFFFFFFF80
FFFFFFFF80
FFFFFFFF80
FFFFFFFF80
FFFFFFFF80
FFFFFFFF80
FFFFFFFF80
FFFFFFFF80
FFFFFFFF80
FFFFFFFF80
FFFFFFFF80
FFFFFFFF80
FFFFFFFF80
FFFFFFFF80
ENDCHAR
STARTCHAR 2588
ENCODING 9608
SWIDTH 720 0
DWIDTH 33 0
BBX 33 56 0 -14
BITMAP
FFFFFFFF80
FFFFFFFF80
FFFFFFFF80
FFFFFFFF80
FFFFFFFF80
FFFFFFFF80
FFFFFFFF80
FFFFFFFF80
FFFFFFFF80
FFFFFFFF80
FFFFFFFF80
FFFFFFFF80
FFFFFFFF80
FFFFFFFF80
FFFFFFFF80
FFFFFFFF80
FFFFFFFF80
FFFFFFFF80
FFFFFFFF80
FFFFFFFF80
FFFFFFFF80
FFFFFFFF80
FFFFFFFF80
FFFFFFFF80
FFFFFFFF80
FFFFFFFF80
FFFFFFFF80
FFFFFFFF80
FFFFFFFF80
FFFFFFFF80
FFFFFFFF80
FFFFFFFF80
FFFFFFFF80
FFFFFFFF80
FFFFFFFF80
FFFFFFFF80
FFFFFFFF80
FFFFFFFF80
FFFFFFFF80
FFFFFFFF80
FFFFFFFF80
FFFFFFFF80
FFFFFFFF80
FFFFFFFF80
FFFFFFFF80
FFFFFFFF80
FFFFFFFF80
FFFFFFFF80
FFFFFFFF80
FFFFFFFF80
FFFFFFFF80
FFFFFFFF80
FFFFFFFF80
FFFFFFFF80
FFFFFFFF80
FFFFFFFF80
ENDCHAR
STARTCHAR 258C
ENCODING 9612
SWIDTH 720 0
DWIDTH 33 0
BBX 16 56 0 -14
BITMAP
FFFF
FFFF
FFFF
FFFF
FFFF
FFFF
FFFF
FFFF
FFFF
FFFF
FFFF
FFFF
FFFF
FFFF
FFFF
FFFF
FFFF
FFFF
FFFF
FFFF
FFFF
FFFF
FFFF
FFFF
FFFF
FFFF
FFFF
FFFF
FFFF
FFFF
FFFF
FFFF
FFFF
FFFF
FFFF
FFFF
FFFF
FFFF
FFFF
FFFF
FFFF
FFFF
FFFF
FFFF
FFFF
FFFF
FFFF
FFFF
FFFF
FFFF
FFFF
FFFF
FFFF
FFFF
FFFF
FFFF
ENDCHAR
STARTCHAR 2590
ENCODING 9616
SWIDTH 720 0
DWIDTH 33 0
BBX 17 56 16 -14
BITMAP
FFFF80
FFFF80
FFFF80
FFFF80
FFFF80
FFFF80
FFFF80
FFFF80
FFFF80
FFFF80
FFFF80
FFFF80
FFFF80
FFFF80
FFFF80
FFFF80
FFFF80
FFFF80
FFFF80
FFFF80
FFFF80
FFFF80
FFFF80
FFFF80
FFFF80
FFFF80
FFFF80
FFFF80
FFFF80
FFFF80
FFFF80
FFFF80
FFFF80
FFFF80
FFFF80
FFFF80
FFFF80
FFFF80
FFFF80
FFFF80
FFFF80
FFFF80
FFFF80
FFFF80
FFFF80
FFFF80
FFFF80
FFFF80
FFFF80
FFFF80
FFFF80
FFFF80
FFFF80
FFFF80
FFFF80
FFFF80
ENDCHAR
STARTCHAR 2591
ENCODING 9617
SWIDTH 720 0
DWIDTH 33 0
BBX 31 50 2 -12
BITMAP
E030180E
E030180E
00000000
00000000
060380C0
060380C0
00000000
00000000
00000000
E030180E
E030180E
00000000
00000000
060380C0
060380C0
00000000
00000000
E030180E
E030180E
00000000
00000000
00000000
060380C0
060380C0
00000000
00000000
E030180E
E030180E
00000000
00000000
060380C0
060380C0
00000000
00000000
00000000
E030180E
E030180E
00000000
00000000
060380C0
060380C0
00000000
00000000
E030180E
E030180E
00000000
00000000
00000000
060380C0
060380C0
ENDCHAR
STARTCHAR 2592
ENCODING 9618
SWIDTH 720 0
DWIDTH 33 0
BBX 33 50 0 -12
BITMAP
398CE63380
398CE63380
0000000000
0000000000
C67319CC00
C67319CC00
0000000000
0000000000
0000000000
398CE63380
398CE63380
0000000000
0000000000
C67319CC00
C67319CC00
0000000000
0000000000
398CE63380
398CE63380
0000000000
0000000000
0000000000
C67319CC00
C67319CC00
0000000000
0000000000
398CE63380
398CE63380
0000000000
0000000000
C67319CC00
C67319CC00
0000000000
0000000000
0000000000
398CE63380
398CE63380
0000000000
0000000000
C67319CC00
C67319CC00
0000000000
0000000000
398CE63380
398CE63380
0000000000
0000000000
0000000000
C67319CC00
C67319CC00
ENDCHAR
STARTCHAR 2593
ENCODING 9619
SWIDTH 741 0
DWIDTH 34 0
BBX 34 52 0 -14
BITMAP
39CC6339C0
39CC6339C0
FFFFFFFFC0
FFFFFFFFC0
C6339CC600
C6339CC600
FFFFFFFFC0
FFFFFFFFC0
39CC6339C0
39CC6339C0
39CC6339C0
FFFFFFFFC0
C6339CC600
C6339CC600
C6339CC600
FFFFFFFFC0
FFFFFFFFC0
39CC6339C0
39CC6339C0
FFFFFFFFC0
FFFFFFFFC0
FFFFFFFFC0
C6339CC600
FFFFFFFFC0
FFFFFFFFC0
39CC6339C0
39CC6339C0
FFFFFFFFC0
FFFFFFFFC0
FFFFFFFFC0
C6339CC600
C6339CC600
FFFFFFFFC0
FFFFFFFFC0
39CC6339C0
39CC6339C0
FFFFFFFFC0
FFFFFFFFC0
FFFFFFFFC0
C6339CC600
C6339CC600
FFFFFFFFC0
FFFFFFFFC0
39CC6339C0
39CC6339C0
FFFFFFFFC0
FFFFFFFFC0
FFFFFFFFC0
C6339CC600
C6339CC600
FFFFFFFFC0
FFFFFFFFC0
ENDCHAR
STARTCHAR 25A0
ENCODING 9632
SWIDTH 610 0
DWIDTH 28 0
BBX 22 22 3 3
BITMAP
FFFFFC
FFFFFC
FFFFFC
FFFFFC
FFFFFC
FFFFFC
FFFFFC
FFFFFC
FFFFFC
FFFFFC
FFFFFC
FFFFFC
FFFFFC
FFFFFC
FFFFFC
FFFFFC
FFFFFC
FFFFFC
FFFFFC
FFFFFC
FFFFFC
FFFFFC
ENDCHAR
STARTCHAR 25A1
ENCODING 9633
SWIDTH 610 0
DWIDTH 28 0
BBX 28 28 0 0
BITMAP
FFFFFFF0
FFFFFFF0
C0000030
C0000030
C0000030
C0000030
C0000030
C0000030
C0000030
C0000030
C0000030
C0000030
C0000030
C0000030
C0000030
C0000030
C0000030
C0000030
C0000030
C0000030
C0000030
C0000030
C0000030
C0000030
C0000030
C0000030
FFFFFFF0
FFFFFFF0
ENDCHAR
STARTCHAR 25AA
ENCODING 9642
SWIDTH 349 0
DWIDTH 16 0
BBX 12 11 2 9
BITMAP
FFF0
FFF0
FFF0
FFF0
FFF0
FFF0
FFF0
FFF0
FFF0
FFF0
FFF0
ENDCHAR
STARTCHAR 25AB
ENCODING 9643
SWIDTH 349 0
DWIDTH 16 0
BBX 12 11 2 9
BITMAP
FFF0
FFF0
C030
C030
C030
C030
C030
C030
C030
FFF0
FFF0
ENDCHAR
STARTCHAR 25AC
ENCODING 9644
SWIDTH 1003 0
DWIDTH 46 0
BBX 46 14 0 0
BITMAP
FFFFFFFFFFFC
FFFFFFFFFFFC
FFFFFFFFFFFC
FFFFFFFFFFFC
FFFFFFFFFFFC
FFFFFFFFFFFC
FFFFFFFFFFFC
FFFFFFFFFFFC
FFFFFFFFFFFC
FFFFFFFFFFFC
FFFFFFFFFFFC
FFFFFFFFFFFC
FFFFFFFFFFFC
FFFFFFFFFFFC
ENDCHAR
STARTCHAR 25B2
ENCODING 9650
SWIDTH 1003 0
DWIDTH 46 0
BBX 26 26 10 1
BITMAP
00080000
000C0000
001C0000
001E0000
003E0000
003F0000
007F0000
007F8000
00FF8000
00FFC000
01FFC000
01FFE000
03FFE000
03FFF000
07FFF000
07FFF800
0FFFF800
0FFFFC00
1FFFFC00
1FFFFE00
3FFFFE00
3FFFFF00
7FFFFF00
7FFFFF80
FFFFFF80
FFFFFFC0
ENDCHAR
STARTCHAR 25BA
ENCODING 9658
SWIDTH 1003 0
DWIDTH 46 0
BBX 27 27 9 -1
BITMAP
80000000
E0000000
F8000000
FE000000
FF800000
FFE00000
FFF80000
FFFE0000
FFFF8000
FFFFE000
FFFFF800
FFFFFE00
FFFFFF80
FFFFFFE0
FFFFFFC0
FFFFFF00
FFFFFC00
FFFFF000
FFFFC000
FFFF0000
FFFC0000
FFF00000
FFC00000
FF000000
FC000000
F0000000
C0000000
ENDCHAR
STARTCHAR 25BC
ENCODING 9660
SWIDTH 1003 0
DWIDTH 46 0
BBX 26 26 10 -1
BITMAP
FFFFFFC0
FFFFFF80
7FFFFF80
7FFFFF00
3FFFFF00
3FFFFE00
1FFFFE00
1FFFFC00
0FFFFC00
0FFFF800
07FFF800
07FFF000
03FFF000
03FFE000
01FFE000
01FFC000
00FFC000
00FF8000
007F8000
007F0000
003F0000
003E0000
001E0000
001C0000
000C0000
00080000
ENDCHAR
STARTCHAR 25C4
ENCODING 9668
SWIDTH 1003 0
DWIDTH 46 0
BBX 28 28 9 -1
BITMAP
00000010
00000070
000001F0
000007F0
00001FF0
00007FF0
0001FFF0
0007FFF0
001FFFF0
007FFFF0
01FFFFF0
07FFFFF0
1FFFFFF0
7FFFFFF0
FFFFFFF0
1FFFFFF0
07FFFFF0
01FFFFF0
007FFFF0
001FFFF0
0007FFF0
0001FFF0
00007FF0
00001FF0
000007F0
000001F0
00000070
00000010
ENDCHAR
STARTCHAR 25CA
ENCODING 9674
SWIDTH 501 0
DWIDTH 23 0
BBX 23 32 0 0
BITMAP
003800
007C00
00FC00
00FE00
01FF00
03EF00
03CF80
07C7C0
0783C0
0F83E0
1F01E0
1E01F0
3E00F8
7C0078
7C007C
F8003E
78007C
7C007C
3E00F8
3E00F0
1F01F0
0F03E0
0F83E0
0787C0
03C780
03EF80
01EF00
01FE00
00FE00
007C00
007800
003800
ENDCHAR
STARTCHAR 25CB
ENCODING 9675
SWIDTH 610 0
DWIDTH 28 0
BBX 20 20 4 4
BITMAP
01F800
07FE00
1E0780
3801C0
7000C0
600060
E00060
C00030
C00030
C00030
C00030
C00030
C00030
C00060
600060
7000C0
3801C0
1E0780
0FFE00
01F800
ENDCHAR
ENDFONT
